<svg width="90" height="98" viewBox="0 0 90 98" fill="none" xmlns="http://www.w3.org/2000/svg">
<g clip-path="url(#clip0)">
<path d="M57.8881 56.6084L44.8559 64.217L31.8237 56.6084V41.3913L44.8559 33.7827L57.8881 41.3913V56.6084Z" fill="#F47575"/>
<path d="M57.888 41.3911L31.8237 56.6083L44.8559 64.2168L57.888 56.6083V41.3911Z" fill="#FD3434"/>
<path d="M57.8881 22.9712L44.8559 30.5798L31.8237 22.9712V7.75409L44.8559 0.145508L57.8881 7.75409V22.9712Z" fill="#EDB4B4"/>
<path d="M57.888 7.75391L31.8237 22.9711L44.8559 30.5797L57.888 22.9711V7.75391Z" fill="#E07B7B"/>
<path d="M26.2084 39.4258L13.1762 47.0344L0.144043 39.4258V24.2087L13.1762 16.6001L26.2084 24.2087V39.4258Z" fill="#EDB4B4"/>
<path d="M26.2083 24.2085L0.144043 39.4257L13.1762 47.0342L26.2083 39.4257V24.2085Z" fill="#E07B7B"/>
<path d="M89.8558 39.4258L76.8237 47.0344L63.7915 39.4258V24.2087L76.8237 16.6001L89.8558 24.2087V39.4258Z" fill="#EDB4B4"/>
<path d="M89.8558 24.2085L63.7915 39.4257L76.8236 47.0342L89.8558 39.4257V24.2085Z" fill="#E07B7B"/>
<path d="M26.2084 73.0631L13.1762 80.6716L0.144043 73.0631V57.8459L13.1762 50.2373L26.2084 57.8459V73.0631Z" fill="#EDB4B4"/>
<path d="M26.2083 57.8457L0.144043 73.0629L13.1762 80.6715L26.2083 73.0629V57.8457Z" fill="#E07B7B"/>
<path d="M57.8881 90.2457L44.8559 97.8542L31.8237 90.2457V75.0285L44.8559 67.4199L57.8881 75.0285V90.2457Z" fill="#EDB4B4"/>
<path d="M57.888 75.0283L31.8237 90.2455L44.8559 97.854L57.888 90.2455V75.0283Z" fill="#E07B7B"/>
<path d="M89.5678 73.024L76.5356 80.6326L63.5034 73.024V57.8068L76.5356 50.1982L89.5678 57.8068V73.024Z" fill="#EDB4B4"/>
<path d="M89.5677 57.8066L63.5034 73.0238L76.5356 80.6324L89.5677 73.0238V57.8066Z" fill="#E07B7B"/>
</g>
<defs>
<clipPath id="clip0">
<rect width="90" height="98" fill="white"/>
</clipPath>
</defs>
</svg>
