<?xml version="1.0" encoding="UTF-8" standalone="no"?>
<svg
   xmlns:dc="http://purl.org/dc/elements/1.1/"
   xmlns:cc="http://creativecommons.org/ns#"
   xmlns:rdf="http://www.w3.org/1999/02/22-rdf-syntax-ns#"
   xmlns:svg="http://www.w3.org/2000/svg"
   xmlns="http://www.w3.org/2000/svg"
   xmlns:sodipodi="http://sodipodi.sourceforge.net/DTD/sodipodi-0.dtd"
   xmlns:inkscape="http://www.inkscape.org/namespaces/inkscape"
   id="a76d04cf-4eac-47e3-b05a-1f8f938c71e5"
   data-name="Layer 1"
   width="610.96301"
   height="426.36053"
   viewBox="0 0 610.96301 426.36053"
   version="1.1"
   sodipodi:docname="undraw_image_viewer_wxce.svg"
   inkscape:version="0.92.3 (2405546, 2018-03-11)">
  <metadata
     id="metadata59">
    <rdf:RDF>
      <cc:Work
         rdf:about="">
        <dc:format>image/svg+xml</dc:format>
        <dc:type
           rdf:resource="http://purl.org/dc/dcmitype/StillImage" />
        <dc:title />
      </cc:Work>
    </rdf:RDF>
  </metadata>
  <defs
     id="defs57" />
  <sodipodi:namedview
     pagecolor="#ffffff"
     bordercolor="#666666"
     borderopacity="1"
     objecttolerance="10"
     gridtolerance="10"
     guidetolerance="10"
     inkscape:pageopacity="0"
     inkscape:pageshadow="2"
     inkscape:window-width="1920"
     inkscape:window-height="1052"
     id="namedview55"
     showgrid="false"
     fit-margin-top="1"
     fit-margin-left="1"
     fit-margin-right="1"
     fit-margin-bottom="1"
     inkscape:zoom="1.3480732"
     inkscape:cx="235.85725"
     inkscape:cy="218.69584"
     inkscape:window-x="0"
     inkscape:window-y="0"
     inkscape:window-maximized="1"
     inkscape:current-layer="a76d04cf-4eac-47e3-b05a-1f8f938c71e5" />
  <path
     d="M 590.82735,425.36053 H 20.1356 A 19.1356,19.1356 0 0 1 1,406.22493 v 0 q 310.31347,-36.06437 608.963,0 v 0 a 19.1356,19.1356 0 0 1 -19.13565,19.1356 z"
     id="path4"
     style="fill:#74828c;fill-opacity:1"
     inkscape:connector-curvature="0" />
  <path
     d="M 609.96295,407.35053 1,406.22488 71.57668,287.47148 71.91436,286.90866 V 25.18966 A 24.18764,24.18764 0 0 1 96.10402,1.0000001 h 415.378 A 24.18764,24.18764 0 0 1 535.67168,25.18966 v 263.52 z"
     id="path6"
     style="fill:#d5d8e1;fill-opacity:1"
     inkscape:connector-curvature="0" />
  <path
     d="M 95.55248,17.8844 A 7.88822,7.88822 0 0 0 87.6731,25.76377 V 264.3962 a 7.88858,7.88858 0 0 0 7.87938,7.87937 h 419.858 a 7.88892,7.88892 0 0 0 7.87937,-7.87937 V 25.76377 a 7.88857,7.88857 0 0 0 -7.87937,-7.87937 z"
     id="path8"
     inkscape:connector-curvature="0"
     style="fill:#ffffff" />
  <path
     d="m 97.31184,303.79306 a 3.38619,3.38619 0 0 0 -3.068,1.96545 l -21.74687,47.27624 a 3.37672,3.37672 0 0 0 3.06743,4.7883 h 457.32514 a 3.37649,3.37649 0 0 0 3.01962,-4.88723 l -23.63812,-47.27624 a 3.35975,3.35975 0 0 0 -3.01962,-1.86652 z"
     id="path10"
     style="fill:#5d6f84;fill-opacity:1"
     inkscape:connector-curvature="0" />
  <circle
     cx="303.79306"
     cy="8.8793983"
     r="5.06531"
     id="circle12"
     style="fill:#ffffff" />
  <path
     d="m 258.8417,366.82805 a 3.382,3.382 0 0 0 -3.26035,2.49858 l -5.455,20.26124 a 3.37655,3.37655 0 0 0 3.26035,4.25517 h 103.7416 a 3.3761,3.3761 0 0 0 3.19,-4.48161 l -7.01316,-20.26125 a 3.37866,3.37866 0 0 0 -3.19111,-2.27213 z"
     id="path14"
     style="fill:#5d6f84;fill-opacity:1"
     inkscape:connector-curvature="0" />
  <polygon
     points="100.081,338.028 563.827,338.028 563.827,342.53 99.732,342.53 100.081,341.968 "
     id="polygon16"
     style="fill:#2f2e41"
     transform="translate(-28.15516,-55.05896)" />
  <path
     d="m 147.13074,67.43212 a 6.20636,6.20636 0 0 0 -6.11,6.28545 v 142.47025 a 6.20636,6.20636 0 0 0 6.11,6.28545 h 316.70147 a 6.20637,6.20637 0 0 0 6.11,-6.28545 V 73.71757 a 6.20637,6.20637 0 0 0 -6.11,-6.28545 z"
     id="path18"
     style="fill:#ffdada;fill-opacity:1"
     inkscape:connector-curvature="0" />
  <path
     style="color:#000000;font-style:normal;font-variant:normal;font-weight:normal;font-stretch:normal;font-size:medium;line-height:normal;font-family:sans-serif;font-variant-ligatures:normal;font-variant-position:normal;font-variant-caps:normal;font-variant-numeric:normal;font-variant-alternates:normal;font-feature-settings:normal;text-indent:0;text-align:start;text-decoration:none;text-decoration-line:none;text-decoration-style:solid;text-decoration-color:#000000;letter-spacing:normal;word-spacing:normal;text-transform:none;writing-mode:lr-tb;direction:ltr;text-orientation:mixed;dominant-baseline:auto;baseline-shift:baseline;text-anchor:start;white-space:normal;shape-padding:0;clip-rule:nonzero;display:inline;overflow:visible;visibility:visible;opacity:1;isolation:auto;mix-blend-mode:normal;color-interpolation:sRGB;color-interpolation-filters:linearRGB;solid-color:#000000;solid-opacity:1;vector-effect:none;fill:#fd3434;fill-opacity:1;fill-rule:nonzero;stroke:none;stroke-width:2;stroke-linecap:butt;stroke-linejoin:miter;stroke-miterlimit:4;stroke-dasharray:none;stroke-dashoffset:0;stroke-opacity:1;color-rendering:auto;image-rendering:auto;shape-rendering:auto;text-rendering:auto;enable-background:accumulate"
     d="m 182.2168,88.429688 c -5.38839,-0.175411 -10.6117,3.848532 -15.29688,9.029296 -9.37034,10.361526 -16.7207,25.912106 -16.7207,25.912106 l 1.80664,0.85743 c 0,0 7.34765,-15.42173 16.39648,-25.427739 4.52442,-5.003003 9.44096,-8.511368 13.75,-8.371093 2.15452,0.07014 4.2385,0.972677 6.32618,3.189453 2.08767,2.216775 4.12843,5.768382 5.95898,10.986329 14.86237,42.36479 20.14369,69.23232 28.50391,83.16406 4.18996,6.98231 9.4438,10.5736 14.92382,12.33594 5.48003,1.76233 11.15311,1.74805 16.34571,1.74805 h 207.70508 v -2 H 254.21094 c -5.1926,0 -10.64376,-0.0152 -15.73438,-1.65235 -5.09061,-1.6371 -9.85049,-4.84548 -13.82031,-11.46094 -7.95938,-13.26378 -13.43182,-40.32422 -28.33203,-82.79687 -1.88977,-5.386736 -4.02224,-9.180466 -6.39063,-11.695313 -2.36838,-2.514848 -5.0226,-3.730654 -7.71679,-3.818359 z"
     id="path827"
     inkscape:connector-curvature="0" />
  <path
     d="m 154.7315,119.00579 a 1.01839,1.01839 0 0 1 -1.01834,-1.01833 V 49.75917 a 1.0184,1.0184 0 0 1 1.01834,-1.01834 h 78.41161 a 1.01834,1.01834 0 1 1 0,2.03667 h -77.39327 v 67.21 a 1.01838,1.01838 0 0 1 -1.01834,1.01829 z"
     id="path24"
     inkscape:connector-curvature="0"
     style="fill:#3f3d56" />
  <path
     d="m 456.15797,120.02412 a 1.01806,1.01806 0 0 1 -1.01833,-1.01833 v -67.21 h -77.39329 a 1.01833,1.01833 0 1 1 0,-2.03666 h 78.41162 a 1.01806,1.01806 0 0 1 1.01833,1.01833 v 68.22829 a 1.01806,1.01806 0 0 1 -1.01833,1.01837 z"
     id="path26"
     inkscape:connector-curvature="0"
     style="fill:#3f3d56" />
  <path
     d="M 233.14311,240.18738 H 154.7315 a 1.01807,1.01807 0 0 1 -1.01834,-1.01833 v -68.22829 a 1.01834,1.01834 0 1 1 2.03667,0 v 67.20995 h 77.39328 a 1.01834,1.01834 0 1 1 0,2.03667 z"
     id="path28"
     inkscape:connector-curvature="0"
     style="fill:#3f3d56" />
  <path
     d="m 456.15797,241.20571 h -78.41162 a 1.01833,1.01833 0 1 1 0,-2.03666 h 77.39329 v -67.21 a 1.01833,1.01833 0 0 1 2.03666,0 v 68.22833 a 1.01774,1.01774 0 0 1 -1.01833,1.01833 z"
     id="path30"
     inkscape:connector-curvature="0"
     style="fill:#3f3d56" />
  <g
     aria-label="!"
     style="font-style:normal;font-variant:normal;font-weight:normal;font-stretch:normal;font-size:85.33333588px;line-height:1.25;font-family:Roboto;-inkscape-font-specification:Roboto;text-align:center;letter-spacing:0px;word-spacing:0px;text-anchor:middle;fill:#fd3434;fill-opacity:1;stroke:none"
     id="text870">
    <path
       d="m 307.90824,104.75722 v 24.40534 q 0,1.92 -0.0853,3.75467 -0.0427,1.83466 -0.17067,3.712 -0.128,1.83466 -0.34133,3.79733 -0.17067,1.92 -0.42667,4.13867 h -5.16267 q -0.256,-2.21867 -0.46933,-4.13867 -0.17067,-1.96267 -0.29867,-3.79733 -0.128,-1.87734 -0.21333,-3.712 -0.0427,-1.83467 -0.0427,-3.75467 v -24.40534 z m -9.04533,56.44801 q 0,-1.10934 0.384,-2.09067 0.42666,-0.98133 1.10933,-1.70667 0.72533,-0.72533 1.70667,-1.152 0.98133,-0.42666 2.09066,-0.42666 1.10934,0 2.09067,0.42666 0.98133,0.42667 1.70667,1.152 0.72533,0.72534 1.10933,1.70667 0.42667,0.98133 0.42667,2.09067 0,1.152 -0.42667,2.13333 -0.384,0.93867 -1.10933,1.664 -0.72534,0.72533 -1.70667,1.10933 -0.98133,0.42667 -2.09067,0.42667 -1.10933,0 -2.09066,-0.42667 -0.98134,-0.384 -1.70667,-1.10933 -0.68267,-0.72533 -1.10933,-1.664 -0.384,-0.98133 -0.384,-2.13333 z"
       style="font-style:normal;font-variant:normal;font-weight:normal;font-stretch:normal;font-family:Lato;-inkscape-font-specification:Lato;fill:#fd3434;fill-opacity:1"
       id="path826" />
  </g>
</svg>
