<?xml version="1.0" encoding="UTF-8" standalone="no"?>
<svg
   xmlns:dc="http://purl.org/dc/elements/1.1/"
   xmlns:cc="http://creativecommons.org/ns#"
   xmlns:rdf="http://www.w3.org/1999/02/22-rdf-syntax-ns#"
   xmlns:svg="http://www.w3.org/2000/svg"
   xmlns="http://www.w3.org/2000/svg"
   id="svg17967"
   version="1.1"
   viewBox="0 0 26.458334 26.458334"
   height="26.458334mm"
   width="26.458334mm">
  <defs
     id="defs17961" />
  <metadata
     id="metadata17964">
    <rdf:RDF>
      <cc:Work
         rdf:about="">
        <dc:format>image/svg+xml</dc:format>
        <dc:type
           rdf:resource="http://purl.org/dc/dcmitype/StillImage" />
        <dc:title></dc:title>
      </cc:Work>
    </rdf:RDF>
  </metadata>
  <g
     transform="translate(27.592262,-219.51488)"
     id="layer1">
    <rect
       ry="0.48886797"
       y="219.51488"
       x="-27.592262"
       height="26.458334"
       width="26.458334"
       id="rect815"
       style="opacity:0;fill:#000000;fill-opacity:1;stroke:none;stroke-width:0.14999999;stroke-linecap:round;stroke-linejoin:round;stroke-miterlimit:4;stroke-dasharray:none;stroke-dashoffset:0;stroke-opacity:1;paint-order:normal" />
    <path
       id="rect1348"
       d="m -18.052518,222.45709 c -0.318165,0 -0.589112,0.27094 -0.589112,0.5891 v 2.31511 h -1.803506 v -1.35392 c 0,-0.29287 -0.24974,-0.54364 -0.542603,-0.54364 h -2.320272 c -0.292863,0 -0.543119,0.25077 -0.543119,0.54364 v 1.35392 h -0.738457 c -0.371329,0 -0.684711,0.31338 -0.684711,0.68471 v 4.61729 c 0,0.37134 0.313382,0.68472 0.684711,0.68472 h 0.606165 c -4.5e-4,0.0131 -0.004,0.0255 -0.004,0.0388 v 10.66911 c 0,0.5323 0.443869,0.97513 0.976167,0.97513 h 17.2640638 c 0.532302,0 0.975652,-0.44283 0.975652,-0.97513 v -10.66911 c 0,-0.0132 -0.0035,-0.0256 -0.004,-0.0388 h 0.639237 c 0.371334,0 0.684716,-0.31338 0.684716,-0.68472 v -4.61729 c 0,-0.37133 -0.313382,-0.68471 -0.684716,-0.68471 h -0.962183 v -1.35392 c 0,-0.29287 -0.250772,-0.54364 -0.543635,-0.54364 h -2.320273 c -0.292863,0 -0.542603,0.25077 -0.542603,0.54364 v 1.35392 h -1.8091898 v -2.31511 c 0,-0.31816 -0.270946,-0.5891 -0.589112,-0.5891 z m 0.33693,0.92655 h 6.47506 v 1.94407 h -6.47506 z m -5.208985,1.00614 h 1.553911 v 0.90176 h -1.553911 z m 15.3453178,0 h 1.554427 v 0.90176 h -1.554427 z m -16.7679688,1.89704 h 19.9693258 v 4.13516 h -1.259355 c -0.0366,-0.004 -0.07248,-0.0114 -0.110071,-0.0114 H -23.011387 c -0.03757,0 -0.07349,0.007 -0.110071,0.0114 h -1.225766 z m 3.803385,0.44287 a 0.46306714,0.46306714 0 0 0 -0.45682,0.46922 v 0.70642 h -0.7059 a 0.46306714,0.46306714 0 1 0 0,0.92604 h 0.7059 v 0.7059 a 0.46306714,0.46306714 0 1 0 0.926041,0 v -0.7059 h 0.70642 a 0.46306714,0.46306714 0 1 0 0,-0.92604 h -0.70642 v -0.70642 a 0.46306714,0.46306714 0 0 0 -0.469221,-0.46922 z m 10.478947,1.17564 a 0.46306714,0.46306714 0 1 0 0,0.92604 h 2.3383608 a 0.46306714,0.46306714 0 1 0 0,-0.92604 z m -12.98112,3.44269 h 17.3327928 c 0.0095,0.008 0.01499,0.0195 0.01499,0.0388 v 10.66911 c 0,0.0353 -0.0138,0.0491 -0.04909,0.0491 H -23.011383 c -0.03528,0 -0.05013,-0.0138 -0.05013,-0.0491 v -10.66911 c 0,-0.0193 0.0057,-0.031 0.01552,-0.0388 z"
       style="color:#000000;font-style:normal;font-variant:normal;font-weight:normal;font-stretch:normal;font-size:medium;line-height:normal;font-family:sans-serif;font-variant-ligatures:normal;font-variant-position:normal;font-variant-caps:normal;font-variant-numeric:normal;font-variant-alternates:normal;font-feature-settings:normal;text-indent:0;text-align:start;text-decoration:none;text-decoration-line:none;text-decoration-style:solid;text-decoration-color:#000000;letter-spacing:normal;word-spacing:normal;text-transform:none;writing-mode:lr-tb;direction:ltr;text-orientation:mixed;dominant-baseline:auto;baseline-shift:baseline;text-anchor:start;white-space:normal;shape-padding:0;clip-rule:nonzero;display:inline;overflow:visible;visibility:visible;opacity:1;isolation:auto;mix-blend-mode:normal;color-interpolation:sRGB;color-interpolation-filters:linearRGB;solid-color:#000000;solid-opacity:1;vector-effect:none;fill:#000000;fill-opacity:1;fill-rule:nonzero;stroke:none;stroke-width:0.92604166;stroke-linecap:round;stroke-linejoin:round;stroke-miterlimit:4;stroke-dasharray:none;stroke-dashoffset:0;stroke-opacity:1;paint-order:normal;color-rendering:auto;image-rendering:auto;shape-rendering:auto;text-rendering:auto;enable-background:accumulate" />
  </g>
</svg>
