<?xml version="1.0" encoding="UTF-8" standalone="no"?>
<svg
   xmlns:dc="http://purl.org/dc/elements/1.1/"
   xmlns:cc="http://creativecommons.org/ns#"
   xmlns:rdf="http://www.w3.org/1999/02/22-rdf-syntax-ns#"
   xmlns:svg="http://www.w3.org/2000/svg"
   xmlns="http://www.w3.org/2000/svg"
   xmlns:sodipodi="http://sodipodi.sourceforge.net/DTD/sodipodi-0.dtd"
   xmlns:inkscape="http://www.inkscape.org/namespaces/inkscape"
   id="svg8619"
   version="1.1"
   viewBox="0 0 26.458334 26.458334"
   height="26.458334mm"
   width="26.458334mm"
   sodipodi:docname="production_biogas.svg"
   inkscape:version="0.92.3 (2405546, 2018-03-11)">
  <sodipodi:namedview
     pagecolor="#ffffff"
     bordercolor="#666666"
     borderopacity="1"
     objecttolerance="10"
     gridtolerance="10"
     guidetolerance="10"
     inkscape:pageopacity="0"
     inkscape:pageshadow="2"
     inkscape:window-width="961"
     inkscape:window-height="480"
     id="namedview9"
     showgrid="false"
     inkscape:zoom="2.3599999"
     inkscape:cx="50.000001"
     inkscape:cy="50.000001"
     inkscape:window-x="67"
     inkscape:window-y="27"
     inkscape:window-maximized="0"
     inkscape:current-layer="layer1" />
  <defs
     id="defs8613" />
  <metadata
     id="metadata8616">
    <rdf:RDF>
      <cc:Work
         rdf:about="">
        <dc:format>image/svg+xml</dc:format>
        <dc:type
           rdf:resource="http://purl.org/dc/dcmitype/StillImage" />
        <dc:title />
      </cc:Work>
    </rdf:RDF>
  </metadata>
  <g
     transform="translate(32.88393,-159.79465)"
     id="layer1">
    <g
       transform="matrix(0.25415892,0,0,0.25415892,-32.362712,160.4454)"
       id="g1164"
       style="fill:#000000">
      <path
         d="M 50.6,31.1 C 50.2,31 49.8,31 49.4,31.1 42.1,33.5 37,41.2 37,50 c 0,8.2 4.5,15.5 11,18.4 V 73 c 0,1.1 0.9,2 2,2 1.1,0 2,-0.9 2,-2 V 68.4 C 58.5,65.6 63,58.2 63,50 63,41.2 57.9,33.5 50.6,31.1 Z M 52,63.9 V 47 c 0,-1.1 -0.9,-2 -2,-2 -1.1,0 -2,0.9 -2,2 v 16.9 c -4.2,-2.7 -7,-8 -7,-13.9 0,-6.8 3.7,-12.8 9,-14.9 5.3,2.1 9,8.1 9,14.9 0,5.9 -2.8,11.2 -7,13.9 z M 83,67 H 79 V 39 h 4 c 1.1,0 2,-0.9 2,-2 0,-1.1 -0.9,-2 -2,-2 H 79 V 33 C 79,26.4 73.6,21 67,21 H 62 V 9 h 4 C 67.1,9 68,8.1 68,7 68,5.9 67.1,5 66,5 H 60 40 34 c -1.1,0 -2,0.9 -2,2 0,1.1 0.9,2 2,2 h 4 v 12 h -5 c -6.6,0 -12,5.4 -12,12 v 2 h -4 c -1.1,0 -2,0.9 -2,2 0,1.1 0.9,2 2,2 h 4 v 28 h -4 c -1.1,0 -2,0.9 -2,2 0,1.1 0.9,2 2,2 h 4 v 2 c 0,5.9 4.3,10.9 10,11.8 V 89 c 0,3.3 2.7,6 6,6 h 26 c 3.3,0 6,-2.7 6,-6 v -4.2 c 5.7,-1 10,-5.9 10,-11.8 v -2 h 4 c 1.1,0 2,-0.9 2,-2 0,-1.1 -0.9,-2 -2,-2 z M 42,9 h 16 v 12 h -6 v -4 c 0,-1.1 -0.9,-2 -2,-2 -1.1,0 -2,0.9 -2,2 v 4 h -6 z m 23,80 c 0,1.1 -0.9,2 -2,2 H 37 c -1.1,0 -2,-0.9 -2,-2 V 85 H 65 Z M 75,73 c 0,4.4 -3.6,8 -8,8 H 33 c -4.4,0 -8,-3.6 -8,-8 v -2 h 6 c 1.1,0 2,-0.9 2,-2 0,-1.1 -0.9,-2 -2,-2 H 25 V 39 h 6 c 1.1,0 2,-0.9 2,-2 0,-1.1 -0.9,-2 -2,-2 h -6 v -2 c 0,-4.4 3.6,-8 8,-8 h 7 20 7 c 4.4,0 8,3.6 8,8 v 2 h -6 c -1.1,0 -2,0.9 -2,2 0,1.1 0.9,2 2,2 h 6 v 28 h -6 c -1.1,0 -2,0.9 -2,2 0,1.1 0.9,2 2,2 h 6 z"
         id="path1153" />
    </g>
  </g>
</svg>
