<?xml version="1.0" encoding="UTF-8" standalone="no"?>
<svg
   xmlns:dc="http://purl.org/dc/elements/1.1/"
   xmlns:cc="http://creativecommons.org/ns#"
   xmlns:rdf="http://www.w3.org/1999/02/22-rdf-syntax-ns#"
   xmlns:svg="http://www.w3.org/2000/svg"
   xmlns="http://www.w3.org/2000/svg"
   id="svg12277"
   version="1.1"
   viewBox="0 0 26.458414 26.458334"
   height="26.458334mm"
   width="26.458414mm">
  <defs
     id="defs12271" />
  <metadata
     id="metadata12274">
    <rdf:RDF>
      <cc:Work
         rdf:about="">
        <dc:format>image/svg+xml</dc:format>
        <dc:type
           rdf:resource="http://purl.org/dc/dcmitype/StillImage" />
        <dc:title></dc:title>
      </cc:Work>
    </rdf:RDF>
  </metadata>
  <g
     transform="translate(143.78217,-180.9377)"
     id="layer1">
    <path
       d="m -118.56405,186.79102 h -5.78776 v -0.62012 a 1.2415904,1.2415904 0 0 1 1.24024,-1.24023 h 0.42777 a 1.6554752,1.6554752 0 0 1 -0.0144,-0.20671 v -0.62011 h -0.41341 a 2.06936,2.06936 0 0 0 -2.06706,2.06705 v 0.62012 h -1.65365 v -0.62012 a 3.7249013,3.7249013 0 0 1 3.72071,-3.7207 h 0.41341 v -0.62012 a 1.6554752,1.6554752 0 0 1 0.0144,-0.2067 h -0.42778 a 4.5526711,4.5526711 0 0 0 -4.54753,4.54752 v 0.62012 h -1.65364 v -1.03353 a 2.0700091,2.0700091 0 0 0 -1.47299,-1.97911 2.1365931,2.1365931 0 0 1 -0.0426,0.86987 1.2404576,1.2404576 0 0 1 0.68876,1.10924 v 1.03353 h -10.7487 v -1.03353 a 1.2404576,1.2404576 0 0 1 0.68874,-1.10924 2.1365931,2.1365931 0 0 1 -0.0426,-0.86987 2.0700091,2.0700091 0 0 0 -1.47298,1.97911 v 1.03353 h -0.82682 a 1.2415904,1.2415904 0 0 0 -1.24023,1.24023 v 14.46941 a 1.2415904,1.2415904 0 0 0 1.24023,1.24023 h 0.75958 l 0.7678,1.81473 a 0.41346313,0.41346313 0 0 0 0.38072,0.25233 h 2.79838 a 0.41346313,0.41346313 0 0 0 0.38071,-0.25233 l 0.76782,-1.81473 h 12.26785 l 0.7678,1.81473 a 0.41346313,0.41346313 0 0 0 0.38072,0.25233 h 2.79838 a 0.41346313,0.41346313 0 0 0 0.38071,-0.25233 l 0.76782,-1.81473 h 0.75957 a 1.2415904,1.2415904 0 0 0 1.24024,-1.24023 v -14.46941 a 1.2415904,1.2415904 0 0 0 -1.24024,-1.24023 z m -19.5454,18.19011 h -2.25034 l -0.52479,-1.24024 h 3.29992 z m 17.36329,0 h -2.25035 l -0.52479,-1.24024 h 3.29993 z m 2.59553,-2.48047 a 0.41382487,0.41382487 0 0 1 -0.41342,0.41341 h -23.97786 a 0.41382487,0.41382487 0 0 1 -0.41341,-0.41341 v -0.82683 h 24.80469 z m 0,-1.65365 h -24.80469 v -12.81576 a 0.41382487,0.41382487 0 0 1 0.41341,-0.41341 h 23.97786 a 0.41382487,0.41382487 0 0 1 0.41342,0.41341 z"
       id="path976"
       style="fill:#000000;stroke-width:0.20670573" />
    <path
       d="m -131.79321,188.65137 h -7.44141 a 0.82776965,0.82776965 0 0 0 -0.82682,0.82682 v 0.41342 h -1.24024 a 0.41343212,0.41343212 0 0 0 -0.41341,0.41341 v 1.65364 a 0.41343212,0.41343212 0 0 0 0.41341,0.41342 h 1.24024 v 3.7207 h -1.24024 a 0.41343212,0.41343212 0 0 0 -0.41341,0.41341 v 1.65365 a 0.41343212,0.41343212 0 0 0 0.41341,0.41341 h 1.24024 v 0.41341 a 0.82776965,0.82776965 0 0 0 0.82682,0.82682 h 7.44141 a 0.82776965,0.82776965 0 0 0 0.82682,-0.82682 v -9.50847 a 0.82776965,0.82776965 0 0 0 -0.82682,-0.82682 z m -8.26823,9.09505 h -0.82682 v -0.82682 h 0.82682 z m 0,-6.20117 h -0.82682 v -0.82682 h 0.82682 z m 0.82682,7.44141 v -9.50847 h 7.44141 l 5e-4,9.50847 z"
       id="path978"
       style="fill:#000000;stroke-width:0.20670573" />
    <path
       d="m -120.21769,194.02572 h -7.44141 a 0.82776965,0.82776965 0 0 0 -0.82682,0.82682 v 4.13412 a 0.82776965,0.82776965 0 0 0 0.82682,0.82682 h 7.44141 a 0.82776965,0.82776965 0 0 0 0.82682,-0.82682 v -4.13412 a 0.82776965,0.82776965 0 0 0 -0.82682,-0.82682 z m -7.44141,4.96094 v -4.13412 h 7.44141 l 4.2e-4,4.13412 z"
       id="path980"
       style="fill:#000000;stroke-width:0.20670573" />
    <path
       d="m -121.66463,195.67937 h -4.54753 a 0.4134115,0.4134115 0 0 0 0,0.82682 h 4.54753 a 0.4134115,0.4134115 0 0 0 0,-0.82682 z"
       id="path982"
       style="fill:#000000;stroke-width:0.20670573" />
    <path
       d="m -121.66463,197.33301 h -4.54753 a 0.413415,0.413415 0 0 0 0,0.82683 h 4.54753 a 0.413415,0.413415 0 0 0 0,-0.82683 z"
       id="path984"
       style="fill:#000000;stroke-width:0.20670573" />
    <path
       d="m -133.24015,191.13184 h -4.54753 a 0.41343212,0.41343212 0 0 0 -0.41341,0.41341 v 1.65365 a 0.41343212,0.41343212 0 0 0 0.41341,0.41341 h 4.54753 a 0.41343212,0.41343212 0 0 0 0.41341,-0.41341 v -1.65365 a 0.41343212,0.41343212 0 0 0 -0.41341,-0.41341 z m -0.41341,1.65365 h -3.72071 v -0.82683 h 3.72071 z"
       id="path988"
       style="fill:#000000;stroke-width:0.20670573" />
    <path
       d="m -133.24015,194.85254 h -4.54753 a 0.41343212,0.41343212 0 0 0 -0.41341,0.41342 v 1.65364 a 0.41343212,0.41343212 0 0 0 0.41341,0.41341 h 4.54753 a 0.41343212,0.41343212 0 0 0 0.41341,-0.41341 v -1.65364 a 0.41343212,0.41343212 0 0 0 -0.41341,-0.41342 z m -0.41341,1.65365 h -3.72071 v -0.82682 h 3.72071 z"
       id="path990"
       style="fill:#000000;stroke-width:0.20670573" />
    <path
       d="m -122.63201,185.55079 h 0.82682 c 0.45642,-5.3e-4 0.8263,-0.3704 0.82682,-0.82683 v -2.89388 c -6.1e-4,-0.45642 -0.3704,-0.8263 -0.82682,-0.82682 h -0.82682 c -0.45643,5.2e-4 -0.82631,0.3704 -0.82683,0.82682 v 2.89388 c 5.3e-4,0.45643 0.3704,0.8263 0.82683,0.82683 z m 0,-3.72071 h 0.82682 l 4.2e-4,2.89388 h -0.82723 z"
       id="path992"
       style="fill:#000000;stroke-width:0.20670573" />
    <path
       d="m -121.45793,188.65137 a 2.0670573,2.0670573 0 1 0 2.06706,2.06706 2.06936,2.06936 0 0 0 -2.06706,-2.06706 z m 0.41342,3.23495 v -0.75448 a 0.413415,0.413415 0 0 0 -0.82683,0 v 0.75448 a 1.2402344,1.2402344 0 1 1 0.82683,0 z"
       id="path994"
       style="fill:#000000;stroke-width:0.20670573" />
    <path
       d="m -126.41886,192.78549 a 2.0670573,2.0670573 0 1 0 -2.06706,-2.06706 2.06936,2.06936 0 0 0 2.06706,2.06706 z m -0.41341,-3.23495 v 0.75448 a 0.4134115,0.4134115 0 0 0 0.82682,0 v -0.75448 a 1.2402344,1.2402344 0 1 1 -0.82682,0 z"
       id="path996"
       style="fill:#000000;stroke-width:0.20670573" />
    <path
       id="rect5388"
       d="m -138.54688,182.04102 c -1.04124,0 -1.89257,0.85133 -1.89257,1.89257 0,1.04125 0.85133,1.89258 1.89257,1.89258 h 6.20313 c 1.04125,0 1.89258,-0.85133 1.89258,-1.89258 0,-1.04124 -0.85133,-1.89257 -1.89258,-1.89257 z m 0,0.8457 h 6.20313 c 0.58684,0 1.04492,0.46003 1.04492,1.04687 0,0.58684 -0.45808,1.04688 -1.04492,1.04688 h -6.20313 c -0.58683,0 -1.04492,-0.46004 -1.04492,-1.04688 0,-0.58684 0.45809,-1.04687 1.04492,-1.04687 z"
       style="color:#000000;font-style:normal;font-variant:normal;font-weight:normal;font-stretch:normal;font-size:medium;line-height:normal;font-family:sans-serif;font-variant-ligatures:normal;font-variant-position:normal;font-variant-caps:normal;font-variant-numeric:normal;font-variant-alternates:normal;font-feature-settings:normal;text-indent:0;text-align:start;text-decoration:none;text-decoration-line:none;text-decoration-style:solid;text-decoration-color:#000000;letter-spacing:normal;word-spacing:normal;text-transform:none;writing-mode:lr-tb;direction:ltr;text-orientation:mixed;dominant-baseline:auto;baseline-shift:baseline;text-anchor:start;white-space:normal;shape-padding:0;clip-rule:nonzero;display:inline;overflow:visible;visibility:visible;opacity:1;isolation:auto;mix-blend-mode:normal;color-interpolation:sRGB;color-interpolation-filters:linearRGB;solid-color:#000000;solid-opacity:1;vector-effect:none;fill:#000000;fill-opacity:1;fill-rule:nonzero;stroke:none;stroke-width:0.84666669;stroke-linecap:round;stroke-linejoin:round;stroke-miterlimit:4;stroke-dasharray:none;stroke-dashoffset:0;stroke-opacity:1;paint-order:normal;color-rendering:auto;image-rendering:auto;shape-rendering:auto;text-rendering:auto;enable-background:accumulate" />
  </g>
</svg>
