<?xml version="1.0" encoding="UTF-8" standalone="no"?>
<svg
   xmlns:dc="http://purl.org/dc/elements/1.1/"
   xmlns:cc="http://creativecommons.org/ns#"
   xmlns:rdf="http://www.w3.org/1999/02/22-rdf-syntax-ns#"
   xmlns:svg="http://www.w3.org/2000/svg"
   xmlns="http://www.w3.org/2000/svg"
   id="svg15434"
   version="1.1"
   viewBox="0 0 26.458334 26.458334"
   height="26.458334mm"
   width="26.458334mm">
  <defs
     id="defs15428" />
  <metadata
     id="metadata15431">
    <rdf:RDF>
      <cc:Work
         rdf:about="">
        <dc:format>image/svg+xml</dc:format>
        <dc:type
           rdf:resource="http://purl.org/dc/dcmitype/StillImage" />
        <dc:title></dc:title>
      </cc:Work>
    </rdf:RDF>
  </metadata>
  <g
     transform="translate(202.97322,48.848213)"
     id="layer1">
    <path
       id="path5425"
       d="m -202.08203,-39.349609 a 0.46306713,0.46306713 0 0 0 -0.45703,0.46875 v 12.298828 c 0,1.4802 0.82394,2.35671 1.60742,2.757812 0.78348,0.401102 1.55469,0.414063 1.55469,0.414063 h 0.004 18.88477 0.002 c 0,0 0.83231,-0.0018 1.67774,-0.427735 0.84542,-0.425969 1.72656,-1.363567 1.72656,-2.980468 v -12.0625 a 0.46306713,0.46306713 0 1 0 -0.92578,0 v 12.0625 c 0,1.305827 -0.59149,1.838248 -1.21875,2.154297 -0.62546,0.315135 -1.25999,0.328058 -1.26367,0.328124 h -18.86524 c 0,0 -0.58332,-0.02019 -1.1543,-0.3125 -0.57097,-0.29231 -1.10351,-0.769631 -1.10351,-1.933593 v -12.298828 a 0.46306713,0.46306713 0 0 0 -0.46875,-0.46875 z"
       style="color:#000000;font-style:normal;font-variant:normal;font-weight:normal;font-stretch:normal;font-size:medium;line-height:normal;font-family:sans-serif;font-variant-ligatures:normal;font-variant-position:normal;font-variant-caps:normal;font-variant-numeric:normal;font-variant-alternates:normal;font-feature-settings:normal;text-indent:0;text-align:start;text-decoration:none;text-decoration-line:none;text-decoration-style:solid;text-decoration-color:#000000;letter-spacing:normal;word-spacing:normal;text-transform:none;writing-mode:lr-tb;direction:ltr;text-orientation:mixed;dominant-baseline:auto;baseline-shift:baseline;text-anchor:start;white-space:normal;shape-padding:0;clip-rule:nonzero;display:inline;overflow:visible;visibility:visible;opacity:1;isolation:auto;mix-blend-mode:normal;color-interpolation:sRGB;color-interpolation-filters:linearRGB;solid-color:#000000;solid-opacity:1;vector-effect:none;fill:#000000;fill-opacity:1;fill-rule:nonzero;stroke:none;stroke-width:0.92604166;stroke-linecap:round;stroke-linejoin:miter;stroke-miterlimit:4;stroke-dasharray:none;stroke-dashoffset:0;stroke-opacity:1;color-rendering:auto;image-rendering:auto;shape-rendering:auto;text-rendering:auto;enable-background:accumulate" />
    <path
       id="rect5427"
       d="m -190.4375,-37.001953 c -1.07387,0 -1.95313,0.879259 -1.95312,1.953125 v 4.552734 c 0,1.073866 0.87925,1.953125 1.95312,1.953125 h 1.16406 c 1.07387,0 1.95313,-0.879259 1.95313,-1.953125 v -4.552734 c 0,-1.073866 -0.87926,-1.953125 -1.95313,-1.953125 z m 0,0.925781 h 1.16406 c 0.57686,0 1.02539,0.450488 1.02539,1.027344 v 4.552734 c 0,0.576857 -0.44853,1.027344 -1.02539,1.027344 h -1.16406 c -0.57686,0 -1.02734,-0.450487 -1.02734,-1.027344 v -4.552734 c 0,-0.576856 0.45048,-1.027344 1.02734,-1.027344 z"
       style="color:#000000;font-style:normal;font-variant:normal;font-weight:normal;font-stretch:normal;font-size:medium;line-height:normal;font-family:sans-serif;font-variant-ligatures:normal;font-variant-position:normal;font-variant-caps:normal;font-variant-numeric:normal;font-variant-alternates:normal;font-feature-settings:normal;text-indent:0;text-align:start;text-decoration:none;text-decoration-line:none;text-decoration-style:solid;text-decoration-color:#000000;letter-spacing:normal;word-spacing:normal;text-transform:none;writing-mode:lr-tb;direction:ltr;text-orientation:mixed;dominant-baseline:auto;baseline-shift:baseline;text-anchor:start;white-space:normal;shape-padding:0;clip-rule:nonzero;display:inline;overflow:visible;visibility:visible;opacity:1;isolation:auto;mix-blend-mode:normal;color-interpolation:sRGB;color-interpolation-filters:linearRGB;solid-color:#000000;solid-opacity:1;vector-effect:none;fill:#000000;fill-opacity:1;fill-rule:nonzero;stroke:none;stroke-width:0.92604166;stroke-linecap:round;stroke-linejoin:round;stroke-miterlimit:4;stroke-dasharray:none;stroke-dashoffset:0;stroke-opacity:1;paint-order:normal;color-rendering:auto;image-rendering:auto;shape-rendering:auto;text-rendering:auto;enable-background:accumulate" />
    <path
       id="path5431"
       d="m -199.8418,-34.552734 c -0.80848,0 -1.43724,0.520647 -1.88476,0.980468 -0.44752,0.459821 -0.73047,0.917969 -0.73047,0.917969 l 0.78515,0.490235 c 0,0 0.23923,-0.381398 0.60938,-0.761719 0.37015,-0.380322 0.85332,-0.701172 1.2207,-0.701172 0.36738,0 0.64946,0.275241 1.04688,0.695312 0.39741,0.420072 0.91027,0.986328 1.71875,0.986329 0.80848,0 1.33719,-0.554538 1.76172,-0.97461 0.42452,-0.420071 0.74394,-0.707031 1.11133,-0.707031 0.36738,0 0.81431,0.313164 1.15624,0.689453 0.34194,0.376289 0.55469,0.753906 0.55469,0.753906 l 0.8086,-0.451172 c 0,0 -0.25623,-0.461927 -0.67774,-0.925781 -0.4215,-0.463853 -1.03331,-0.992187 -1.84179,-0.992187 -0.80848,0 -1.3372,0.554538 -1.76172,0.974609 -0.42453,0.420071 -0.74394,0.707031 -1.11133,0.707031 -0.36739,0 -0.64946,-0.275241 -1.04688,-0.695312 -0.39741,-0.420071 -0.91027,-0.986328 -1.71875,-0.986328 z"
       style="color:#000000;font-style:normal;font-variant:normal;font-weight:normal;font-stretch:normal;font-size:medium;line-height:normal;font-family:sans-serif;font-variant-ligatures:normal;font-variant-position:normal;font-variant-caps:normal;font-variant-numeric:normal;font-variant-alternates:normal;font-feature-settings:normal;text-indent:0;text-align:start;text-decoration:none;text-decoration-line:none;text-decoration-style:solid;text-decoration-color:#000000;letter-spacing:normal;word-spacing:normal;text-transform:none;writing-mode:lr-tb;direction:ltr;text-orientation:mixed;dominant-baseline:auto;baseline-shift:baseline;text-anchor:start;white-space:normal;shape-padding:0;clip-rule:nonzero;display:inline;overflow:visible;visibility:visible;opacity:1;isolation:auto;mix-blend-mode:normal;color-interpolation:sRGB;color-interpolation-filters:linearRGB;solid-color:#000000;solid-opacity:1;vector-effect:none;fill:#000000;fill-opacity:1;fill-rule:nonzero;stroke:none;stroke-width:0.92604166;stroke-linecap:butt;stroke-linejoin:miter;stroke-miterlimit:4;stroke-dasharray:none;stroke-dashoffset:0;stroke-opacity:1;color-rendering:auto;image-rendering:auto;shape-rendering:auto;text-rendering:auto;enable-background:accumulate" />
    <path
       id="path5433"
       d="m -185.36914,-34.552734 c -0.80848,0 -1.43725,0.520647 -1.88477,0.980468 -0.44752,0.459821 -0.73047,0.917969 -0.73047,0.917969 l 0.78516,0.490235 c 0,0 0.23923,-0.381398 0.60938,-0.761719 0.37014,-0.380322 0.85331,-0.701172 1.2207,-0.701172 0.36738,0 0.64946,0.275241 1.04687,0.695312 0.39742,0.420072 0.91027,0.986328 1.71875,0.986329 0.80849,0 1.3372,-0.554539 1.76172,-0.97461 0.42453,-0.420071 0.74394,-0.707031 1.11133,-0.707031 0.36739,0 0.81432,0.313164 1.15625,0.689453 0.34194,0.376289 0.55469,0.753906 0.55469,0.753906 l 0.80859,-0.451172 c 0,0 -0.25623,-0.461927 -0.67773,-0.925781 -0.42151,-0.463853 -1.03332,-0.992187 -1.8418,-0.992187 -0.80848,0 -1.33719,0.554538 -1.76172,0.974609 -0.42452,0.420071 -0.74394,0.707031 -1.11133,0.707031 -0.36738,0 -0.64946,-0.275241 -1.04687,-0.695312 -0.39741,-0.420071 -0.91027,-0.986328 -1.71875,-0.986328 z"
       style="color:#000000;font-style:normal;font-variant:normal;font-weight:normal;font-stretch:normal;font-size:medium;line-height:normal;font-family:sans-serif;font-variant-ligatures:normal;font-variant-position:normal;font-variant-caps:normal;font-variant-numeric:normal;font-variant-alternates:normal;font-feature-settings:normal;text-indent:0;text-align:start;text-decoration:none;text-decoration-line:none;text-decoration-style:solid;text-decoration-color:#000000;letter-spacing:normal;word-spacing:normal;text-transform:none;writing-mode:lr-tb;direction:ltr;text-orientation:mixed;dominant-baseline:auto;baseline-shift:baseline;text-anchor:start;white-space:normal;shape-padding:0;clip-rule:nonzero;display:inline;overflow:visible;visibility:visible;opacity:1;isolation:auto;mix-blend-mode:normal;color-interpolation:sRGB;color-interpolation-filters:linearRGB;solid-color:#000000;solid-opacity:1;vector-effect:none;fill:#000000;fill-opacity:1;fill-rule:nonzero;stroke:none;stroke-width:0.92604166;stroke-linecap:butt;stroke-linejoin:miter;stroke-miterlimit:4;stroke-dasharray:none;stroke-dashoffset:0;stroke-opacity:1;color-rendering:auto;image-rendering:auto;shape-rendering:auto;text-rendering:auto;enable-background:accumulate" />
    <path
       id="rect5435"
       d="m -194.45117,-48.126953 c -1.19893,0 -2.17969,0.980762 -2.17969,2.179687 v 2.509766 c 0,1.198925 0.98076,2.177734 2.17969,2.177734 h 9.39258 c 1.19892,0 2.17968,-0.978809 2.17968,-2.177734 v -2.509766 c 0,-1.198925 -0.98076,-2.179687 -2.17968,-2.179687 z m 0,0.925781 h 9.39258 c 0.70191,0 1.2539,0.55199 1.2539,1.253906 v 2.509766 c 0,0.701916 -0.55199,1.251953 -1.2539,1.251953 h -9.39258 c -0.70192,0 -1.25391,-0.550037 -1.25391,-1.251953 v -2.509766 c 0,-0.701916 0.55199,-1.253906 1.25391,-1.253906 z"
       style="color:#000000;font-style:normal;font-variant:normal;font-weight:normal;font-stretch:normal;font-size:medium;line-height:normal;font-family:sans-serif;font-variant-ligatures:normal;font-variant-position:normal;font-variant-caps:normal;font-variant-numeric:normal;font-variant-alternates:normal;font-feature-settings:normal;text-indent:0;text-align:start;text-decoration:none;text-decoration-line:none;text-decoration-style:solid;text-decoration-color:#000000;letter-spacing:normal;word-spacing:normal;text-transform:none;writing-mode:lr-tb;direction:ltr;text-orientation:mixed;dominant-baseline:auto;baseline-shift:baseline;text-anchor:start;white-space:normal;shape-padding:0;clip-rule:nonzero;display:inline;overflow:visible;visibility:visible;opacity:1;isolation:auto;mix-blend-mode:normal;color-interpolation:sRGB;color-interpolation-filters:linearRGB;solid-color:#000000;solid-opacity:1;vector-effect:none;fill:#000000;fill-opacity:1;fill-rule:nonzero;stroke:none;stroke-width:0.92604166;stroke-linecap:round;stroke-linejoin:round;stroke-miterlimit:4;stroke-dasharray:none;stroke-dashoffset:0;stroke-opacity:1;paint-order:normal;color-rendering:auto;image-rendering:auto;shape-rendering:auto;text-rendering:auto;enable-background:accumulate" />
    <path
       id="path5437"
       d="m -196.33008,-45.337891 c 0,0 -0.94692,-0.04608 -1.91797,0.371094 -0.97104,0.417176 -1.99609,1.402794 -1.99609,3.185547 v 7.304688 h 0.92578 v -7.304688 c 0,-1.455571 0.69039,-2.015805 1.43555,-2.335938 0.74516,-0.320132 1.51367,-0.294921 1.51367,-0.294921 z"
       style="color:#000000;font-style:normal;font-variant:normal;font-weight:normal;font-stretch:normal;font-size:medium;line-height:normal;font-family:sans-serif;font-variant-ligatures:normal;font-variant-position:normal;font-variant-caps:normal;font-variant-numeric:normal;font-variant-alternates:normal;font-feature-settings:normal;text-indent:0;text-align:start;text-decoration:none;text-decoration-line:none;text-decoration-style:solid;text-decoration-color:#000000;letter-spacing:normal;word-spacing:normal;text-transform:none;writing-mode:lr-tb;direction:ltr;text-orientation:mixed;dominant-baseline:auto;baseline-shift:baseline;text-anchor:start;white-space:normal;shape-padding:0;clip-rule:nonzero;display:inline;overflow:visible;visibility:visible;opacity:1;isolation:auto;mix-blend-mode:normal;color-interpolation:sRGB;color-interpolation-filters:linearRGB;solid-color:#000000;solid-opacity:1;vector-effect:none;fill:#000000;fill-opacity:1;fill-rule:nonzero;stroke:none;stroke-width:0.92604166;stroke-linecap:butt;stroke-linejoin:miter;stroke-miterlimit:4;stroke-dasharray:none;stroke-dashoffset:0;stroke-opacity:1;color-rendering:auto;image-rendering:auto;shape-rendering:auto;text-rendering:auto;enable-background:accumulate" />
    <path
       id="path5439"
       d="m -183.31055,-45.337891 0.0391,0.925782 c 0,0 0.7685,-0.02521 1.51367,0.294921 0.74516,0.320133 1.43554,0.880367 1.43554,2.335938 v 7.304688 h 0.92579 v -7.304688 c 0,-1.782753 -1.02505,-2.768371 -1.9961,-3.185547 -0.97105,-0.417176 -1.91797,-0.371094 -1.91797,-0.371094 z"
       style="color:#000000;font-style:normal;font-variant:normal;font-weight:normal;font-stretch:normal;font-size:medium;line-height:normal;font-family:sans-serif;font-variant-ligatures:normal;font-variant-position:normal;font-variant-caps:normal;font-variant-numeric:normal;font-variant-alternates:normal;font-feature-settings:normal;text-indent:0;text-align:start;text-decoration:none;text-decoration-line:none;text-decoration-style:solid;text-decoration-color:#000000;letter-spacing:normal;word-spacing:normal;text-transform:none;writing-mode:lr-tb;direction:ltr;text-orientation:mixed;dominant-baseline:auto;baseline-shift:baseline;text-anchor:start;white-space:normal;shape-padding:0;clip-rule:nonzero;display:inline;overflow:visible;visibility:visible;opacity:1;isolation:auto;mix-blend-mode:normal;color-interpolation:sRGB;color-interpolation-filters:linearRGB;solid-color:#000000;solid-opacity:1;vector-effect:none;fill:#000000;fill-opacity:1;fill-rule:nonzero;stroke:none;stroke-width:0.92604166;stroke-linecap:butt;stroke-linejoin:miter;stroke-miterlimit:4;stroke-dasharray:none;stroke-dashoffset:0;stroke-opacity:1;color-rendering:auto;image-rendering:auto;shape-rendering:auto;text-rendering:auto;enable-background:accumulate" />
    <path
       id="path5441"
       d="m -193.80273,-45.208984 a 0.46306713,0.46306713 0 1 0 0,0.925781 h 2.92382 a 0.46306713,0.46306713 0 1 0 0,-0.925781 z"
       style="color:#000000;font-style:normal;font-variant:normal;font-weight:normal;font-stretch:normal;font-size:medium;line-height:normal;font-family:sans-serif;font-variant-ligatures:normal;font-variant-position:normal;font-variant-caps:normal;font-variant-numeric:normal;font-variant-alternates:normal;font-feature-settings:normal;text-indent:0;text-align:start;text-decoration:none;text-decoration-line:none;text-decoration-style:solid;text-decoration-color:#000000;letter-spacing:normal;word-spacing:normal;text-transform:none;writing-mode:lr-tb;direction:ltr;text-orientation:mixed;dominant-baseline:auto;baseline-shift:baseline;text-anchor:start;white-space:normal;shape-padding:0;clip-rule:nonzero;display:inline;overflow:visible;visibility:visible;opacity:1;isolation:auto;mix-blend-mode:normal;color-interpolation:sRGB;color-interpolation-filters:linearRGB;solid-color:#000000;solid-opacity:1;vector-effect:none;fill:#000000;fill-opacity:1;fill-rule:nonzero;stroke:none;stroke-width:0.92604166;stroke-linecap:round;stroke-linejoin:miter;stroke-miterlimit:4;stroke-dasharray:none;stroke-dashoffset:0;stroke-opacity:1;color-rendering:auto;image-rendering:auto;shape-rendering:auto;text-rendering:auto;enable-background:accumulate" />
    <path
       id="path5443"
       d="m -188.35156,-45.208984 a 0.46306713,0.46306713 0 1 0 0,0.925781 h 2.92383 a 0.46306713,0.46306713 0 1 0 0,-0.925781 z"
       style="color:#000000;font-style:normal;font-variant:normal;font-weight:normal;font-stretch:normal;font-size:medium;line-height:normal;font-family:sans-serif;font-variant-ligatures:normal;font-variant-position:normal;font-variant-caps:normal;font-variant-numeric:normal;font-variant-alternates:normal;font-feature-settings:normal;text-indent:0;text-align:start;text-decoration:none;text-decoration-line:none;text-decoration-style:solid;text-decoration-color:#000000;letter-spacing:normal;word-spacing:normal;text-transform:none;writing-mode:lr-tb;direction:ltr;text-orientation:mixed;dominant-baseline:auto;baseline-shift:baseline;text-anchor:start;white-space:normal;shape-padding:0;clip-rule:nonzero;display:inline;overflow:visible;visibility:visible;opacity:1;isolation:auto;mix-blend-mode:normal;color-interpolation:sRGB;color-interpolation-filters:linearRGB;solid-color:#000000;solid-opacity:1;vector-effect:none;fill:#000000;fill-opacity:1;fill-rule:nonzero;stroke:none;stroke-width:0.92604166;stroke-linecap:round;stroke-linejoin:miter;stroke-miterlimit:4;stroke-dasharray:none;stroke-dashoffset:0;stroke-opacity:1;color-rendering:auto;image-rendering:auto;shape-rendering:auto;text-rendering:auto;enable-background:accumulate" />
    <path
       id="path5445"
       d="m -186.89648,-46.677734 a 0.46306713,0.46306713 0 0 0 -0.45704,0.470703 v 2.923828 a 0.46306713,0.46306713 0 1 0 0.92579,0 v -2.923828 a 0.46306713,0.46306713 0 0 0 -0.46875,-0.470703 z"
       style="color:#000000;font-style:normal;font-variant:normal;font-weight:normal;font-stretch:normal;font-size:medium;line-height:normal;font-family:sans-serif;font-variant-ligatures:normal;font-variant-position:normal;font-variant-caps:normal;font-variant-numeric:normal;font-variant-alternates:normal;font-feature-settings:normal;text-indent:0;text-align:start;text-decoration:none;text-decoration-line:none;text-decoration-style:solid;text-decoration-color:#000000;letter-spacing:normal;word-spacing:normal;text-transform:none;writing-mode:lr-tb;direction:ltr;text-orientation:mixed;dominant-baseline:auto;baseline-shift:baseline;text-anchor:start;white-space:normal;shape-padding:0;clip-rule:nonzero;display:inline;overflow:visible;visibility:visible;opacity:1;isolation:auto;mix-blend-mode:normal;color-interpolation:sRGB;color-interpolation-filters:linearRGB;solid-color:#000000;solid-opacity:1;vector-effect:none;fill:#000000;fill-opacity:1;fill-rule:nonzero;stroke:none;stroke-width:0.92604166;stroke-linecap:round;stroke-linejoin:miter;stroke-miterlimit:4;stroke-dasharray:none;stroke-dashoffset:0;stroke-opacity:1;color-rendering:auto;image-rendering:auto;shape-rendering:auto;text-rendering:auto;enable-background:accumulate" />
  </g>
</svg>
