<?xml version="1.0" encoding="UTF-8" standalone="no"?>
<svg
   xmlns:dc="http://purl.org/dc/elements/1.1/"
   xmlns:cc="http://creativecommons.org/ns#"
   xmlns:rdf="http://www.w3.org/1999/02/22-rdf-syntax-ns#"
   xmlns:svg="http://www.w3.org/2000/svg"
   xmlns="http://www.w3.org/2000/svg"
   id="svg13353"
   version="1.1"
   viewBox="0 0 26.458334 26.458334"
   height="26.458334mm"
   width="26.458334mm">
  <defs
     id="defs13347" />
  <metadata
     id="metadata13350">
    <rdf:RDF>
      <cc:Work
         rdf:about="">
        <dc:format>image/svg+xml</dc:format>
        <dc:type
           rdf:resource="http://purl.org/dc/dcmitype/StillImage" />
        <dc:title></dc:title>
      </cc:Work>
    </rdf:RDF>
  </metadata>
  <g
     transform="translate(70.681549,-118.21726)"
     id="layer1">
    <path
       id="rect5390"
       d="m -68.199219,123.77148 c -1.052565,0 -1.914062,0.85955 -1.914062,1.91211 v 11.46875 c 0,1.05257 0.861497,1.91211 1.914062,1.91211 h 7.082031 c 1.052566,0 1.91211,-0.85954 1.91211,-1.91211 v -11.46875 c 0,-1.05256 -0.859544,-1.91211 -1.91211,-1.91211 z m 0,0.84571 h 7.082031 c 0.598157,0 1.066407,0.46825 1.066407,1.0664 v 11.46875 c 0,0.59816 -0.46825,1.06641 -1.066407,1.06641 h -7.082031 c -0.598156,0 -1.066406,-0.46825 -1.066406,-1.06641 v -11.46875 c 0,-0.59815 0.46825,-1.0664 1.066406,-1.0664 z"
       style="color:#000000;font-style:normal;font-variant:normal;font-weight:normal;font-stretch:normal;font-size:medium;line-height:normal;font-family:sans-serif;font-variant-ligatures:normal;font-variant-position:normal;font-variant-caps:normal;font-variant-numeric:normal;font-variant-alternates:normal;font-feature-settings:normal;text-indent:0;text-align:start;text-decoration:none;text-decoration-line:none;text-decoration-style:solid;text-decoration-color:#000000;letter-spacing:normal;word-spacing:normal;text-transform:none;writing-mode:lr-tb;direction:ltr;text-orientation:mixed;dominant-baseline:auto;baseline-shift:baseline;text-anchor:start;white-space:normal;shape-padding:0;clip-rule:nonzero;display:inline;overflow:visible;visibility:visible;opacity:1;isolation:auto;mix-blend-mode:normal;color-interpolation:sRGB;color-interpolation-filters:linearRGB;solid-color:#000000;solid-opacity:1;vector-effect:none;fill:#000000;fill-opacity:1;fill-rule:nonzero;stroke:none;stroke-width:0.84666669;stroke-linecap:round;stroke-linejoin:round;stroke-miterlimit:4;stroke-dasharray:none;stroke-dashoffset:0;stroke-opacity:1;paint-order:normal;color-rendering:auto;image-rendering:auto;shape-rendering:auto;text-rendering:auto;enable-background:accumulate" />
    <path
       id="rect5407"
       d="m -53.751953,123.77148 c -1.052565,0 -1.912109,0.85955 -1.912109,1.91211 v 11.46875 c 0,1.05257 0.859544,1.91211 1.912109,1.91211 h 7.082031 c 1.052565,0 1.914063,-0.85954 1.914063,-1.91211 v -11.46875 c 0,-1.05256 -0.861498,-1.91211 -1.914063,-1.91211 z m 0,0.84571 h 7.082031 c 0.598157,0 1.066406,0.46825 1.066406,1.0664 v 11.46875 c 0,0.59816 -0.468249,1.06641 -1.066406,1.06641 h -7.082031 c -0.598157,0 -1.066406,-0.46825 -1.066406,-1.06641 v -11.46875 c 0,-0.59815 0.468249,-1.0664 1.066406,-1.0664 z"
       style="color:#000000;font-style:normal;font-variant:normal;font-weight:normal;font-stretch:normal;font-size:medium;line-height:normal;font-family:sans-serif;font-variant-ligatures:normal;font-variant-position:normal;font-variant-caps:normal;font-variant-numeric:normal;font-variant-alternates:normal;font-feature-settings:normal;text-indent:0;text-align:start;text-decoration:none;text-decoration-line:none;text-decoration-style:solid;text-decoration-color:#000000;letter-spacing:normal;word-spacing:normal;text-transform:none;writing-mode:lr-tb;direction:ltr;text-orientation:mixed;dominant-baseline:auto;baseline-shift:baseline;text-anchor:start;white-space:normal;shape-padding:0;clip-rule:nonzero;display:inline;overflow:visible;visibility:visible;opacity:1;isolation:auto;mix-blend-mode:normal;color-interpolation:sRGB;color-interpolation-filters:linearRGB;solid-color:#000000;solid-opacity:1;vector-effect:none;fill:#000000;fill-opacity:1;fill-rule:nonzero;stroke:none;stroke-width:0.84666669;stroke-linecap:round;stroke-linejoin:round;stroke-miterlimit:4;stroke-dasharray:none;stroke-dashoffset:0;stroke-opacity:1;paint-order:normal;color-rendering:auto;image-rendering:auto;shape-rendering:auto;text-rendering:auto;enable-background:accumulate" />
    <path
       id="path5419"
       d="m -67.820312,125.87695 a 0.46306713,0.46306713 0 1 0 0,0.92578 h 5.060546 c 0,0 0.244759,0.006 0.464844,0.0937 0.110043,0.044 0.201155,0.10437 0.25586,0.16993 0.0547,0.0656 0.0918,0.13484 0.0918,0.29297 0,0.15812 -0.03709,0.22545 -0.0918,0.29101 -0.0547,0.0656 -0.145817,0.12597 -0.25586,0.16992 -0.220085,0.0879 -0.464844,0.0937 -0.464844,0.0937 h -3.832031 -0.0039 c 0,0 -0.379867,0.004 -0.783203,0.16992 -0.201669,0.0829 -0.423735,0.21044 -0.603516,0.42383 -0.179781,0.21339 -0.300781,0.51658 -0.300781,0.85547 0,0.33889 0.120999,0.64403 0.300781,0.85742 0.179782,0.21339 0.401847,0.34097 0.603516,0.42383 0.403337,0.16572 0.783203,0.16797 0.783203,0.16797 h 0.0039 3.814453 c 0,0 0.250305,0.0149 0.476563,0.10938 0.113129,0.0472 0.207722,0.10973 0.263672,0.17578 0.05595,0.066 0.08984,0.12927 0.08984,0.27148 0,0.14221 -0.0339,0.20348 -0.08984,0.26953 -0.05595,0.0661 -0.150545,0.13053 -0.263672,0.17774 -0.226255,0.0944 -0.476563,0.10742 -0.476563,0.10742 h -3.80664 -0.002 c -0.0018,-4e-5 -0.382026,-0.007 -0.789062,0.15429 -0.204003,0.0811 -0.426723,0.20888 -0.607422,0.42579 -0.180699,0.21691 -0.300781,0.52528 -0.300781,0.86914 0,0.34381 0.120092,0.65226 0.300781,0.86914 0.180689,0.21687 0.403442,0.34468 0.607422,0.42578 0.406989,0.16181 0.787252,0.15433 0.789062,0.1543 h 3.808594 c 0,0 0.250303,0.0149 0.476563,0.10937 0.113129,0.0472 0.207723,0.10974 0.263672,0.17578 0.05595,0.0661 0.08984,0.12929 0.08984,0.27149 0,0.14221 -0.0339,0.20348 -0.08984,0.26953 -0.05595,0.066 -0.150545,0.13052 -0.263672,0.17773 -0.226255,0.0944 -0.476563,0.10742 -0.476563,0.10742 h -5.042968 a 0.46306713,0.46306713 0 1 0 0,0.92579 h 5.068359 0.0078 c 0,0 0.389366,-0.008 0.800782,-0.17969 0.205707,-0.0858 0.430102,-0.2154 0.613281,-0.43164 0.183178,-0.21625 0.308594,-0.5247 0.308594,-0.86914 0,-0.34444 -0.125416,-0.65291 -0.308594,-0.86914 -0.183178,-0.21624 -0.407576,-0.34775 -0.613281,-0.4336 -0.411411,-0.17169 -0.800782,-0.17969 -0.800782,-0.17969 h -0.0078 -3.833985 -0.002 c 0,0 -0.234222,-0.005 -0.443359,-0.0879 -0.104569,-0.0416 -0.189512,-0.0993 -0.240234,-0.16015 -0.05072,-0.0609 -0.08594,-0.12386 -0.08594,-0.27539 0,-0.15165 0.03522,-0.21452 0.08594,-0.27539 0.05071,-0.0609 0.135689,-0.11666 0.240234,-0.15821 0.20909,-0.0831 0.443359,-0.0898 0.443359,-0.0898 h 3.835938 0.0078 c 0,0 0.389366,-0.008 0.800782,-0.17969 0.205707,-0.0858 0.430102,-0.2154 0.613281,-0.43164 0.183178,-0.21624 0.308594,-0.52469 0.308594,-0.86914 0,-0.34444 -0.125417,-0.6529 -0.308594,-0.86914 -0.183177,-0.21624 -0.407575,-0.34774 -0.613281,-0.43359 -0.411412,-0.1717 -0.800782,-0.17969 -0.800782,-0.17969 h -0.0078 -3.824219 c 0,0 -0.237413,-0.0118 -0.451172,-0.0996 -0.106879,-0.0439 -0.194464,-0.10278 -0.246094,-0.16406 -0.05163,-0.0613 -0.08398,-0.11975 -0.08398,-0.25977 0,-0.14002 0.03235,-0.19848 0.08398,-0.25976 0.05163,-0.0613 0.139214,-0.12015 0.246094,-0.16407 0.21376,-0.0878 0.451172,-0.0996 0.451172,-0.0996 h 3.816406 c 0,0 0.391009,0.007 0.808594,-0.16015 0.208793,-0.0834 0.438625,-0.21454 0.623047,-0.43555 0.184422,-0.22101 0.306641,-0.53345 0.306641,-0.88476 0,-0.35132 -0.122219,-0.66572 -0.306641,-0.88672 -0.184422,-0.22101 -0.414254,-0.35215 -0.623047,-0.43555 -0.417585,-0.16681 -0.808594,-0.16016 -0.808594,-0.16016 z"
       style="color:#000000;font-style:normal;font-variant:normal;font-weight:normal;font-stretch:normal;font-size:medium;line-height:normal;font-family:sans-serif;font-variant-ligatures:normal;font-variant-position:normal;font-variant-caps:normal;font-variant-numeric:normal;font-variant-alternates:normal;font-feature-settings:normal;text-indent:0;text-align:start;text-decoration:none;text-decoration-line:none;text-decoration-style:solid;text-decoration-color:#000000;letter-spacing:normal;word-spacing:normal;text-transform:none;writing-mode:lr-tb;direction:ltr;text-orientation:mixed;dominant-baseline:auto;baseline-shift:baseline;text-anchor:start;white-space:normal;shape-padding:0;clip-rule:nonzero;display:inline;overflow:visible;visibility:visible;opacity:1;isolation:auto;mix-blend-mode:normal;color-interpolation:sRGB;color-interpolation-filters:linearRGB;solid-color:#000000;solid-opacity:1;vector-effect:none;fill:#000000;fill-opacity:1;fill-rule:nonzero;stroke:none;stroke-width:0.92604166;stroke-linecap:round;stroke-linejoin:miter;stroke-miterlimit:4;stroke-dasharray:none;stroke-dashoffset:0;stroke-opacity:1;color-rendering:auto;image-rendering:auto;shape-rendering:auto;text-rendering:auto;enable-background:accumulate" />
    <path
       id="path5421"
       d="m -52.130859,125.87695 c 0,0 -0.392962,-0.007 -0.810547,0.16016 -0.208793,0.0834 -0.436672,0.21454 -0.621094,0.43555 -0.184422,0.221 -0.306641,0.5354 -0.306641,0.88672 0,0.35131 0.122219,0.66375 0.306641,0.88476 0.184422,0.22101 0.412301,0.35214 0.621094,0.43555 0.417585,0.16681 0.810547,0.16015 0.810547,0.16015 h 3.814453 c 0,0 0.237412,0.0118 0.451172,0.0996 0.10688,0.0439 0.194463,0.10278 0.246093,0.16407 0.05163,0.0613 0.08398,0.11974 0.08398,0.25976 0,0.14002 -0.03236,0.19849 -0.08398,0.25977 -0.05163,0.0613 -0.139214,0.12015 -0.246093,0.16406 -0.213759,0.0878 -0.451172,0.0996 -0.451172,0.0996 h -3.824219 -0.0078 c 0,0 -0.387416,0.008 -0.798828,0.17969 -0.205706,0.0859 -0.430104,0.21735 -0.613281,0.43359 -0.183177,0.21624 -0.308594,0.5247 -0.308594,0.86914 0,0.34445 0.125416,0.6529 0.308594,0.86914 0.183179,0.21624 0.407574,0.3458 0.613281,0.43164 0.411416,0.1717 0.798829,0.17969 0.798828,0.17969 h 0.0078 3.835937 0.002 c 0,0 0.234269,0.007 0.443359,0.0898 0.104545,0.0416 0.189522,0.0973 0.240234,0.15821 0.05071,0.0609 0.08398,0.12374 0.08398,0.27539 0,0.15153 -0.03326,0.21451 -0.08398,0.27539 -0.05072,0.0609 -0.135665,0.11858 -0.240234,0.16015 -0.209137,0.0831 -0.445312,0.0879 -0.445313,0.0879 h -3.835937 -0.0078 c 0,0 -0.387417,0.008 -0.798828,0.17969 -0.205705,0.0859 -0.430103,0.21736 -0.613281,0.4336 -0.183178,0.21623 -0.308594,0.5247 -0.308594,0.86914 0,0.34444 0.125416,0.65289 0.308594,0.86914 0.183179,0.21624 0.407574,0.34579 0.613281,0.43164 0.411416,0.17169 0.798828,0.17969 0.798828,0.17969 h 0.0078 5.068359 a 0.46306713,0.46306713 0 1 0 0,-0.92579 h -5.042968 c 0,0 -0.250308,-0.013 -0.476563,-0.10742 -0.113127,-0.0472 -0.205771,-0.11169 -0.261719,-0.17773 -0.05595,-0.066 -0.08984,-0.12732 -0.08984,-0.26953 0,-0.1422 0.0339,-0.20544 0.08984,-0.27149 0.05595,-0.066 0.148589,-0.12857 0.261719,-0.17578 0.226259,-0.0944 0.476563,-0.10937 0.476563,-0.10937 h 3.810546 c 0.0018,3e-5 0.380123,0.008 0.78711,-0.1543 0.203979,-0.0811 0.428686,-0.20891 0.609375,-0.42578 0.180689,-0.21688 0.300781,-0.52533 0.300781,-0.86914 0,-0.34386 -0.120082,-0.65223 -0.300781,-0.86914 -0.180699,-0.21691 -0.405372,-0.34471 -0.609375,-0.42579 -0.407034,-0.16176 -0.785295,-0.15433 -0.78711,-0.15429 h -3.810546 c 0,0 -0.250308,-0.013 -0.476563,-0.10742 -0.113127,-0.0472 -0.205771,-0.11169 -0.261719,-0.17774 -0.05595,-0.066 -0.08984,-0.12732 -0.08984,-0.26953 0,-0.14221 0.03389,-0.20544 0.08984,-0.27148 0.05595,-0.066 0.14859,-0.12857 0.261719,-0.17578 0.226258,-0.0944 0.476563,-0.10938 0.476563,-0.10938 h 3.814453 0.0059 c 0,0 0.379866,-0.002 0.783203,-0.16797 0.201669,-0.0829 0.421781,-0.21044 0.601563,-0.42383 0.179782,-0.21339 0.302734,-0.51853 0.302734,-0.85742 0,-0.33889 -0.122953,-0.64208 -0.302734,-0.85547 -0.179781,-0.21339 -0.399894,-0.34096 -0.601563,-0.42383 -0.403336,-0.16572 -0.783203,-0.16992 -0.783203,-0.16992 h -0.0059 -3.830078 c 0,0 -0.246712,-0.006 -0.466797,-0.0937 -0.110043,-0.044 -0.199202,-0.10436 -0.253906,-0.16992 -0.0547,-0.0656 -0.0918,-0.13289 -0.0918,-0.29101 0,-0.15813 0.03709,-0.22742 0.0918,-0.29297 0.0547,-0.0656 0.143863,-0.12597 0.253906,-0.16993 0.220085,-0.0879 0.466797,-0.0937 0.466797,-0.0937 h 5.058593 a 0.46306713,0.46306713 0 1 0 0,-0.92578 z"
       style="color:#000000;font-style:normal;font-variant:normal;font-weight:normal;font-stretch:normal;font-size:medium;line-height:normal;font-family:sans-serif;font-variant-ligatures:normal;font-variant-position:normal;font-variant-caps:normal;font-variant-numeric:normal;font-variant-alternates:normal;font-feature-settings:normal;text-indent:0;text-align:start;text-decoration:none;text-decoration-line:none;text-decoration-style:solid;text-decoration-color:#000000;letter-spacing:normal;word-spacing:normal;text-transform:none;writing-mode:lr-tb;direction:ltr;text-orientation:mixed;dominant-baseline:auto;baseline-shift:baseline;text-anchor:start;white-space:normal;shape-padding:0;clip-rule:nonzero;display:inline;overflow:visible;visibility:visible;opacity:1;isolation:auto;mix-blend-mode:normal;color-interpolation:sRGB;color-interpolation-filters:linearRGB;solid-color:#000000;solid-opacity:1;vector-effect:none;fill:#000000;fill-opacity:1;fill-rule:nonzero;stroke:none;stroke-width:0.92604166;stroke-linecap:round;stroke-linejoin:miter;stroke-miterlimit:4;stroke-dasharray:none;stroke-dashoffset:0;stroke-opacity:1;color-rendering:auto;image-rendering:auto;shape-rendering:auto;text-rendering:auto;enable-background:accumulate" />
  </g>
</svg>
