<?xml version="1.0" encoding="UTF-8" standalone="no"?>
<!-- Created with Inkscape (http://www.inkscape.org/) -->

<svg
   xmlns:dc="http://purl.org/dc/elements/1.1/"
   xmlns:cc="http://creativecommons.org/ns#"
   xmlns:rdf="http://www.w3.org/1999/02/22-rdf-syntax-ns#"
   xmlns:svg="http://www.w3.org/2000/svg"
   xmlns="http://www.w3.org/2000/svg"
   xmlns:sodipodi="http://sodipodi.sourceforge.net/DTD/sodipodi-0.dtd"
   xmlns:inkscape="http://www.inkscape.org/namespaces/inkscape"
   width="26.458334mm"
   height="26.458334mm"
   viewBox="0 0 26.458334 26.458334"
   version="1.1"
   id="svg24088"
   inkscape:version="0.92.3 (2405546, 2018-03-11)"
   sodipodi:docname="demand_gas.svg">
  <defs
     id="defs24082" />
  <sodipodi:namedview
     id="base"
     pagecolor="#ffffff"
     bordercolor="#666666"
     borderopacity="1.0"
     inkscape:pageopacity="0.0"
     inkscape:pageshadow="2"
     inkscape:zoom="1.979899"
     inkscape:cx="74.506688"
     inkscape:cy="27.955049"
     inkscape:document-units="mm"
     inkscape:current-layer="layer1"
     showgrid="false"
     fit-margin-top="0"
     fit-margin-left="0"
     fit-margin-right="0"
     fit-margin-bottom="0"
     inkscape:window-width="1853"
     inkscape:window-height="1025"
     inkscape:window-x="67"
     inkscape:window-y="27"
     inkscape:window-maximized="1" />
  <metadata
     id="metadata24085">
    <rdf:RDF>
      <cc:Work
         rdf:about="">
        <dc:format>image/svg+xml</dc:format>
        <dc:type
           rdf:resource="http://purl.org/dc/dcmitype/StillImage" />
        <dc:title></dc:title>
      </cc:Work>
    </rdf:RDF>
  </metadata>
  <g
     inkscape:label="Ebene 1"
     inkscape:groupmode="layer"
     id="layer1"
     transform="translate(55.5625,-108.38988)">
    <g
       transform="matrix(1.438493,0,0,1.438493,-52.081109,114.60418)"
       id="g5104"
       style="fill:#000000;stroke:#000000;stroke-width:0.07513815;stroke-miterlimit:4;stroke-dasharray:none;stroke-opacity:1">
      <g
         style="stroke:#000000;stroke-width:0.07513815;stroke-miterlimit:4;stroke-dasharray:none;stroke-opacity:1"
         id="g5102">
        <path
           inkscape:connector-curvature="0"
           style="color:#000000;font-style:normal;font-variant:normal;font-weight:normal;font-stretch:normal;font-size:medium;line-height:normal;font-family:sans-serif;font-variant-ligatures:normal;font-variant-position:normal;font-variant-caps:normal;font-variant-numeric:normal;font-variant-alternates:normal;font-feature-settings:normal;text-indent:0;text-align:start;text-decoration:none;text-decoration-line:none;text-decoration-style:solid;text-decoration-color:#000000;letter-spacing:normal;word-spacing:normal;text-transform:none;writing-mode:lr-tb;direction:ltr;text-orientation:mixed;dominant-baseline:auto;baseline-shift:baseline;text-anchor:start;white-space:normal;shape-padding:0;clip-rule:nonzero;display:inline;overflow:visible;visibility:visible;opacity:1;isolation:auto;mix-blend-mode:normal;color-interpolation:sRGB;color-interpolation-filters:linearRGB;solid-color:#000000;solid-opacity:1;vector-effect:none;fill:#000000;fill-opacity:1;fill-rule:nonzero;stroke:#000000;stroke-width:0.07513815;stroke-linecap:butt;stroke-linejoin:round;stroke-miterlimit:4;stroke-dasharray:none;stroke-dashoffset:0;stroke-opacity:1;paint-order:stroke fill markers;color-rendering:auto;image-rendering:auto;shape-rendering:auto;text-rendering:auto;enable-background:accumulate"
           d="m 5.2053217,0.79458555 c -0.075018,0.002463 -0.1454603,0.0366686 -0.1937861,0.0941 0,0 -0.6003157,0.71016005 -1.2009596,1.58957005 -0.3003206,0.4397 -0.6014826,0.9222 -0.8319902,1.38699 -0.2305076,0.4648 -0.3963591,0.90739 -0.3963591,1.31414 0,1.45059 1.180256,2.63084 2.6308473,2.63084 0.056489,0 0.111813,-0.005 0.167431,-0.008 3.413e-4,-4e-5 6.932e-4,3e-5 0.00103,0 1.3722006,-0.0875 2.4644482,-1.22883 2.4644482,-2.62258 0,-0.40675 -0.1679178,-0.84934 -0.3984254,-1.31414 -0.2305032,-0.4651 -0.5321811,-0.9476 -0.8325017,-1.3873 C 6.0144123,1.5987956 5.4161629,0.88863555 5.4161629,0.88863555 5.3639951,0.82664424 5.2863021,0.79196928 5.2053217,0.79453555 Z m 0.00775,0.70125005 c 0.1525694,0.18531 0.4823328,0.57519 0.9647979,1.28158 0.291584,0.4269 0.5834327,0.89361 0.7968509,1.32395 0.2134208,0.43034 0.3415823,0.83091 0.3415823,1.07797 0,0.52455 -0.1911614,1.00205 -0.5069469,1.36942 0.02935,-0.12249 0.045992,-0.24962 0.045992,-0.38086 0,-0.27015 -0.1040765,-0.53663 -0.241845,-0.81441 -0.1377686,-0.2778 -0.3158067,-0.56196 -0.4924769,-0.82063 -0.3533378,-0.51732 -0.7048659,-0.93327 -0.7048659,-0.93327 -0.051873,-0.062551 -0.1296098,-0.097798 -0.2108412,-0.0956 -0.075256,0.00284 -0.1457381,0.037609 -0.1937861,0.0956 0,0 -0.3535944,0.41595 -0.7069322,0.93327 -0.1766703,0.25867 -0.3541925,0.54283 -0.491961,0.82063 -0.1377685,0.27778 -0.242361,0.54426 -0.242361,0.81441 0,0.13124 0.017158,0.25837 0.046509,0.38086 -0.315812,-0.36738 -0.5074629,-0.84484 -0.5074629,-1.36942 0,-0.24706 0.1302279,-0.64763 0.3436488,-1.07797 0.2134182,-0.43034 0.5037164,-0.89705 0.7953004,-1.32395 0.482174,-0.70596 0.8119216,-1.09589 0.9647978,-1.28158 z m 0,2.71095 c 0.1202611,0.1488 0.2355533,0.28089 0.4707732,0.62528 0.1679284,0.24587 0.3340708,0.51423 0.4547526,0.75758 0.1206791,0.24334 0.1875842,0.46779 0.1875842,0.57825 0,0.61828 -0.4948343,1.11312 -1.11311,1.11312 -0.6182756,0 -1.1136259,-0.49484 -1.1136259,-1.11312 0,-0.11046 0.066905,-0.33491 0.1875843,-0.57825 0.1206817,-0.24335 0.2873401,-0.51171 0.4552685,-0.75758 0.2349738,-0.34402 0.3503957,-0.47633 0.4707731,-0.62528 z"
           id="path5100" />
      </g>
    </g>
    <path
       inkscape:connector-curvature="0"
       id="path5638"
       d="m -43.166009,108.95295 c -0.10545,-0.004 -0.209193,0.0276 -0.29404,0.0904 l -3.400311,2.52236 v -1.31723 c 2.65e-4,-0.25571 -0.206789,-0.46323 -0.4625,-0.46355 h -2.219506 c -0.255914,3e-5 -0.46329,0.20764 -0.463021,0.46355 v 3.65042 l -1.843299,1.36736 c -0.117943,0.0873 -0.187533,0.22532 -0.187586,0.37205 v 13.9206 c -2.6e-4,0.25592 0.207108,0.46352 0.463021,0.46354 h 14.548984 v 3.8437 c 3.18e-4,0.2555 0.207513,0.46247 0.463021,0.4625 h 3.550171 c 0.255305,-3.2e-4 0.462196,-0.2072 0.462505,-0.4625 v -5.62395 c 0.157788,-0.0165 0.197829,8.7e-4 0.409279,-0.0605 0.224781,-0.0653 0.467792,-0.16273 0.683679,-0.34933 0.215887,-0.18661 0.392223,-0.49591 0.392223,-0.84336 v -3.67523 c 0,0 0.01618,-0.37742 -0.175185,-0.76998 -0.191356,-0.39256 -0.678564,-0.81546 -1.398363,-0.81546 h -1.270723 c -0.260015,2.4e-4 -0.468864,0.21446 -0.462505,0.4744 0,0 -0.004,0.11493 -0.05219,0.21394 -0.04826,0.099 -0.05271,0.16691 -0.340545,0.16691 -0.284612,0 -0.332175,-0.0883 -0.401011,-0.2067 -0.06884,-0.1184 -0.08371,-0.2403 -0.08371,-0.2403 -0.01931,-0.24267 -0.223207,-0.42897 -0.466637,-0.42633 0,0 -0.841415,0.009 -1.254191,0.009 -0.684301,0 -1.144345,0.44948 -1.324465,0.83819 -0.180124,0.38871 -0.179317,0.75861 -0.179317,0.75861 -1.3e-5,0.002 -1.3e-5,0.004 0,0.006 v 3.68298 c 0,0.36421 0.153569,0.69382 0.374655,0.89917 0.221081,0.20534 0.479231,0.29966 0.710552,0.35192 0.189834,0.0429 0.213165,0.0152 0.362765,0.0181 v 0.82165 h -14.086487 v -13.2245 l 7.926648,-5.87922 7.906496,5.87821 v 1.55645 c -0.9026,0.18173 -1.589052,0.9843 -1.589052,1.9379 0,1.08612 0.890503,1.97661 1.976627,1.97661 1.086119,0 1.976623,-0.89049 1.976623,-1.97661 0,-0.89954 -0.611779,-1.66321 -1.438672,-1.89962 v -1.8273 c -9e-6,-0.1461 -0.06896,-0.28363 -0.186038,-0.37103 l -8.369511,-6.22287 c -0.07493,-0.0559 -0.164999,-0.0877 -0.258384,-0.0915 z m -5.913852,1.75803 h 1.29398 v 1.5415 l -1.29398,0.95965 z m 14.189834,7.60315 c 0.585651,0 1.050581,0.46545 1.050581,1.0511 0,0.58566 -0.46493,1.05057 -1.050581,1.05057 -0.585655,0 -1.050065,-0.46491 -1.050065,-1.05057 0,-0.58565 0.46441,-1.0511 1.050065,-1.0511 z m -1.141536,4.3248 c 0.03029,0.0914 0.007,0.10142 0.06667,0.20412 0.185186,0.31853 0.609754,0.66662 1.201993,0.66662 0.589011,0 1.012768,-0.35853 1.173053,-0.68729 0.04189,-0.0859 0.01685,-0.0894 0.03823,-0.16795 h 0.914673 c 0.418677,0 0.486529,0.13234 0.56586,0.29507 0.07932,0.16273 0.08165,0.34106 0.08165,0.34106 -4.8e-5,0.004 -4.8e-5,0.008 0,0.0114 v 3.68712 c 0,0.0786 -0.0089,0.0892 -0.07131,0.14314 -0.06243,0.054 -0.190614,0.11772 -0.336929,0.1602 -0.292629,0.085 -0.614949,0.0904 -0.614949,0.0904 -0.255102,8.7e-4 -0.461447,0.20792 -0.461469,0.46302 v 5.55728 h -2.624659 v -5.56245 c -4.23e-4,-0.278 -0.243963,-0.49298 -0.519862,-0.45888 0,0 -0.303045,0.0306 -0.564308,-0.0284 -0.130633,-0.0295 -0.234875,-0.0808 -0.285256,-0.12765 -0.05038,-0.0468 -0.07803,-0.0755 -0.07803,-0.22014 v -3.67678 c 0,0 0.009,-0.20055 0.09302,-0.38188 0.08403,-0.18134 0.143633,-0.30128 0.484726,-0.30128 0.316159,0 0.677514,-0.004 0.936893,-0.007 z"
       style="color:#000000;font-style:normal;font-variant:normal;font-weight:normal;font-stretch:normal;font-size:medium;line-height:normal;font-family:sans-serif;font-variant-ligatures:normal;font-variant-position:normal;font-variant-caps:normal;font-variant-numeric:normal;font-variant-alternates:normal;font-feature-settings:normal;text-indent:0;text-align:start;text-decoration:none;text-decoration-line:none;text-decoration-style:solid;text-decoration-color:#000000;letter-spacing:normal;word-spacing:normal;text-transform:none;writing-mode:lr-tb;direction:ltr;text-orientation:mixed;dominant-baseline:auto;baseline-shift:baseline;text-anchor:start;white-space:normal;shape-padding:0;clip-rule:nonzero;display:inline;overflow:visible;visibility:visible;opacity:1;isolation:auto;mix-blend-mode:normal;color-interpolation:sRGB;color-interpolation-filters:linearRGB;solid-color:#000000;solid-opacity:1;vector-effect:none;fill:#000000;fill-opacity:1;fill-rule:nonzero;stroke:none;stroke-width:0.92604166;stroke-linecap:round;stroke-linejoin:round;stroke-miterlimit:4;stroke-dasharray:none;stroke-dashoffset:0;stroke-opacity:1;paint-order:normal;color-rendering:auto;image-rendering:auto;shape-rendering:auto;text-rendering:auto;enable-background:accumulate" />
  </g>
</svg>
