<?xml version="1.0" encoding="UTF-8" standalone="no"?>
<svg
   xmlns:dc="http://purl.org/dc/elements/1.1/"
   xmlns:cc="http://creativecommons.org/ns#"
   xmlns:rdf="http://www.w3.org/1999/02/22-rdf-syntax-ns#"
   xmlns:svg="http://www.w3.org/2000/svg"
   xmlns="http://www.w3.org/2000/svg"
   id="svg14394"
   version="1.1"
   viewBox="0 0 26.458334 26.458334"
   height="26.458334mm"
   width="26.458334mm">
  <defs
     id="defs14388" />
  <metadata
     id="metadata14391">
    <rdf:RDF>
      <cc:Work
         rdf:about="">
        <dc:format>image/svg+xml</dc:format>
        <dc:type
           rdf:resource="http://purl.org/dc/dcmitype/StillImage" />
        <dc:title></dc:title>
      </cc:Work>
    </rdf:RDF>
  </metadata>
  <g
     transform="translate(246.0625,140.31845)"
     id="layer1">
    <g
       transform="matrix(2.0688764,0,0,2.0688764,-245.9707,-140.21378)"
       id="g972"
       style="fill:#000000">
      <g
         transform="translate(0,-284.29998)"
         id="g957">
        <path
           style="fill:#000000;stroke:none"
           d="m 2.9598,284.82914 a 0.81418596,0.81418596 0 0 0 -0.8139,0.81442 v 9.19893 a 0.81418596,0.81418596 0 0 0 0.8139,0.81442 h 1.6004 v 0.8139 h 0.5431 v -0.8139 h 2.4929 v 0.8139 h 0.5431 v -0.8139 h 1.6004 a 0.81418596,0.81418596 0 0 0 0.8144,-0.81442 v -9.19893 a 0.81418596,0.81418596 0 0 0 -0.8144,-0.81442 z m 0,0.54312 h 6.7799 a 0.27139535,0.27139535 0 0 1 0.2713,0.2713 v 1.26918 a 0.27139535,0.27139535 0 0 1 -0.2713,0.2713 H 2.9598 a 0.27139535,0.27139535 0 0 1 -0.2713,-0.2713 v -1.26918 a 0.27139535,0.27139535 0 0 1 0.2713,-0.2713 z m 0,2.3549 h 6.7799 a 0.27139535,0.27139535 0 0 1 0.2713,0.2713 v 6.84403 a 0.27139535,0.27139535 0 0 1 -0.2713,0.2713 H 2.9598 a 0.27139535,0.27139535 0 0 1 -0.2713,-0.2713 v -6.84403 a 0.27139535,0.27139535 0 0 1 0.2713,-0.2713 z"
           id="path949" />
      </g>
    </g>
    <g
       transform="matrix(1.7606459,0,0,1.7606459,-242.01353,-133.02304)"
       id="g1180"
       style="fill:#000000;stroke:#000000;stroke-width:0.07513815;stroke-miterlimit:4;stroke-dasharray:none;stroke-opacity:1">
      <g
         style="stroke:#000000;stroke-width:0.07513815;stroke-miterlimit:4;stroke-dasharray:none;stroke-opacity:1"
         id="g1168">
        <path
           style="color:#000000;font-style:normal;font-variant:normal;font-weight:normal;font-stretch:normal;font-size:medium;line-height:normal;font-family:sans-serif;font-variant-ligatures:normal;font-variant-position:normal;font-variant-caps:normal;font-variant-numeric:normal;font-variant-alternates:normal;font-feature-settings:normal;text-indent:0;text-align:start;text-decoration:none;text-decoration-line:none;text-decoration-style:solid;text-decoration-color:#000000;letter-spacing:normal;word-spacing:normal;text-transform:none;writing-mode:lr-tb;direction:ltr;text-orientation:mixed;dominant-baseline:auto;baseline-shift:baseline;text-anchor:start;white-space:normal;shape-padding:0;clip-rule:nonzero;display:inline;overflow:visible;visibility:visible;opacity:1;isolation:auto;mix-blend-mode:normal;color-interpolation:sRGB;color-interpolation-filters:linearRGB;solid-color:#000000;solid-opacity:1;vector-effect:none;fill:#000000;fill-opacity:1;fill-rule:nonzero;stroke:#000000;stroke-width:0.07513815;stroke-linecap:butt;stroke-linejoin:round;stroke-miterlimit:4;stroke-dasharray:none;stroke-dashoffset:0;stroke-opacity:1;paint-order:stroke fill markers;color-rendering:auto;image-rendering:auto;shape-rendering:auto;text-rendering:auto;enable-background:accumulate"
           d="m 5.2053217,0.79458555 c -0.075018,0.002463 -0.1454603,0.0366686 -0.1937861,0.0941 0,0 -0.6003157,0.71016005 -1.2009596,1.58957005 -0.3003206,0.4397 -0.6014826,0.9222 -0.8319902,1.38699 -0.2305076,0.4648 -0.3963591,0.90739 -0.3963591,1.31414 0,1.45059 1.180256,2.63084 2.6308473,2.63084 0.056489,0 0.111813,-0.005 0.167431,-0.008 3.413e-4,-4e-5 6.932e-4,3e-5 0.00103,0 1.3722006,-0.0875 2.4644482,-1.22883 2.4644482,-2.62258 0,-0.40675 -0.1679178,-0.84934 -0.3984254,-1.31414 -0.2305032,-0.4651 -0.5321811,-0.9476 -0.8325017,-1.3873 C 6.0144123,1.5987956 5.4161629,0.88863555 5.4161629,0.88863555 5.3639951,0.82664424 5.2863021,0.79196928 5.2053217,0.79453555 Z m 0.00775,0.70125005 c 0.1525694,0.18531 0.4823328,0.57519 0.9647979,1.28158 0.291584,0.4269 0.5834327,0.89361 0.7968509,1.32395 0.2134208,0.43034 0.3415823,0.83091 0.3415823,1.07797 0,0.52455 -0.1911614,1.00205 -0.5069469,1.36942 0.02935,-0.12249 0.045992,-0.24962 0.045992,-0.38086 0,-0.27015 -0.1040765,-0.53663 -0.241845,-0.81441 -0.1377686,-0.2778 -0.3158067,-0.56196 -0.4924769,-0.82063 -0.3533378,-0.51732 -0.7048659,-0.93327 -0.7048659,-0.93327 -0.051873,-0.062551 -0.1296098,-0.097798 -0.2108412,-0.0956 -0.075256,0.00284 -0.1457381,0.037609 -0.1937861,0.0956 0,0 -0.3535944,0.41595 -0.7069322,0.93327 -0.1766703,0.25867 -0.3541925,0.54283 -0.491961,0.82063 -0.1377685,0.27778 -0.242361,0.54426 -0.242361,0.81441 0,0.13124 0.017158,0.25837 0.046509,0.38086 -0.315812,-0.36738 -0.5074629,-0.84484 -0.5074629,-1.36942 0,-0.24706 0.1302279,-0.64763 0.3436488,-1.07797 0.2134182,-0.43034 0.5037164,-0.89705 0.7953004,-1.32395 0.482174,-0.70596 0.8119216,-1.09589 0.9647978,-1.28158 z m 0,2.71095 c 0.1202611,0.1488 0.2355533,0.28089 0.4707732,0.62528 0.1679284,0.24587 0.3340708,0.51423 0.4547526,0.75758 0.1206791,0.24334 0.1875842,0.46779 0.1875842,0.57825 0,0.61828 -0.4948343,1.11312 -1.11311,1.11312 -0.6182756,0 -1.1136259,-0.49484 -1.1136259,-1.11312 0,-0.11046 0.066905,-0.33491 0.1875843,-0.57825 0.1206817,-0.24335 0.2873401,-0.51171 0.4552685,-0.75758 0.2349738,-0.34402 0.3503957,-0.47633 0.4707731,-0.62528 z"
           id="path1166" />
      </g>
    </g>
  </g>
</svg>
