<?xml version="1.0" encoding="UTF-8" standalone="no"?>
<svg
   xmlns:dc="http://purl.org/dc/elements/1.1/"
   xmlns:cc="http://creativecommons.org/ns#"
   xmlns:rdf="http://www.w3.org/1999/02/22-rdf-syntax-ns#"
   xmlns:svg="http://www.w3.org/2000/svg"
   xmlns="http://www.w3.org/2000/svg"
   id="svg29512"
   version="1.1"
   viewBox="0 0 26.458334 26.458334"
   height="26.458334mm"
   width="26.458334mm">
  <defs
     id="defs29506" />
  <metadata
     id="metadata29509">
    <rdf:RDF>
      <cc:Work
         rdf:about="">
        <dc:format>image/svg+xml</dc:format>
        <dc:type
           rdf:resource="http://purl.org/dc/dcmitype/StillImage" />
        <dc:title></dc:title>
      </cc:Work>
    </rdf:RDF>
  </metadata>
  <g
     transform="translate(80.508926,-102.34226)"
     id="layer1">
    <path
       id="path925"
       d="m -67.386719,103.22852 c -1.099861,0 -2.145558,0.23977 -3.085937,0.66992 -2.562816,1.1723 -4.341798,3.76036 -4.341797,6.75781 2e-6,4.09731 3.330417,7.42969 7.427734,7.42969 4.097318,0 7.42969,-3.33237 7.429688,-7.42969 2e-6,-4.09732 -3.33237,-7.42773 -7.429688,-7.42773 z m 0,0.92578 c 3.596847,0 6.503908,2.90511 6.503907,6.50195 1e-6,3.59684 -2.90706,6.50391 -6.503907,6.50391 -3.596846,0 -6.501951,-2.90706 -6.501953,-6.50391 -10e-7,-2.63133 1.558986,-4.89056 3.800781,-5.91602 0.822586,-0.37626 1.735653,-0.58593 2.701172,-0.58593 z"
       style="color:#000000;font-style:normal;font-variant:normal;font-weight:normal;font-stretch:normal;font-size:medium;line-height:normal;font-family:sans-serif;font-variant-ligatures:normal;font-variant-position:normal;font-variant-caps:normal;font-variant-numeric:normal;font-variant-alternates:normal;font-feature-settings:normal;text-indent:0;text-align:start;text-decoration:none;text-decoration-line:none;text-decoration-style:solid;text-decoration-color:#000000;letter-spacing:normal;word-spacing:normal;text-transform:none;writing-mode:lr-tb;direction:ltr;text-orientation:mixed;dominant-baseline:auto;baseline-shift:baseline;text-anchor:start;white-space:normal;shape-padding:0;clip-rule:nonzero;display:inline;overflow:visible;visibility:visible;opacity:1;isolation:auto;mix-blend-mode:normal;color-interpolation:sRGB;color-interpolation-filters:linearRGB;solid-color:#000000;solid-opacity:1;vector-effect:none;fill:#000000;fill-opacity:1;fill-rule:nonzero;stroke:none;stroke-width:0.92604166;stroke-linecap:round;stroke-linejoin:round;stroke-miterlimit:4;stroke-dasharray:none;stroke-dashoffset:0;stroke-opacity:1;paint-order:normal;color-rendering:auto;image-rendering:auto;shape-rendering:auto;text-rendering:auto;enable-background:accumulate" />
    <path
       style="display:inline;fill:#000000;fill-opacity:1;stroke-width:0.44097224"
       d="m -65.908551,106.4522 c -0.207773,2.9e-4 -0.362797,0.12673 -0.428603,0.28931 -0.06581,0.16257 -0.04242,0.36126 0.106658,0.50599 l 0.333313,0.33357 0.333313,0.33357 h -2.288747 -2.288752 c -0.313077,-0.004 -0.469613,0.2293 -0.469613,0.46302 0,0.23372 0.156536,0.46745 0.469613,0.46302 h 2.24689 2.246895 l -0.291456,0.29146 -0.291456,0.29145 c -0.227264,0.2182 -0.172681,0.49552 -0.0067,0.66147 0.165951,0.16595 0.44327,0.22054 0.661471,-0.007 l 0.707448,-0.70745 0.707451,-0.70745 c 0.09037,-0.0904 0.13556,-0.20889 0.13556,-0.32737 0,-0.11848 -0.04519,-0.23696 -0.13556,-0.32737 l -0.707498,-0.70797 -0.707448,-0.70796 c -0.04366,-0.045 -0.09552,-0.0802 -0.152126,-0.10407 -0.05661,-0.0239 -0.117978,-0.0366 -0.180671,-0.0365 z"
       id="path939" />
    <path
       id="path941"
       d="m -68.727726,111.2147 c 0.207777,2.9e-4 0.362796,0.12673 0.428607,0.28931 0.06581,0.16257 0.04242,0.36126 -0.106662,0.50599 l -0.333314,0.33357 -0.333313,0.33357 h 2.288752 2.288747 c 0.313077,-0.004 0.469613,0.2293 0.469613,0.46302 0,0.23372 -0.156536,0.46745 -0.469613,0.46302 h -2.24689 -2.24689 l 0.291451,0.29146 0.291457,0.29145 c 0.227263,0.2182 0.17268,0.49552 0.0067,0.66147 -0.165951,0.16595 -0.443269,0.22054 -0.661467,-0.007 l -0.707451,-0.70745 -0.707452,-0.70745 c -0.09037,-0.0904 -0.135559,-0.20889 -0.135559,-0.32737 0,-0.11848 0.04519,-0.23696 0.135559,-0.32737 l 0.707452,-0.70797 0.707451,-0.70796 c 0.04366,-0.045 0.09551,-0.0802 0.152123,-0.10408 0.05661,-0.0239 0.117977,-0.0366 0.18067,-0.0365 z"
       style="display:inline;fill:#000000;fill-opacity:1;stroke-width:0.44097224" />
    <g
       transform="matrix(0.44097223,0,0,0.44097223,-49.06497,174.17837)"
       id="g935"
       style="fill:#000000">
      <path
         id="rect920"
         d="m -60.6875,-123.08008 a 0.88931256,0.88931256 0 0 0 -0.888672,0.88867 v 5.77539 a 0.88931256,0.88931256 0 0 0 0.888672,0.88868 h 16.439453 a 0.88931256,0.88931256 0 0 0 0.888672,-0.88868 v -5.77539 a 0.88931256,0.88931256 0 0 0 -0.888672,-0.88867 z m 0.888672,1.7793 h 14.660156 v 3.99609 h -14.660156 z"
         style="color:#000000;font-style:normal;font-variant:normal;font-weight:normal;font-stretch:normal;font-size:medium;line-height:normal;font-family:sans-serif;font-variant-ligatures:normal;font-variant-position:normal;font-variant-caps:normal;font-variant-numeric:normal;font-variant-alternates:normal;font-feature-settings:normal;text-indent:0;text-align:start;text-decoration:none;text-decoration-line:none;text-decoration-style:solid;text-decoration-color:#000000;letter-spacing:normal;word-spacing:normal;text-transform:none;writing-mode:lr-tb;direction:ltr;text-orientation:mixed;dominant-baseline:auto;baseline-shift:baseline;text-anchor:start;white-space:normal;shape-padding:0;clip-rule:nonzero;display:inline;overflow:visible;visibility:visible;opacity:1;isolation:auto;mix-blend-mode:normal;color-interpolation:sRGB;color-interpolation-filters:linearRGB;solid-color:#000000;solid-opacity:1;vector-effect:none;fill:#000000;fill-opacity:1;fill-rule:nonzero;stroke:none;stroke-width:1.77844727;stroke-linecap:round;stroke-linejoin:round;stroke-miterlimit:4;stroke-dasharray:none;stroke-dashoffset:0;stroke-opacity:1;paint-order:normal;color-rendering:auto;image-rendering:auto;shape-rendering:auto;text-rendering:auto;enable-background:accumulate" />
      <path
         id="path923"
         d="m -65.955078,-144.82812 a 1.050105,1.050105 0 0 0 -1.050781,1.05078 v 11.11523 a 1.050105,1.050105 0 0 0 1.050781,1.05078 h 6.75 v 9.38281 h 2.101562 v -10.43359 a 1.050105,1.050105 0 0 0 -1.050781,-1.05078 h -6.75 v -9.01563 h 7.140625 v -2.0996 z"
         style="color:#000000;font-style:normal;font-variant:normal;font-weight:normal;font-stretch:normal;font-size:medium;line-height:normal;font-family:sans-serif;font-variant-ligatures:normal;font-variant-position:normal;font-variant-caps:normal;font-variant-numeric:normal;font-variant-alternates:normal;font-feature-settings:normal;text-indent:0;text-align:start;text-decoration:none;text-decoration-line:none;text-decoration-style:solid;text-decoration-color:#000000;letter-spacing:normal;word-spacing:normal;text-transform:none;writing-mode:lr-tb;direction:ltr;text-orientation:mixed;dominant-baseline:auto;baseline-shift:baseline;text-anchor:start;white-space:normal;shape-padding:0;clip-rule:nonzero;display:inline;overflow:visible;visibility:visible;opacity:1;isolation:auto;mix-blend-mode:normal;color-interpolation:sRGB;color-interpolation-filters:linearRGB;solid-color:#000000;solid-opacity:1;vector-effect:none;fill:#000000;fill-opacity:1;fill-rule:nonzero;stroke:none;stroke-width:2.0999999;stroke-linecap:butt;stroke-linejoin:round;stroke-miterlimit:4;stroke-dasharray:none;stroke-dashoffset:0;stroke-opacity:1;color-rendering:auto;image-rendering:auto;shape-rendering:auto;text-rendering:auto;enable-background:accumulate" />
      <path
         id="path927"
         d="m -47.892578,-129.73633 v 7.50781 h 2.099609 v -7.50781 z"
         style="color:#000000;font-style:normal;font-variant:normal;font-weight:normal;font-stretch:normal;font-size:medium;line-height:normal;font-family:sans-serif;font-variant-ligatures:normal;font-variant-position:normal;font-variant-caps:normal;font-variant-numeric:normal;font-variant-alternates:normal;font-feature-settings:normal;text-indent:0;text-align:start;text-decoration:none;text-decoration-line:none;text-decoration-style:solid;text-decoration-color:#000000;letter-spacing:normal;word-spacing:normal;text-transform:none;writing-mode:lr-tb;direction:ltr;text-orientation:mixed;dominant-baseline:auto;baseline-shift:baseline;text-anchor:start;white-space:normal;shape-padding:0;clip-rule:nonzero;display:inline;overflow:visible;visibility:visible;opacity:1;isolation:auto;mix-blend-mode:normal;color-interpolation:sRGB;color-interpolation-filters:linearRGB;solid-color:#000000;solid-opacity:1;vector-effect:none;fill:#000000;fill-opacity:1;fill-rule:nonzero;stroke:none;stroke-width:2.0999999;stroke-linecap:butt;stroke-linejoin:miter;stroke-miterlimit:4;stroke-dasharray:none;stroke-dashoffset:0;stroke-opacity:1;color-rendering:auto;image-rendering:auto;shape-rendering:auto;text-rendering:auto;enable-background:accumulate" />
      <path
         id="path929"
         d="m -59.205078,-116.28125 v 8.9707 a 1.050105,1.050105 0 0 0 1.050781,1.05078 h 11.310547 a 1.050105,1.050105 0 0 0 1.050781,-1.05078 v -8.87304 h -2.099609 v 7.82421 h -9.210938 v -7.92187 z"
         style="color:#000000;font-style:normal;font-variant:normal;font-weight:normal;font-stretch:normal;font-size:medium;line-height:normal;font-family:sans-serif;font-variant-ligatures:normal;font-variant-position:normal;font-variant-caps:normal;font-variant-numeric:normal;font-variant-alternates:normal;font-feature-settings:normal;text-indent:0;text-align:start;text-decoration:none;text-decoration-line:none;text-decoration-style:solid;text-decoration-color:#000000;letter-spacing:normal;word-spacing:normal;text-transform:none;writing-mode:lr-tb;direction:ltr;text-orientation:mixed;dominant-baseline:auto;baseline-shift:baseline;text-anchor:start;white-space:normal;shape-padding:0;clip-rule:nonzero;display:inline;overflow:visible;visibility:visible;opacity:1;isolation:auto;mix-blend-mode:normal;color-interpolation:sRGB;color-interpolation-filters:linearRGB;solid-color:#000000;solid-opacity:1;vector-effect:none;fill:#000000;fill-opacity:1;fill-rule:nonzero;stroke:none;stroke-width:2.0999999;stroke-linecap:butt;stroke-linejoin:round;stroke-miterlimit:4;stroke-dasharray:none;stroke-dashoffset:0;stroke-opacity:1;color-rendering:auto;image-rendering:auto;shape-rendering:auto;text-rendering:auto;enable-background:accumulate" />
    </g>
    <g
       transform="matrix(-0.44097223,0,0,0.44097223,-85.561744,174.17837)"
       id="g947"
       style="fill:#000000">
      <path
         id="rect937"
         d="m -60.6875,-123.08008 a 0.88931256,0.88931256 0 0 0 -0.888672,0.88867 v 5.77539 a 0.88931256,0.88931256 0 0 0 0.888672,0.88868 h 16.439453 a 0.88931256,0.88931256 0 0 0 0.888672,-0.88868 v -5.77539 a 0.88931256,0.88931256 0 0 0 -0.888672,-0.88867 z m 0.888672,1.7793 h 14.660156 v 3.99609 h -14.660156 z"
         style="color:#000000;font-style:normal;font-variant:normal;font-weight:normal;font-stretch:normal;font-size:medium;line-height:normal;font-family:sans-serif;font-variant-ligatures:normal;font-variant-position:normal;font-variant-caps:normal;font-variant-numeric:normal;font-variant-alternates:normal;font-feature-settings:normal;text-indent:0;text-align:start;text-decoration:none;text-decoration-line:none;text-decoration-style:solid;text-decoration-color:#000000;letter-spacing:normal;word-spacing:normal;text-transform:none;writing-mode:lr-tb;direction:ltr;text-orientation:mixed;dominant-baseline:auto;baseline-shift:baseline;text-anchor:start;white-space:normal;shape-padding:0;clip-rule:nonzero;display:inline;overflow:visible;visibility:visible;opacity:1;isolation:auto;mix-blend-mode:normal;color-interpolation:sRGB;color-interpolation-filters:linearRGB;solid-color:#000000;solid-opacity:1;vector-effect:none;fill:#000000;fill-opacity:1;fill-rule:nonzero;stroke:none;stroke-width:1.77844727;stroke-linecap:round;stroke-linejoin:round;stroke-miterlimit:4;stroke-dasharray:none;stroke-dashoffset:0;stroke-opacity:1;paint-order:normal;color-rendering:auto;image-rendering:auto;shape-rendering:auto;text-rendering:auto;enable-background:accumulate" />
      <path
         id="path940"
         d="m -65.955078,-144.82812 a 1.050105,1.050105 0 0 0 -1.050781,1.05078 v 11.11523 a 1.050105,1.050105 0 0 0 1.050781,1.05078 h 6.75 v 9.38281 h 2.101562 v -10.43359 a 1.050105,1.050105 0 0 0 -1.050781,-1.05078 h -6.75 v -9.01563 h 7.140625 v -2.0996 z"
         style="color:#000000;font-style:normal;font-variant:normal;font-weight:normal;font-stretch:normal;font-size:medium;line-height:normal;font-family:sans-serif;font-variant-ligatures:normal;font-variant-position:normal;font-variant-caps:normal;font-variant-numeric:normal;font-variant-alternates:normal;font-feature-settings:normal;text-indent:0;text-align:start;text-decoration:none;text-decoration-line:none;text-decoration-style:solid;text-decoration-color:#000000;letter-spacing:normal;word-spacing:normal;text-transform:none;writing-mode:lr-tb;direction:ltr;text-orientation:mixed;dominant-baseline:auto;baseline-shift:baseline;text-anchor:start;white-space:normal;shape-padding:0;clip-rule:nonzero;display:inline;overflow:visible;visibility:visible;opacity:1;isolation:auto;mix-blend-mode:normal;color-interpolation:sRGB;color-interpolation-filters:linearRGB;solid-color:#000000;solid-opacity:1;vector-effect:none;fill:#000000;fill-opacity:1;fill-rule:nonzero;stroke:none;stroke-width:2.0999999;stroke-linecap:butt;stroke-linejoin:round;stroke-miterlimit:4;stroke-dasharray:none;stroke-dashoffset:0;stroke-opacity:1;color-rendering:auto;image-rendering:auto;shape-rendering:auto;text-rendering:auto;enable-background:accumulate" />
      <path
         id="path942"
         d="m -47.892578,-129.73633 v 7.50781 h 2.099609 v -7.50781 z"
         style="color:#000000;font-style:normal;font-variant:normal;font-weight:normal;font-stretch:normal;font-size:medium;line-height:normal;font-family:sans-serif;font-variant-ligatures:normal;font-variant-position:normal;font-variant-caps:normal;font-variant-numeric:normal;font-variant-alternates:normal;font-feature-settings:normal;text-indent:0;text-align:start;text-decoration:none;text-decoration-line:none;text-decoration-style:solid;text-decoration-color:#000000;letter-spacing:normal;word-spacing:normal;text-transform:none;writing-mode:lr-tb;direction:ltr;text-orientation:mixed;dominant-baseline:auto;baseline-shift:baseline;text-anchor:start;white-space:normal;shape-padding:0;clip-rule:nonzero;display:inline;overflow:visible;visibility:visible;opacity:1;isolation:auto;mix-blend-mode:normal;color-interpolation:sRGB;color-interpolation-filters:linearRGB;solid-color:#000000;solid-opacity:1;vector-effect:none;fill:#000000;fill-opacity:1;fill-rule:nonzero;stroke:none;stroke-width:2.0999999;stroke-linecap:butt;stroke-linejoin:miter;stroke-miterlimit:4;stroke-dasharray:none;stroke-dashoffset:0;stroke-opacity:1;color-rendering:auto;image-rendering:auto;shape-rendering:auto;text-rendering:auto;enable-background:accumulate" />
      <path
         id="path945"
         d="m -59.205078,-116.28125 v 8.9707 a 1.050105,1.050105 0 0 0 1.050781,1.05078 h 11.310547 a 1.050105,1.050105 0 0 0 1.050781,-1.05078 v -8.87304 h -2.099609 v 7.82421 h -9.210938 v -7.92187 z"
         style="color:#000000;font-style:normal;font-variant:normal;font-weight:normal;font-stretch:normal;font-size:medium;line-height:normal;font-family:sans-serif;font-variant-ligatures:normal;font-variant-position:normal;font-variant-caps:normal;font-variant-numeric:normal;font-variant-alternates:normal;font-feature-settings:normal;text-indent:0;text-align:start;text-decoration:none;text-decoration-line:none;text-decoration-style:solid;text-decoration-color:#000000;letter-spacing:normal;word-spacing:normal;text-transform:none;writing-mode:lr-tb;direction:ltr;text-orientation:mixed;dominant-baseline:auto;baseline-shift:baseline;text-anchor:start;white-space:normal;shape-padding:0;clip-rule:nonzero;display:inline;overflow:visible;visibility:visible;opacity:1;isolation:auto;mix-blend-mode:normal;color-interpolation:sRGB;color-interpolation-filters:linearRGB;solid-color:#000000;solid-opacity:1;vector-effect:none;fill:#000000;fill-opacity:1;fill-rule:nonzero;stroke:none;stroke-width:2.0999999;stroke-linecap:butt;stroke-linejoin:round;stroke-miterlimit:4;stroke-dasharray:none;stroke-dashoffset:0;stroke-opacity:1;color-rendering:auto;image-rendering:auto;shape-rendering:auto;text-rendering:auto;enable-background:accumulate" />
    </g>
  </g>
</svg>
