<?xml version="1.0" encoding="UTF-8" standalone="no"?>
<svg
   xmlns:i="http://ns.adobe.com/AdobeIllustrator/10.0/"
   xmlns:dc="http://purl.org/dc/elements/1.1/"
   xmlns:cc="http://creativecommons.org/ns#"
   xmlns:rdf="http://www.w3.org/1999/02/22-rdf-syntax-ns#"
   xmlns:svg="http://www.w3.org/2000/svg"
   xmlns="http://www.w3.org/2000/svg"
   xmlns:sodipodi="http://sodipodi.sourceforge.net/DTD/sodipodi-0.dtd"
   xmlns:inkscape="http://www.inkscape.org/namespaces/inkscape"
   id="svg9658"
   version="1.1"
   viewBox="0 0 26.458334 26.458334"
   height="26.458334mm"
   width="26.458334mm"
   sodipodi:docname="production_geothermal.svg"
   inkscape:version="0.92.3 (2405546, 2018-03-11)">
  <sodipodi:namedview
     pagecolor="#ffffff"
     bordercolor="#666666"
     borderopacity="1"
     objecttolerance="10"
     gridtolerance="10"
     guidetolerance="10"
     inkscape:pageopacity="0"
     inkscape:pageshadow="2"
     inkscape:window-width="961"
     inkscape:window-height="480"
     id="namedview19"
     showgrid="false"
     inkscape:zoom="2.3599999"
     inkscape:cx="50.000001"
     inkscape:cy="50.000001"
     inkscape:window-x="67"
     inkscape:window-y="27"
     inkscape:window-maximized="0"
     inkscape:current-layer="layer1" />
  <defs
     id="defs9652" />
  <metadata
     id="metadata9655">
    <rdf:RDF>
      <cc:Work
         rdf:about="">
        <dc:format>image/svg+xml</dc:format>
        <dc:type
           rdf:resource="http://purl.org/dc/dcmitype/StillImage" />
        <dc:title />
      </cc:Work>
    </rdf:RDF>
  </metadata>
  <g
     transform="translate(-101.6756,-11.627975)"
     id="layer1">
    <g
       transform="matrix(0.24379391,0,0,0.24379391,103.21017,12.721622)"
       id="g1151"
       style="fill:#000000">
      <g
         id="g1131">
        <g
           transform="translate(0,-4.3410984)"
           i:extraneous="self"
           id="g1129">
          <g
             id="g1127">
            <path
               d="m 33.7,48.8 h -9.2 c -1.1,0 -2,0.9 -2,2 V 59 c 0,1.1 0.9,2 2,2 h 9.2 c 1.1,0 2,-0.9 2,-2 v -8.2 c 0,-1.1 -0.9,-2 -2,-2 z M 31.8,57 h -5.3 v -4.3 h 5.3 z"
               id="path1113" />
            <path
               d="m 54.6,48.8 h -9.2 c -1.1,0 -2,0.9 -2,2 V 59 c 0,1.1 0.9,2 2,2 h 9.2 c 1.1,0 2,-0.9 2,-2 v -8.2 c 0,-1.1 -0.9,-2 -2,-2 z m -2,8.2 h -5.3 v -4.3 h 5.3 z"
               id="path1115" />
            <path
               d="m 75.5,48.8 h -9.2 c -1.1,0 -2,0.9 -2,2 V 59 c 0,1.1 0.9,2 2,2 h 9.2 c 1.1,0 2,-0.9 2,-2 v -8.2 c 0,-1.1 -0.9,-2 -2,-2 z m -2,8.2 h -5.3 v -4.3 h 5.3 z"
               id="path1117" />
            <path
               d="M 94.8,66.9 H 90.2 V 42 c 0,-0.6 -0.3,-1.2 -0.8,-1.6 L 76.7,31 C 76,30.5 75.1,30.5 74.4,31 l -2.9,2.1 -2.2,-17.9 c -0.1,-1 -1,-1.7 -2,-1.7 H 64.7 V 8.7 c 0,-3.4 -2.8,-6.2 -6.2,-6.2 h -1.4 c -2.4,0 -3.6,1.4 -4.5,2.3 -0.7,0.8 -1,1 -1.6,1 -0.6,0 -0.8,-0.2 -1.6,-1 -0.8,-0.9 -2.1,-2.3 -4.5,-2.3 -2.4,0 -3.6,1.4 -4.5,2.3 -0.7,0.8 -1,1 -1.6,1 -0.6,0 -0.8,-0.2 -1.6,-1 -0.8,-0.9 -2.1,-2.3 -4.5,-2.3 -2.4,0 -3.6,1.4 -4.5,2.3 -0.7,0.8 -1,1 -1.6,1 C 26,5.8 25.8,5.6 25,4.8 24.2,3.9 22.9,2.5 20.5,2.5 c -2.4,0 -3.6,1.4 -4.5,2.3 -0.7,0.8 -1,1 -1.6,1 -1.1,0 -2,0.9 -2,2 0,1.1 0.9,2 2,2 2.4,0 3.6,-1.4 4.5,-2.3 0.7,-0.8 1,-1 1.6,-1 0.6,0 0.8,0.2 1.6,1 0.8,0.9 2.1,2.3 4.5,2.3 2.4,0 3.6,-1.4 4.5,-2.3 0.7,-0.8 1,-1 1.6,-1 0.6,0 0.8,0.2 1.6,1 0.8,0.9 2.1,2.3 4.5,2.3 2.4,0 3.6,-1.4 4.5,-2.3 0.7,-0.8 1,-1 1.6,-1 0.6,0 0.8,0.2 1.6,1 0.8,0.9 2.1,2.3 4.5,2.3 2.4,0 3.6,-1.4 4.5,-2.3 0.7,-0.8 1,-1 1.6,-1 h 1.4 c 1.3,0 2.3,1 2.3,2.3 v 4.7 h -2.6 c -1,0 -1.8,0.7 -2,1.7 L 54,33.1 51.2,31 c -0.7,-0.5 -1.6,-0.5 -2.3,0 l -3.4,2.5 -1.7,-13.7 c -0.1,-1 -1,-1.7 -2,-1.7 h -9.1 c -1,0 -1.8,0.7 -2,1.7 L 29,33.5 25.7,31 C 25,30.5 24.1,30.5 23.4,31 l -12.8,9.4 c -0.5,0.4 -0.8,1 -0.8,1.6 V 66.9 H 5.2 c -1.1,0 -2,0.9 -2,2 0,1.1 0.9,2 2,2 h 89.6 c 1.1,0 2,-0.9 2,-2 0,-1.1 -0.9,-2 -2,-2 z M 60,17.4 h 5.6 l 2.2,18.4 -5,3.7 -5,-3.7 z M 34.4,22.1 H 40 l 1.7,14.2 -4.5,3.3 -4.5,-3.3 z M 13.7,43 24.5,35 36.1,43.5 c 0.7,0.5 1.6,0.5 2.3,0 L 50,35 61.6,43.5 c 0.7,0.5 1.6,0.5 2.3,0 L 75.5,35 86.3,43 V 66.9 H 13.7 Z"
               id="path1119" />
          </g>
        </g>
      </g>
    </g>
    <g
       id="g5745"
       transform="matrix(0.44097223,0,0,0.44097223,46.153574,314.26345)"
       style="fill:#000000">
      <path
         id="path5739"
         d="m 152.64062,-643.92188 a 1.050105,1.050105 0 0 0 -0.17578,0.0176 c 0,0 -0.76204,0.12901 -1.53711,0.65039 -0.77506,0.52139 -1.6436,1.49498 -1.99414,3.01758 -0.35764,1.55352 0.26997,2.78067 0.92188,3.57422 0.65191,0.79355 1.26481,1.37253 1.6543,2.57031 0.33812,1.03984 -0.0182,1.51305 -0.53321,1.9961 -0.51498,0.48305 -1.15039,0.73047 -1.15039,0.73047 a 1.050105,1.050105 0 1 0 0.72071,1.9707 c 0,0 0.98974,-0.34689 1.86718,-1.16992 0.87745,-0.82304 1.68169,-2.36769 1.09375,-4.17578 -0.53657,-1.65015 -1.49159,-2.59938 -2.02929,-3.25391 -0.53771,-0.65453 -0.72273,-0.79553 -0.49805,-1.77148 0.2318,-1.00686 0.70281,-1.46604 1.11914,-1.7461 0.41633,-0.28006 0.69922,-0.32031 0.69922,-0.32031 a 1.050105,1.050105 0 0 0 -0.15821,-2.08985 z"
         style="color:#000000;font-style:normal;font-variant:normal;font-weight:normal;font-stretch:normal;font-size:medium;line-height:normal;font-family:sans-serif;font-variant-ligatures:normal;font-variant-position:normal;font-variant-caps:normal;font-variant-numeric:normal;font-variant-alternates:normal;font-feature-settings:normal;text-indent:0;text-align:start;text-decoration:none;text-decoration-line:none;text-decoration-style:solid;text-decoration-color:#000000;letter-spacing:normal;word-spacing:normal;text-transform:none;writing-mode:lr-tb;direction:ltr;text-orientation:mixed;dominant-baseline:auto;baseline-shift:baseline;text-anchor:start;white-space:normal;shape-padding:0;clip-rule:nonzero;display:inline;overflow:visible;visibility:visible;opacity:1;isolation:auto;mix-blend-mode:normal;color-interpolation:sRGB;color-interpolation-filters:linearRGB;solid-color:#000000;solid-opacity:1;vector-effect:none;fill:#000000;fill-opacity:1;fill-rule:nonzero;stroke:none;stroke-width:2.0999999;stroke-linecap:round;stroke-linejoin:miter;stroke-miterlimit:4;stroke-dasharray:none;stroke-dashoffset:0;stroke-opacity:1;color-rendering:auto;image-rendering:auto;shape-rendering:auto;text-rendering:auto;enable-background:accumulate" />
      <path
         id="path5741"
         d="m 158.64062,-643.92188 a 1.050105,1.050105 0 0 0 -0.17578,0.0176 c 0,0 -0.76204,0.12901 -1.53711,0.65039 -0.77506,0.52139 -1.6436,1.49498 -1.99414,3.01758 -0.35764,1.55352 0.26997,2.78067 0.92188,3.57422 0.65191,0.79355 1.26481,1.37253 1.6543,2.57031 0.33812,1.03984 -0.0182,1.51305 -0.53321,1.9961 -0.51498,0.48305 -1.15039,0.73047 -1.15039,0.73047 a 1.050105,1.050105 0 1 0 0.72071,1.9707 c 0,0 0.98974,-0.34689 1.86718,-1.16992 0.87745,-0.82304 1.68169,-2.36769 1.09375,-4.17578 -0.53657,-1.65015 -1.49159,-2.59938 -2.02929,-3.25391 -0.53771,-0.65453 -0.72273,-0.79553 -0.49805,-1.77148 0.2318,-1.00686 0.70281,-1.46604 1.11914,-1.7461 0.41633,-0.28006 0.69922,-0.32031 0.69922,-0.32031 a 1.050105,1.050105 0 0 0 -0.15821,-2.08985 z"
         style="color:#000000;font-style:normal;font-variant:normal;font-weight:normal;font-stretch:normal;font-size:medium;line-height:normal;font-family:sans-serif;font-variant-ligatures:normal;font-variant-position:normal;font-variant-caps:normal;font-variant-numeric:normal;font-variant-alternates:normal;font-feature-settings:normal;text-indent:0;text-align:start;text-decoration:none;text-decoration-line:none;text-decoration-style:solid;text-decoration-color:#000000;letter-spacing:normal;word-spacing:normal;text-transform:none;writing-mode:lr-tb;direction:ltr;text-orientation:mixed;dominant-baseline:auto;baseline-shift:baseline;text-anchor:start;white-space:normal;shape-padding:0;clip-rule:nonzero;display:inline;overflow:visible;visibility:visible;opacity:1;isolation:auto;mix-blend-mode:normal;color-interpolation:sRGB;color-interpolation-filters:linearRGB;solid-color:#000000;solid-opacity:1;vector-effect:none;fill:#000000;fill-opacity:1;fill-rule:nonzero;stroke:none;stroke-width:2.0999999;stroke-linecap:round;stroke-linejoin:miter;stroke-miterlimit:4;stroke-dasharray:none;stroke-dashoffset:0;stroke-opacity:1;color-rendering:auto;image-rendering:auto;shape-rendering:auto;text-rendering:auto;enable-background:accumulate" />
      <path
         id="path5743"
         d="m 164.64062,-643.92188 a 1.050105,1.050105 0 0 0 -0.17578,0.0176 c 0,0 -0.76204,0.12901 -1.53711,0.65039 -0.77506,0.52139 -1.6436,1.49498 -1.99414,3.01758 -0.35764,1.55352 0.26997,2.78067 0.92188,3.57422 0.65191,0.79355 1.26481,1.37253 1.6543,2.57031 0.33812,1.03984 -0.0182,1.51305 -0.53321,1.9961 -0.51498,0.48305 -1.15039,0.73047 -1.15039,0.73047 a 1.050105,1.050105 0 1 0 0.72071,1.9707 c 0,0 0.98974,-0.34689 1.86718,-1.16992 0.87745,-0.82304 1.68169,-2.36769 1.09375,-4.17578 -0.53657,-1.65015 -1.49159,-2.59938 -2.02929,-3.25391 -0.53771,-0.65453 -0.72273,-0.79553 -0.49805,-1.77148 0.2318,-1.00686 0.70281,-1.46604 1.11914,-1.7461 0.41633,-0.28006 0.69922,-0.32031 0.69922,-0.32031 a 1.050105,1.050105 0 0 0 -0.15821,-2.08985 z"
         style="color:#000000;font-style:normal;font-variant:normal;font-weight:normal;font-stretch:normal;font-size:medium;line-height:normal;font-family:sans-serif;font-variant-ligatures:normal;font-variant-position:normal;font-variant-caps:normal;font-variant-numeric:normal;font-variant-alternates:normal;font-feature-settings:normal;text-indent:0;text-align:start;text-decoration:none;text-decoration-line:none;text-decoration-style:solid;text-decoration-color:#000000;letter-spacing:normal;word-spacing:normal;text-transform:none;writing-mode:lr-tb;direction:ltr;text-orientation:mixed;dominant-baseline:auto;baseline-shift:baseline;text-anchor:start;white-space:normal;shape-padding:0;clip-rule:nonzero;display:inline;overflow:visible;visibility:visible;opacity:1;isolation:auto;mix-blend-mode:normal;color-interpolation:sRGB;color-interpolation-filters:linearRGB;solid-color:#000000;solid-opacity:1;vector-effect:none;fill:#000000;fill-opacity:1;fill-rule:nonzero;stroke:none;stroke-width:2.0999999;stroke-linecap:round;stroke-linejoin:miter;stroke-miterlimit:4;stroke-dasharray:none;stroke-dashoffset:0;stroke-opacity:1;color-rendering:auto;image-rendering:auto;shape-rendering:auto;text-rendering:auto;enable-background:accumulate" />
    </g>
  </g>
</svg>
