<?xml version="1.0" encoding="UTF-8" standalone="no"?>
<svg
   xmlns:dc="http://purl.org/dc/elements/1.1/"
   xmlns:cc="http://creativecommons.org/ns#"
   xmlns:rdf="http://www.w3.org/1999/02/22-rdf-syntax-ns#"
   xmlns:svg="http://www.w3.org/2000/svg"
   xmlns="http://www.w3.org/2000/svg"
   id="svg18991"
   version="1.1"
   viewBox="0 0 26.458334 26.458334"
   height="26.458334mm"
   width="26.458334mm">
  <defs
     id="defs18985" />
  <metadata
     id="metadata18988">
    <rdf:RDF>
      <cc:Work
         rdf:about="">
        <dc:format>image/svg+xml</dc:format>
        <dc:type
           rdf:resource="http://purl.org/dc/dcmitype/StillImage" />
        <dc:title></dc:title>
      </cc:Work>
    </rdf:RDF>
  </metadata>
  <g
     transform="translate(130.24443,89.666939)"
     id="layer1">
    <g
       transform="matrix(0.38378127,0,0,0.38378127,-129.79429,-89.337154)"
       id="g4979"
       style="display:inline;opacity:1;fill:#000000">
      <g
         id="g4965">
        <path
           d="m 64,54 a 1,1 0 0 0 1,-1 V 17 a 1,1 0 0 0 -1,-1 h -4 v -4 a 1,1 0 0 0 -2,0 v 4 h -8 v -4 a 1,1 0 0 0 -2,0 v 4 H 44 V 8 A 7,7 0 0 0 37,1 H 24 a 7,7 0 0 0 -7,7 v 10 h -1 a 1,1 0 0 0 -1,1 v 5.92 A 20,20 0 0 0 5.83,57 H 2 a 1,1 0 0 0 -1,1 v 6 a 1,1 0 0 0 1,1 h 62 a 1,1 0 0 0 1,-1 V 58 A 1,1 0 0 0 64,57 H 60 V 54 Z M 63,18 V 52 H 60 V 18 Z m -5,22 h -8 v -4 h 8 z m 0,-6 h -8 v -4 h 8 z m -8,8 h 8 v 4 h -8 z m 8,-14 h -8 v -4 h 8 z m -8,20 h 8 v 4 h -8 z m 8,-30 v 4 H 50 V 18 Z M 48,52 H 39.32 A 19.92,19.92 0 0 0 34,28.83 V 18 H 48 Z M 36.17,57 A 20.15,20.15 0 0 0 38.3,54 H 48 v 3 z M 26,18 h -1 v -7 a 2,2 0 0 1 2,-2 h 7 a 2,2 0 0 1 2,2 v 5 h -3 a 1,1 0 0 0 -1,1 V 27.31 A 20.2,20.2 0 0 0 27,24.92 V 19 A 1,1 0 0 0 26,18 Z M 19,8 a 5,5 0 0 1 5,-5 h 13 a 5,5 0 0 1 5,5 v 8 H 38 V 11 A 4,4 0 0 0 34,7 h -7 a 4,4 0 0 0 -4,4 v 7 h -4 z m -2,12 h 8 v 4.4 a 20.2,20.2 0 0 0 -8,0 z M 3,44 A 18,18 0 0 1 32,29.78 V 30 h 0.29 a 17.88,17.88 0 0 1 4.8,22 H 37 v 0.18 A 17.88,17.88 0 0 1 33.41,57 h -5 a 15,15 0 1 0 -14.9,0 h -5 A 18,18 0 0 1 3,44 Z M 21,57 A 13,13 0 1 1 34,44 13,13 0 0 1 21,57 Z m 42,6 H 3 v -4 h 60 z m -5,-6 h -8 v -3 h 8 z"
           id="path4959" />
        <path
           d="M 20.14,34.49 C 19.45,35.67 16,41.64 16,44 a 5,5 0 0 0 10,0 c 0,-2.36 -3.45,-8.33 -4.14,-9.51 a 1,1 0 0 0 -1.72,0 z M 21,47 a 3,3 0 0 1 -3,-3 c 0,-1.16 1.6,-4.44 3,-7 1.4,2.54 3,5.82 3,7 a 3,3 0 0 1 -3,3 z"
           id="path4961" />
        <path
           d="m 25,51 h -8 a 1,1 0 0 0 0,2 h 8 a 1,1 0 0 0 0,-2 z"
           id="path4963" />
      </g>
    </g>
  </g>
</svg>
