<?xml version="1.0" encoding="UTF-8" standalone="no"?>
<svg
   xmlns:dc="http://purl.org/dc/elements/1.1/"
   xmlns:cc="http://creativecommons.org/ns#"
   xmlns:rdf="http://www.w3.org/1999/02/22-rdf-syntax-ns#"
   xmlns:svg="http://www.w3.org/2000/svg"
   xmlns="http://www.w3.org/2000/svg"
   id="svg25116"
   version="1.1"
   viewBox="0 0 26.458334 26.458334"
   height="26.458334mm"
   width="26.458334mm">
  <defs
     id="defs25110" />
  <metadata
     id="metadata25113">
    <rdf:RDF>
      <cc:Work
         rdf:about="">
        <dc:format>image/svg+xml</dc:format>
        <dc:type
           rdf:resource="http://purl.org/dc/dcmitype/StillImage" />
        <dc:title></dc:title>
      </cc:Work>
    </rdf:RDF>
  </metadata>
  <g
     transform="translate(46.491074,74.550598)"
     id="layer1">
    <g
       transform="matrix(0.19217618,0,0,0.19217618,-14.223108,60.594394)"
       id="g5731"
       style="fill:#000000">
      <path
         id="path5719"
         d="m -142.9375,-640.11719 a 2.4095971,2.4095971 0 0 0 -2.37305,2.44336 v 38.46875 a 2.4095971,2.4095971 0 1 0 4.81836,0 v -38.46875 a 2.4095971,2.4095971 0 0 0 -2.44531,-2.44336 z"
         style="color:#000000;font-style:normal;font-variant:normal;font-weight:normal;font-stretch:normal;font-size:medium;line-height:normal;font-family:sans-serif;font-variant-ligatures:normal;font-variant-position:normal;font-variant-caps:normal;font-variant-numeric:normal;font-variant-alternates:normal;font-feature-settings:normal;text-indent:0;text-align:start;text-decoration:none;text-decoration-line:none;text-decoration-style:solid;text-decoration-color:#000000;letter-spacing:normal;word-spacing:normal;text-transform:none;writing-mode:lr-tb;direction:ltr;text-orientation:mixed;dominant-baseline:auto;baseline-shift:baseline;text-anchor:start;white-space:normal;shape-padding:0;clip-rule:nonzero;display:inline;overflow:visible;visibility:visible;opacity:1;isolation:auto;mix-blend-mode:normal;color-interpolation:sRGB;color-interpolation-filters:linearRGB;solid-color:#000000;solid-opacity:1;vector-effect:none;fill:#000000;fill-opacity:1;fill-rule:nonzero;stroke:none;stroke-width:4.81871223;stroke-linecap:round;stroke-linejoin:miter;stroke-miterlimit:4;stroke-dasharray:none;stroke-dashoffset:0;stroke-opacity:1;color-rendering:auto;image-rendering:auto;shape-rendering:auto;text-rendering:auto;enable-background:accumulate" />
      <path
         id="path5721"
         d="m -119.68945,-640.11719 a 2.4095971,2.4095971 0 0 0 -2.37305,2.44336 v 38.46875 a 2.4095971,2.4095971 0 1 0 4.81836,0 v -38.46875 a 2.4095971,2.4095971 0 0 0 -2.44531,-2.44336 z"
         style="color:#000000;font-style:normal;font-variant:normal;font-weight:normal;font-stretch:normal;font-size:medium;line-height:normal;font-family:sans-serif;font-variant-ligatures:normal;font-variant-position:normal;font-variant-caps:normal;font-variant-numeric:normal;font-variant-alternates:normal;font-feature-settings:normal;text-indent:0;text-align:start;text-decoration:none;text-decoration-line:none;text-decoration-style:solid;text-decoration-color:#000000;letter-spacing:normal;word-spacing:normal;text-transform:none;writing-mode:lr-tb;direction:ltr;text-orientation:mixed;dominant-baseline:auto;baseline-shift:baseline;text-anchor:start;white-space:normal;shape-padding:0;clip-rule:nonzero;display:inline;overflow:visible;visibility:visible;opacity:1;isolation:auto;mix-blend-mode:normal;color-interpolation:sRGB;color-interpolation-filters:linearRGB;solid-color:#000000;solid-opacity:1;vector-effect:none;fill:#000000;fill-opacity:1;fill-rule:nonzero;stroke:none;stroke-width:4.81871223;stroke-linecap:round;stroke-linejoin:miter;stroke-miterlimit:4;stroke-dasharray:none;stroke-dashoffset:0;stroke-opacity:1;color-rendering:auto;image-rendering:auto;shape-rendering:auto;text-rendering:auto;enable-background:accumulate" />
      <path
         id="path5723"
         d="m -142.125,-620.98242 a 2.4095971,2.4095971 0 1 0 0,4.81836 h 22.36914 a 2.4095971,2.4095971 0 1 0 0,-4.81836 z"
         style="color:#000000;font-style:normal;font-variant:normal;font-weight:normal;font-stretch:normal;font-size:medium;line-height:normal;font-family:sans-serif;font-variant-ligatures:normal;font-variant-position:normal;font-variant-caps:normal;font-variant-numeric:normal;font-variant-alternates:normal;font-feature-settings:normal;text-indent:0;text-align:start;text-decoration:none;text-decoration-line:none;text-decoration-style:solid;text-decoration-color:#000000;letter-spacing:normal;word-spacing:normal;text-transform:none;writing-mode:lr-tb;direction:ltr;text-orientation:mixed;dominant-baseline:auto;baseline-shift:baseline;text-anchor:start;white-space:normal;shape-padding:0;clip-rule:nonzero;display:inline;overflow:visible;visibility:visible;opacity:1;isolation:auto;mix-blend-mode:normal;color-interpolation:sRGB;color-interpolation-filters:linearRGB;solid-color:#000000;solid-opacity:1;vector-effect:none;fill:#000000;fill-opacity:1;fill-rule:nonzero;stroke:none;stroke-width:4.81871223;stroke-linecap:round;stroke-linejoin:miter;stroke-miterlimit:4;stroke-dasharray:none;stroke-dashoffset:0;stroke-opacity:1;color-rendering:auto;image-rendering:auto;shape-rendering:auto;text-rendering:auto;enable-background:accumulate" />
      <path
         id="path5725"
         d="m -102.44727,-616.13477 c -3.50379,-0.0289 -5.92566,2.12185 -6.92382,4.05274 -0.99817,1.93089 -1.03711,3.80078 -1.03711,3.80078 a 2.4095971,2.4095971 0 1 0 4.81445,0.18164 c 0,0 0.0659,-0.92215 0.50391,-1.76953 0.43804,-0.84738 0.783,-1.4623 2.60351,-1.44727 1.95239,0.0161 2.44914,0.53689 2.855471,1.13086 0.406331,0.59397 0.577316,1.56656 0.580078,2.20703 0.0068,1.56461 -0.262147,2.23289 -1.542969,4.26563 -3.15963,5.01454 -8.29492,8.29687 -8.29492,8.29687 a 2.4095971,2.4095971 0 0 0 1.27734,4.45118 h 12.419924 a 2.4095971,2.4095971 0 1 0 0,-4.81836 h -5.765624 c 1.515069,-1.49033 3.082735,-3.20503 4.441405,-5.36133 1.459028,-2.31556 2.29383,-4.4005 2.283203,-6.85547 -0.0053,-1.23574 -0.19422,-3.11168 -1.421875,-4.90625 -1.227654,-1.79457 -3.641104,-3.20252 -6.792973,-3.22852 z"
         style="color:#000000;font-style:normal;font-variant:normal;font-weight:normal;font-stretch:normal;font-size:medium;line-height:normal;font-family:sans-serif;font-variant-ligatures:normal;font-variant-position:normal;font-variant-caps:normal;font-variant-numeric:normal;font-variant-alternates:normal;font-feature-settings:normal;text-indent:0;text-align:start;text-decoration:none;text-decoration-line:none;text-decoration-style:solid;text-decoration-color:#000000;letter-spacing:normal;word-spacing:normal;text-transform:none;writing-mode:lr-tb;direction:ltr;text-orientation:mixed;dominant-baseline:auto;baseline-shift:baseline;text-anchor:start;white-space:normal;shape-padding:0;clip-rule:nonzero;display:inline;overflow:visible;visibility:visible;opacity:1;isolation:auto;mix-blend-mode:normal;color-interpolation:sRGB;color-interpolation-filters:linearRGB;solid-color:#000000;solid-opacity:1;vector-effect:none;fill:#000000;fill-opacity:1;fill-rule:nonzero;stroke:none;stroke-width:4.81871223;stroke-linecap:round;stroke-linejoin:round;stroke-miterlimit:4;stroke-dasharray:none;stroke-dashoffset:0;stroke-opacity:1;color-rendering:auto;image-rendering:auto;shape-rendering:auto;text-rendering:auto;enable-background:accumulate" />
    </g>
    <path
       id="rect5733"
       d="m -40.611328,-70.234375 c -1.052282,0 -1.914063,0.861781 -1.914063,1.914063 v 0.705078 c 0,1.052281 0.861781,1.914062 1.914063,1.914062 h 6.601562 c 1.052282,0 1.914063,-0.861781 1.914063,-1.914062 v -0.705078 c 0,-1.052282 -0.861781,-1.914063 -1.914063,-1.914063 z m 0,0.925781 h 6.601562 c 0.555273,0 0.988282,0.433009 0.988282,0.988282 v 0.705078 c 0,0.555272 -0.433009,0.988281 -0.988282,0.988281 h -6.601562 c -0.555272,0 -0.988281,-0.433009 -0.988281,-0.988281 v -0.705078 c 0,-0.555273 0.433009,-0.988282 0.988281,-0.988282 z"
       style="color:#000000;font-style:normal;font-variant:normal;font-weight:normal;font-stretch:normal;font-size:medium;line-height:normal;font-family:sans-serif;font-variant-ligatures:normal;font-variant-position:normal;font-variant-caps:normal;font-variant-numeric:normal;font-variant-alternates:normal;font-feature-settings:normal;text-indent:0;text-align:start;text-decoration:none;text-decoration-line:none;text-decoration-style:solid;text-decoration-color:#000000;letter-spacing:normal;word-spacing:normal;text-transform:none;writing-mode:lr-tb;direction:ltr;text-orientation:mixed;dominant-baseline:auto;baseline-shift:baseline;text-anchor:start;white-space:normal;shape-padding:0;clip-rule:nonzero;display:inline;overflow:visible;visibility:visible;opacity:1;isolation:auto;mix-blend-mode:normal;color-interpolation:sRGB;color-interpolation-filters:linearRGB;solid-color:#000000;solid-opacity:1;vector-effect:none;fill:#000000;fill-opacity:1;fill-rule:nonzero;stroke:none;stroke-width:0.92604166;stroke-linecap:round;stroke-linejoin:round;stroke-miterlimit:4;stroke-dasharray:none;stroke-dashoffset:0;stroke-opacity:1;paint-order:normal;color-rendering:auto;image-rendering:auto;shape-rendering:auto;text-rendering:auto;enable-background:accumulate" />
    <path
       id="path5735"
       d="m -24.232422,-70.990234 a 0.46306713,0.46306713 0 0 0 -0.242187,0.855468 c 0,0 2.070433,1.392441 1.982421,3.390625 -0.05239,1.189509 -0.0564,4.164302 -0.04687,6.861329 0.0048,1.348513 0.01231,2.621981 0.02148,3.558593 0.0046,0.468306 0.0093,0.852249 0.01367,1.119141 0.0022,0.133446 0.0038,0.237579 0.0059,0.310547 0.001,0.03648 0.0026,0.06508 0.0039,0.08984 1.16e-4,0.0022 -1.09e-4,0.0057 0,0.0078 1.53e-4,0.002 0.01547,0.18332 -0.205078,0.439453 -0.221727,0.257505 -0.707717,0.587891 -1.923828,0.587891 -1.211627,0 -1.737227,-0.343979 -1.998047,-0.632813 -0.26082,-0.288833 -0.265625,-0.511719 -0.265625,-0.511718 v -7.455079 c 0,-0.629741 -0.218877,-1.148965 -0.548828,-1.511718 -0.329951,-0.362754 -0.748302,-0.574004 -1.142578,-0.703125 -0.788552,-0.258243 -1.542969,-0.207032 -1.542969,-0.207032 a 0.46306713,0.46306713 0 1 0 0.05273,0.923828 c 0,0 0.619084,-0.0272 1.203125,0.164063 0.29202,0.09563 0.559369,0.242172 0.74414,0.445313 0.184772,0.20314 0.308594,0.458872 0.308594,0.888671 v 7.50586 l 0.002,0.01758 c 0,0 0.05219,0.564432 0.501953,1.0625 0.449762,0.498068 1.287748,0.939453 2.685547,0.939453 1.393315,0 2.203751,-0.416713 2.626953,-0.908203 0.306534,-0.355997 0.285031,-0.575361 0.310547,-0.765625 8.04e-4,4.9e-5 0.01758,0.002 0.01758,0.002 l -0.01563,-0.0059 c 0.0093,-0.0706 0.117188,-0.28711 0.117188,-0.28711 l -0.01172,-1.298828 -0.01172,0.01367 c -9.84e-4,-0.09187 -9.74e-4,-0.138316 -0.002,-0.238281 -0.0092,-0.934146 -0.01673,-2.20812 -0.02148,-3.554688 -0.0095,-2.693136 -0.0026,-5.693546 0.04687,-6.816406 0.115688,-2.626553 -2.404297,-4.208984 -2.404297,-4.208984 a 0.46306713,0.46306713 0 0 0 -0.261719,-0.07813 z"
       style="color:#000000;font-style:normal;font-variant:normal;font-weight:normal;font-stretch:normal;font-size:medium;line-height:normal;font-family:sans-serif;font-variant-ligatures:normal;font-variant-position:normal;font-variant-caps:normal;font-variant-numeric:normal;font-variant-alternates:normal;font-feature-settings:normal;text-indent:0;text-align:start;text-decoration:none;text-decoration-line:none;text-decoration-style:solid;text-decoration-color:#000000;letter-spacing:normal;word-spacing:normal;text-transform:none;writing-mode:lr-tb;direction:ltr;text-orientation:mixed;dominant-baseline:auto;baseline-shift:baseline;text-anchor:start;white-space:normal;shape-padding:0;clip-rule:nonzero;display:inline;overflow:visible;visibility:visible;opacity:1;isolation:auto;mix-blend-mode:normal;color-interpolation:sRGB;color-interpolation-filters:linearRGB;solid-color:#000000;solid-opacity:1;vector-effect:none;fill:#000000;fill-opacity:1;fill-rule:nonzero;stroke:none;stroke-width:0.92604166;stroke-linecap:round;stroke-linejoin:miter;stroke-miterlimit:4;stroke-dasharray:none;stroke-dashoffset:0;stroke-opacity:1;color-rendering:auto;image-rendering:auto;shape-rendering:auto;text-rendering:auto;enable-background:accumulate" />
    <path
       id="path5737"
       d="m -23.798828,-68.105469 c -1.177393,0 -2.140625,0.963233 -2.140625,2.140625 0,1.177393 0.963232,2.142578 2.140625,2.142578 1.177393,0 2.142578,-0.965185 2.142578,-2.142578 0,-1.177392 -0.965185,-2.140625 -2.142578,-2.140625 z m 0,0.925781 c 0.676923,0 1.216797,0.537922 1.216797,1.214844 0,0.676923 -0.539874,1.216797 -1.216797,1.216797 -0.676923,0 -1.214844,-0.539874 -1.214844,-1.216797 0,-0.676922 0.537921,-1.214844 1.214844,-1.214844 z"
       style="color:#000000;font-style:normal;font-variant:normal;font-weight:normal;font-stretch:normal;font-size:medium;line-height:normal;font-family:sans-serif;font-variant-ligatures:normal;font-variant-position:normal;font-variant-caps:normal;font-variant-numeric:normal;font-variant-alternates:normal;font-feature-settings:normal;text-indent:0;text-align:start;text-decoration:none;text-decoration-line:none;text-decoration-style:solid;text-decoration-color:#000000;letter-spacing:normal;word-spacing:normal;text-transform:none;writing-mode:lr-tb;direction:ltr;text-orientation:mixed;dominant-baseline:auto;baseline-shift:baseline;text-anchor:start;white-space:normal;shape-padding:0;clip-rule:nonzero;display:inline;overflow:visible;visibility:visible;opacity:1;isolation:auto;mix-blend-mode:normal;color-interpolation:sRGB;color-interpolation-filters:linearRGB;solid-color:#000000;solid-opacity:1;vector-effect:none;fill:#000000;fill-opacity:1;fill-rule:nonzero;stroke:none;stroke-width:0.92604166;stroke-linecap:round;stroke-linejoin:round;stroke-miterlimit:4;stroke-dasharray:none;stroke-dashoffset:0;stroke-opacity:1;paint-order:normal;color-rendering:auto;image-rendering:auto;shape-rendering:auto;text-rendering:auto;enable-background:accumulate" />
    <path
       id="path5715"
       d="m -42.115234,-72.927734 c -1.259746,0 -2.029618,0.718812 -2.38086,1.394531 -0.351241,0.675719 -0.371094,1.339844 -0.371094,1.339844 v 0.0098 19.296875 h 0.925782 V -70.15625 c 0,0 0.02398,-0.48059 0.267578,-0.949219 C -43.430233,-71.574097 -43.053575,-72 -42.115234,-72 h 9.75 c 0.854764,0 1.173135,0.372046 1.384765,0.785156 0.211631,0.41311 0.228516,0.839844 0.228516,0.839844 v 19.599609 h 0.925781 v -19.617187 -0.0059 c 0,0 -0.0097,-0.612897 -0.330078,-1.238281 -0.320375,-0.625384 -1.037768,-1.291015 -2.208984,-1.291015 z"
       style="color:#000000;font-style:normal;font-variant:normal;font-weight:normal;font-stretch:normal;font-size:medium;line-height:normal;font-family:sans-serif;font-variant-ligatures:normal;font-variant-position:normal;font-variant-caps:normal;font-variant-numeric:normal;font-variant-alternates:normal;font-feature-settings:normal;text-indent:0;text-align:start;text-decoration:none;text-decoration-line:none;text-decoration-style:solid;text-decoration-color:#000000;letter-spacing:normal;word-spacing:normal;text-transform:none;writing-mode:lr-tb;direction:ltr;text-orientation:mixed;dominant-baseline:auto;baseline-shift:baseline;text-anchor:start;white-space:normal;shape-padding:0;clip-rule:nonzero;display:inline;overflow:visible;visibility:visible;opacity:1;isolation:auto;mix-blend-mode:normal;color-interpolation:sRGB;color-interpolation-filters:linearRGB;solid-color:#000000;solid-opacity:1;vector-effect:none;fill:#000000;fill-opacity:1;fill-rule:nonzero;stroke:none;stroke-width:0.92604166;stroke-linecap:butt;stroke-linejoin:miter;stroke-miterlimit:4;stroke-dasharray:none;stroke-dashoffset:0;stroke-opacity:1;color-rendering:auto;image-rendering:auto;shape-rendering:auto;text-rendering:auto;enable-background:accumulate" />
    <path
       id="path5717"
       d="m -45.292969,-51.052734 a 0.46306713,0.46306713 0 1 0 0,0.925781 h 15.892578 a 0.46306713,0.46306713 0 1 0 0,-0.925781 z"
       style="color:#000000;font-style:normal;font-variant:normal;font-weight:normal;font-stretch:normal;font-size:medium;line-height:normal;font-family:sans-serif;font-variant-ligatures:normal;font-variant-position:normal;font-variant-caps:normal;font-variant-numeric:normal;font-variant-alternates:normal;font-feature-settings:normal;text-indent:0;text-align:start;text-decoration:none;text-decoration-line:none;text-decoration-style:solid;text-decoration-color:#000000;letter-spacing:normal;word-spacing:normal;text-transform:none;writing-mode:lr-tb;direction:ltr;text-orientation:mixed;dominant-baseline:auto;baseline-shift:baseline;text-anchor:start;white-space:normal;shape-padding:0;clip-rule:nonzero;display:inline;overflow:visible;visibility:visible;opacity:1;isolation:auto;mix-blend-mode:normal;color-interpolation:sRGB;color-interpolation-filters:linearRGB;solid-color:#000000;solid-opacity:1;vector-effect:none;fill:#000000;fill-opacity:1;fill-rule:nonzero;stroke:none;stroke-width:0.92604166;stroke-linecap:round;stroke-linejoin:miter;stroke-miterlimit:4;stroke-dasharray:none;stroke-dashoffset:0;stroke-opacity:1;color-rendering:auto;image-rendering:auto;shape-rendering:auto;text-rendering:auto;enable-background:accumulate" />
  </g>
</svg>
