<?xml version="1.0" encoding="UTF-8" standalone="no"?>
<svg
   xmlns:dc="http://purl.org/dc/elements/1.1/"
   xmlns:cc="http://creativecommons.org/ns#"
   xmlns:rdf="http://www.w3.org/1999/02/22-rdf-syntax-ns#"
   xmlns:svg="http://www.w3.org/2000/svg"
   xmlns="http://www.w3.org/2000/svg"
   id="svg16931"
   version="1.1"
   viewBox="0 0 26.458334 26.458334"
   height="26.458334mm"
   width="26.458334mm">
  <defs
     id="defs16925" />
  <metadata
     id="metadata16928">
    <rdf:RDF>
      <cc:Work
         rdf:about="">
        <dc:format>image/svg+xml</dc:format>
        <dc:type
           rdf:resource="http://purl.org/dc/dcmitype/StillImage" />
        <dc:title></dc:title>
      </cc:Work>
    </rdf:RDF>
  </metadata>
  <g
     transform="translate(141.57585,-103.67861)"
     id="layer1">
    <g
       transform="matrix(0.26965074,0,0,0.26965074,-141.87997,102.77783)"
       id="g4955"
       style="display:inline;opacity:1;fill:#000000">
      <path
         d="M 87.002,19 C 89.207,19 91,20.793 91,22.998 V 79.002 C 91,81.206 89.207,83 87.002,83 H 12.998 C 10.793,83 9,81.206 9,79.002 V 22.998 C 9,20.793 10.793,19 12.998,19 h 74.004 m 0,-4 H 12.998 C 8.599,15 5,18.599 5,22.998 V 79.002 C 5,83.401 8.599,87 12.998,87 H 87.002 C 91.4,87 95,83.401 95,79.002 V 22.998 C 95,18.599 91.4,15 87.002,15 Z"
         id="path4923" />
      <path
         d="M 38,32 C 48.477,32 57,40.523 57,51 57,61.478 48.477,70 38,70 27.523,70 19,61.478 19,51.001 19,40.524 27.524,32 38,32 m 0,-4 C 25.296,28 15,38.296 15,51 15,63.705 25.297,74 38,74 50.704,74 61,63.705 61,51.001 61,38.296 50.705,28 38,28 Z"
         id="path4925" />
      <path
         d="m 43.562,50.255 c -0.694,0 -1.41,0.048 -2.132,0.123 -0.149,-0.806 -0.567,-1.515 -1.167,-2.028 4.693,-6.482 4.741,-14.184 -2.262,-14.184 -7.003,0 -6.955,7.702 -2.262,14.184 -0.6,0.513 -1.018,1.222 -1.167,2.028 -0.722,-0.075 -1.437,-0.123 -2.131,-0.123 -6.959,0 -12.201,3.65 -9.019,9.162 1.202,2.082 2.774,2.99 4.454,2.99 3.211,0 6.81,-3.326 8.956,-8.122 0.367,0.132 0.757,0.216 1.169,0.216 0.413,0 0.802,-0.084 1.169,-0.216 2.146,4.796 5.744,8.123 8.956,8.123 1.679,0 3.252,-0.909 4.454,-2.99 3.182,-5.513 -2.059,-9.163 -9.018,-9.163 z m -15.687,8.152 c -0.388,0 -0.856,-0.758 -0.99,-0.99 -0.134,-0.232 -0.556,-1.016 -0.363,-1.352 0.431,-0.745 2.524,-1.793 5.839,-1.811 -1.592,2.714 -3.542,4.153 -4.486,4.153 z M 38,44.5 C 36.551,41.968 36.167,39.67 36.597,38.632 36.65,38.505 36.79,38.166 38,38.166 c 1.21,0 1.35,0.338 1.403,0.466 0.43,1.038 0.047,3.336 -1.403,5.868 z m 11.115,12.918 c -0.134,0.232 -0.602,0.99 -0.989,0.99 -0.943,0 -2.894,-1.44 -4.487,-4.153 3.315,0.017 5.408,1.064 5.839,1.811 0.194,0.335 -0.228,1.12 -0.363,1.352 z"
         id="path4927" />
      <path
         d="M 83,33 H 68 c -1.104,0 -2,-0.896 -2,-2 0,-1.104 0.896,-2 2,-2 h 15 c 1.105,0 2,0.896 2,2 0,1.104 -0.895,2 -2,2 z"
         id="path4929" />
      <path
         d="M 83,43.125 H 68 c -1.104,0 -2,-0.896 -2,-2 0,-1.104 0.896,-2 2,-2 h 15 c 1.105,0 2,0.896 2,2 0,1.104 -0.895,2 -2,2 z"
         id="path4931" />
      <path
         d="M 83,53 H 68 c -1.104,0 -2,-0.896 -2,-2 0,-1.105 0.896,-2 2,-2 h 15 c 1.105,0 2,0.895 2,2 0,1.104 -0.895,2 -2,2 z"
         id="path4933" />
      <path
         d="M 83,63 H 68 c -1.104,0 -2,-0.896 -2,-2 0,-1.105 0.896,-2 2,-2 h 15 c 1.105,0 2,0.895 2,2 0,1.104 -0.895,2 -2,2 z"
         id="path4935" />
      <path
         d="M 83,73 H 68 c -1.104,0 -2,-0.896 -2,-2 0,-1.105 0.896,-2 2,-2 h 15 c 1.105,0 2,0.895 2,2 0,1.104 -0.895,2 -2,2 z"
         id="path4937" />
    </g>
  </g>
</svg>
