<?xml version="1.0" encoding="UTF-8" standalone="no"?>
<svg
   xmlns:dc="http://purl.org/dc/elements/1.1/"
   xmlns:cc="http://creativecommons.org/ns#"
   xmlns:rdf="http://www.w3.org/1999/02/22-rdf-syntax-ns#"
   xmlns:svg="http://www.w3.org/2000/svg"
   xmlns="http://www.w3.org/2000/svg"
   id="svg27459"
   version="1.1"
   viewBox="0 0 26.458334 26.458334"
   height="26.458334mm"
   width="26.458334mm">
  <defs
     id="defs27453" />
  <metadata
     id="metadata27456">
    <rdf:RDF>
      <cc:Work
         rdf:about="">
        <dc:format>image/svg+xml</dc:format>
        <dc:type
           rdf:resource="http://purl.org/dc/dcmitype/StillImage" />
        <dc:title></dc:title>
      </cc:Work>
    </rdf:RDF>
  </metadata>
  <g
     transform="translate(140.22917,-143.91965)"
     id="layer1">
    <path
       id="path5642"
       d="m -128.34865,144.31071 c -0.10545,-0.004 -0.2092,0.0276 -0.29404,0.0904 l -3.40031,2.52236 v -1.31723 c 2.6e-4,-0.25571 -0.20679,-0.46323 -0.4625,-0.46355 h -2.21951 c -0.25591,3e-5 -0.46329,0.20764 -0.46302,0.46355 v 3.65042 l -1.8433,1.36736 c -0.11794,0.0873 -0.18753,0.22532 -0.18759,0.37205 v 13.9206 c -2.6e-4,0.25592 0.20711,0.46352 0.46303,0.46354 h 14.54898 v 3.8437 c 3.2e-4,0.2555 0.20751,0.46247 0.46302,0.4625 h 3.55017 c 0.25531,-3.2e-4 0.4622,-0.2072 0.4625,-0.4625 v -5.62395 c 0.15779,-0.0165 0.19783,8.7e-4 0.40928,-0.0605 0.22479,-0.0653 0.4678,-0.16273 0.68368,-0.34933 0.21589,-0.18661 0.39223,-0.49591 0.39223,-0.84336 v -3.67523 c 0,0 0.0162,-0.37742 -0.17519,-0.76998 -0.19135,-0.39256 -0.67856,-0.81545 -1.39836,-0.81545 h -1.27072 c -0.26002,2.3e-4 -0.46887,0.21445 -0.46251,0.47439 0,0 -0.004,0.11494 -0.0522,0.21394 -0.0483,0.099 -0.0527,0.16691 -0.34054,0.16691 -0.28462,0 -0.33218,-0.0883 -0.40102,-0.2067 -0.0688,-0.1184 -0.0837,-0.2403 -0.0837,-0.2403 -0.0193,-0.24267 -0.2232,-0.42897 -0.46663,-0.42633 0,0 -0.84142,0.009 -1.25419,0.009 -0.6843,0 -1.14435,0.44949 -1.32447,0.83819 -0.18012,0.38871 -0.17932,0.75861 -0.17932,0.75861 -10e-6,0.002 -10e-6,0.004 0,0.006 v 3.68298 c 0,0.36421 0.15357,0.69382 0.37466,0.89917 0.22108,0.20534 0.47923,0.29967 0.71055,0.35192 0.18984,0.0429 0.21317,0.0152 0.36277,0.0181 v 0.82167 h -14.08649 v -13.22452 l 7.92665,-5.87922 7.90649,5.87821 v 1.55645 c -0.9026,0.18173 -1.58905,0.9843 -1.58905,1.9379 0,1.08612 0.8905,1.97661 1.97663,1.97661 1.08612,0 1.97662,-0.89049 1.97662,-1.97661 0,-0.89954 -0.61178,-1.66321 -1.43867,-1.89962 v -1.8273 c -1e-5,-0.1461 -0.069,-0.28363 -0.18604,-0.37103 l -8.36951,-6.22287 c -0.0749,-0.0559 -0.165,-0.0877 -0.25838,-0.0915 z m -5.91386,1.75803 h 1.29398 v 1.5415 l -1.29398,0.95965 z m 14.18984,7.60315 c 0.58565,0 1.05058,0.46545 1.05058,1.0511 0,0.58566 -0.46493,1.05057 -1.05058,1.05057 -0.58566,0 -1.05007,-0.46491 -1.05007,-1.05057 0,-0.58565 0.46441,-1.0511 1.05007,-1.0511 z m -1.14154,4.3248 c 0.0303,0.0914 0.007,0.10142 0.0667,0.20412 0.18519,0.31853 0.60976,0.66662 1.202,0.66662 0.58901,0 1.01276,-0.35853 1.17305,-0.68729 0.0419,-0.0859 0.0169,-0.0894 0.0382,-0.16795 h 0.91467 c 0.41868,0 0.48653,0.13234 0.56586,0.29507 0.0793,0.16273 0.0817,0.34106 0.0817,0.34106 -5e-5,0.004 -5e-5,0.008 0,0.0114 v 3.68712 c 0,0.0786 -0.009,0.0892 -0.0713,0.14314 -0.0624,0.054 -0.19061,0.11772 -0.33693,0.1602 -0.29263,0.085 -0.61495,0.0904 -0.61495,0.0904 -0.2551,8.7e-4 -0.46144,0.20792 -0.46147,0.46302 v 5.55728 h -2.62465 v -5.56245 c -3.9e-4,-0.278 -0.24396,-0.49298 -0.51986,-0.45888 0,0 -0.30304,0.0306 -0.56431,-0.0284 -0.13063,-0.0295 -0.23487,-0.0808 -0.28525,-0.12765 -0.0504,-0.0468 -0.078,-0.0755 -0.078,-0.22014 v -3.67678 c 0,0 0.009,-0.20055 0.093,-0.38188 0.084,-0.18134 0.14363,-0.30128 0.48472,-0.30128 0.31616,0 0.67752,-0.004 0.9369,-0.007 z"
       style="color:#000000;font-style:normal;font-variant:normal;font-weight:normal;font-stretch:normal;font-size:medium;line-height:normal;font-family:sans-serif;font-variant-ligatures:normal;font-variant-position:normal;font-variant-caps:normal;font-variant-numeric:normal;font-variant-alternates:normal;font-feature-settings:normal;text-indent:0;text-align:start;text-decoration:none;text-decoration-line:none;text-decoration-style:solid;text-decoration-color:#000000;letter-spacing:normal;word-spacing:normal;text-transform:none;writing-mode:lr-tb;direction:ltr;text-orientation:mixed;dominant-baseline:auto;baseline-shift:baseline;text-anchor:start;white-space:normal;shape-padding:0;clip-rule:nonzero;display:inline;overflow:visible;visibility:visible;opacity:1;isolation:auto;mix-blend-mode:normal;color-interpolation:sRGB;color-interpolation-filters:linearRGB;solid-color:#000000;solid-opacity:1;vector-effect:none;fill:#000000;fill-opacity:1;fill-rule:nonzero;stroke:none;stroke-width:0.92604166;stroke-linecap:round;stroke-linejoin:round;stroke-miterlimit:4;stroke-dasharray:none;stroke-dashoffset:0;stroke-opacity:1;paint-order:normal;color-rendering:auto;image-rendering:auto;shape-rendering:auto;text-rendering:auto;enable-background:accumulate" />
    <g
       id="g5650"
       transform="matrix(0.44097223,0,0,0.44097223,-198.88987,437.52732)"
       style="fill:#000000">
      <path
         id="path5644"
         d="m 152.64062,-643.92188 a 1.050105,1.050105 0 0 0 -0.17578,0.0176 c 0,0 -0.76204,0.12901 -1.53711,0.65039 -0.77506,0.52139 -1.6436,1.49498 -1.99414,3.01758 -0.35764,1.55352 0.26997,2.78067 0.92188,3.57422 0.65191,0.79355 1.26481,1.37253 1.6543,2.57031 0.33812,1.03984 -0.0182,1.51305 -0.53321,1.9961 -0.51498,0.48305 -1.15039,0.73047 -1.15039,0.73047 a 1.050105,1.050105 0 1 0 0.72071,1.9707 c 0,0 0.98974,-0.34689 1.86718,-1.16992 0.87745,-0.82304 1.68169,-2.36769 1.09375,-4.17578 -0.53657,-1.65015 -1.49159,-2.59938 -2.02929,-3.25391 -0.53771,-0.65453 -0.72273,-0.79553 -0.49805,-1.77148 0.2318,-1.00686 0.70281,-1.46604 1.11914,-1.7461 0.41633,-0.28006 0.69922,-0.32031 0.69922,-0.32031 a 1.050105,1.050105 0 0 0 -0.15821,-2.08985 z"
         style="color:#000000;font-style:normal;font-variant:normal;font-weight:normal;font-stretch:normal;font-size:medium;line-height:normal;font-family:sans-serif;font-variant-ligatures:normal;font-variant-position:normal;font-variant-caps:normal;font-variant-numeric:normal;font-variant-alternates:normal;font-feature-settings:normal;text-indent:0;text-align:start;text-decoration:none;text-decoration-line:none;text-decoration-style:solid;text-decoration-color:#000000;letter-spacing:normal;word-spacing:normal;text-transform:none;writing-mode:lr-tb;direction:ltr;text-orientation:mixed;dominant-baseline:auto;baseline-shift:baseline;text-anchor:start;white-space:normal;shape-padding:0;clip-rule:nonzero;display:inline;overflow:visible;visibility:visible;opacity:1;isolation:auto;mix-blend-mode:normal;color-interpolation:sRGB;color-interpolation-filters:linearRGB;solid-color:#000000;solid-opacity:1;vector-effect:none;fill:#000000;fill-opacity:1;fill-rule:nonzero;stroke:none;stroke-width:2.0999999;stroke-linecap:round;stroke-linejoin:miter;stroke-miterlimit:4;stroke-dasharray:none;stroke-dashoffset:0;stroke-opacity:1;color-rendering:auto;image-rendering:auto;shape-rendering:auto;text-rendering:auto;enable-background:accumulate" />
      <path
         id="path5646"
         d="m 158.64062,-643.92188 a 1.050105,1.050105 0 0 0 -0.17578,0.0176 c 0,0 -0.76204,0.12901 -1.53711,0.65039 -0.77506,0.52139 -1.6436,1.49498 -1.99414,3.01758 -0.35764,1.55352 0.26997,2.78067 0.92188,3.57422 0.65191,0.79355 1.26481,1.37253 1.6543,2.57031 0.33812,1.03984 -0.0182,1.51305 -0.53321,1.9961 -0.51498,0.48305 -1.15039,0.73047 -1.15039,0.73047 a 1.050105,1.050105 0 1 0 0.72071,1.9707 c 0,0 0.98974,-0.34689 1.86718,-1.16992 0.87745,-0.82304 1.68169,-2.36769 1.09375,-4.17578 -0.53657,-1.65015 -1.49159,-2.59938 -2.02929,-3.25391 -0.53771,-0.65453 -0.72273,-0.79553 -0.49805,-1.77148 0.2318,-1.00686 0.70281,-1.46604 1.11914,-1.7461 0.41633,-0.28006 0.69922,-0.32031 0.69922,-0.32031 a 1.050105,1.050105 0 0 0 -0.15821,-2.08985 z"
         style="color:#000000;font-style:normal;font-variant:normal;font-weight:normal;font-stretch:normal;font-size:medium;line-height:normal;font-family:sans-serif;font-variant-ligatures:normal;font-variant-position:normal;font-variant-caps:normal;font-variant-numeric:normal;font-variant-alternates:normal;font-feature-settings:normal;text-indent:0;text-align:start;text-decoration:none;text-decoration-line:none;text-decoration-style:solid;text-decoration-color:#000000;letter-spacing:normal;word-spacing:normal;text-transform:none;writing-mode:lr-tb;direction:ltr;text-orientation:mixed;dominant-baseline:auto;baseline-shift:baseline;text-anchor:start;white-space:normal;shape-padding:0;clip-rule:nonzero;display:inline;overflow:visible;visibility:visible;opacity:1;isolation:auto;mix-blend-mode:normal;color-interpolation:sRGB;color-interpolation-filters:linearRGB;solid-color:#000000;solid-opacity:1;vector-effect:none;fill:#000000;fill-opacity:1;fill-rule:nonzero;stroke:none;stroke-width:2.0999999;stroke-linecap:round;stroke-linejoin:miter;stroke-miterlimit:4;stroke-dasharray:none;stroke-dashoffset:0;stroke-opacity:1;color-rendering:auto;image-rendering:auto;shape-rendering:auto;text-rendering:auto;enable-background:accumulate" />
      <path
         id="path5648"
         d="m 164.64062,-643.92188 a 1.050105,1.050105 0 0 0 -0.17578,0.0176 c 0,0 -0.76204,0.12901 -1.53711,0.65039 -0.77506,0.52139 -1.6436,1.49498 -1.99414,3.01758 -0.35764,1.55352 0.26997,2.78067 0.92188,3.57422 0.65191,0.79355 1.26481,1.37253 1.6543,2.57031 0.33812,1.03984 -0.0182,1.51305 -0.53321,1.9961 -0.51498,0.48305 -1.15039,0.73047 -1.15039,0.73047 a 1.050105,1.050105 0 1 0 0.72071,1.9707 c 0,0 0.98974,-0.34689 1.86718,-1.16992 0.87745,-0.82304 1.68169,-2.36769 1.09375,-4.17578 -0.53657,-1.65015 -1.49159,-2.59938 -2.02929,-3.25391 -0.53771,-0.65453 -0.72273,-0.79553 -0.49805,-1.77148 0.2318,-1.00686 0.70281,-1.46604 1.11914,-1.7461 0.41633,-0.28006 0.69922,-0.32031 0.69922,-0.32031 a 1.050105,1.050105 0 0 0 -0.15821,-2.08985 z"
         style="color:#000000;font-style:normal;font-variant:normal;font-weight:normal;font-stretch:normal;font-size:medium;line-height:normal;font-family:sans-serif;font-variant-ligatures:normal;font-variant-position:normal;font-variant-caps:normal;font-variant-numeric:normal;font-variant-alternates:normal;font-feature-settings:normal;text-indent:0;text-align:start;text-decoration:none;text-decoration-line:none;text-decoration-style:solid;text-decoration-color:#000000;letter-spacing:normal;word-spacing:normal;text-transform:none;writing-mode:lr-tb;direction:ltr;text-orientation:mixed;dominant-baseline:auto;baseline-shift:baseline;text-anchor:start;white-space:normal;shape-padding:0;clip-rule:nonzero;display:inline;overflow:visible;visibility:visible;opacity:1;isolation:auto;mix-blend-mode:normal;color-interpolation:sRGB;color-interpolation-filters:linearRGB;solid-color:#000000;solid-opacity:1;vector-effect:none;fill:#000000;fill-opacity:1;fill-rule:nonzero;stroke:none;stroke-width:2.0999999;stroke-linecap:round;stroke-linejoin:miter;stroke-miterlimit:4;stroke-dasharray:none;stroke-dashoffset:0;stroke-opacity:1;color-rendering:auto;image-rendering:auto;shape-rendering:auto;text-rendering:auto;enable-background:accumulate" />
    </g>
  </g>
</svg>
