<?xml version="1.0" encoding="UTF-8" standalone="no"?>
<svg
   xmlns:dc="http://purl.org/dc/elements/1.1/"
   xmlns:cc="http://creativecommons.org/ns#"
   xmlns:rdf="http://www.w3.org/1999/02/22-rdf-syntax-ns#"
   xmlns:svg="http://www.w3.org/2000/svg"
   xmlns="http://www.w3.org/2000/svg"
   id="svg1275"
   version="1.1"
   viewBox="0 0 26.458334 26.458334"
   height="26.458334mm"
   width="26.458334mm">
  <defs
     id="defs1269" />
  <metadata
     id="metadata1272">
    <rdf:RDF>
      <cc:Work
         rdf:about="">
        <dc:format>image/svg+xml</dc:format>
        <dc:type
           rdf:resource="http://purl.org/dc/dcmitype/StillImage" />
        <dc:title></dc:title>
      </cc:Work>
    </rdf:RDF>
  </metadata>
  <g
     transform="translate(122.84226,-183.98512)"
     id="layer1">
    <path
       id="path2-5-6"
       d="m -117.77435,189.48197 c -0.24253,0 -0.44132,0.19878 -0.44132,0.44131 v 2.17816 c 0,0.24254 0.19879,0.4408 0.44132,0.4408 h 0.52916 v 9.6883 h -0.52916 c -0.24253,0 -0.44132,0.19878 -0.44132,0.44132 v 2.17816 c 0,0.24253 0.19879,0.4408 0.44132,0.4408 h 16.42174 c 0.24253,0 0.4408,-0.19827 0.4408,-0.4408 v -2.17816 c 0,-0.24254 -0.19827,-0.44132 -0.4408,-0.44132 h -0.52917 v -9.6883 h 0.52917 c 0.24253,0 0.4408,-0.19826 0.4408,-0.4408 v -2.17816 c 0,-0.24253 -0.19827,-0.44131 -0.4408,-0.44131 z m 0.4408,0.87746 h 15.53962 v 1.29656 h -0.52917 -14.48128 -0.52917 z m 0.96996,2.18281 h 13.59969 v 9.6883 h -13.59969 z m 6.79029,0.54157 a 0.46306714,0.46306714 0 0 0 -0.4563,0.47026 v 0.72192 a 0.46306714,0.46306714 0 1 0 0.92604,0 v -0.72192 a 0.46306714,0.46306714 0 0 0 -0.46974,-0.47026 z m -2.68511,1.11518 a 0.46306714,0.46306714 0 0 0 -0.32298,0.7953 l 0.51057,0.51057 a 0.46315498,0.46315498 0 1 0 0.65474,-0.65526 l -0.51005,-0.51005 a 0.46306714,0.46306714 0 0 0 -0.33228,-0.14056 z m 5.3697,0 a 0.46306714,0.46306714 0 0 0 -0.31781,0.14056 l -0.51056,0.51005 a 0.46315498,0.46315498 0 1 0 0.65474,0.65526 l 0.51056,-0.51057 a 0.46306714,0.46306714 0 0 0 -0.33693,-0.7953 z m -2.70423,1.06402 c -1.13969,0 -2.07326,0.93408 -2.07326,2.07377 0,1.1397 0.93357,2.07326 2.07326,2.07326 1.1397,0 2.07378,-0.93356 2.07378,-2.07326 0,-1.13969 -0.93408,-2.07377 -2.07378,-2.07377 z m 0,0.92656 c 0.63923,0 1.14825,0.50799 1.14825,1.14721 0,0.63923 -0.50902,1.14722 -1.14825,1.14722 -0.63922,0 -1.14721,-0.50799 -1.14721,-1.14722 0,-0.63922 0.50799,-1.14721 1.14721,-1.14721 z m -3.77393,0.70176 a 0.46306714,0.46306714 0 1 0 0,0.92604 h 0.7214 a 0.46306714,0.46306714 0 1 0 0,-0.92604 z m 6.87865,0 a 0.46306714,0.46306714 0 1 0 0,0.92604 h 0.72192 a 0.46306714,0.46306714 0 1 0 0,-0.92604 z m -5.26479,2.17248 a 0.46306714,0.46306714 0 0 0 -0.31781,0.14004 l -0.51057,0.51005 a 0.46345872,0.46345872 0 1 0 0.65526,0.65526 l 0.51005,-0.51057 a 0.46306714,0.46306714 0 0 0 -0.33693,-0.79478 z m 4.3589,0 a 0.46306714,0.46306714 0 0 0 -0.32297,0.79478 l 0.51056,0.51057 a 0.46315498,0.46315498 0 0 0 0.65474,-0.65526 l -0.51056,-0.51005 a 0.46306714,0.46306714 0 0 0 -0.33177,-0.14004 z m -2.17919,0.89969 a 0.46306714,0.46306714 0 0 0 -0.4563,0.46974 v 0.7214 a 0.46306714,0.46306714 0 1 0 0.92604,0 v -0.7214 a 0.46306714,0.46306714 0 0 0 -0.46974,-0.46974 z m -7.76025,3.14916 h 0.52917 14.48128 0.52917 v 1.29656 h -15.53962 z"
       style="display:inline;opacity:1;fill:#000000;fill-opacity:1;stroke-width:0.44097224" />
  </g>
</svg>
