<?xml version="1.0" encoding="UTF-8" standalone="no"?>
<svg
   xmlns:dc="http://purl.org/dc/elements/1.1/"
   xmlns:cc="http://creativecommons.org/ns#"
   xmlns:rdf="http://www.w3.org/1999/02/22-rdf-syntax-ns#"
   xmlns:svg="http://www.w3.org/2000/svg"
   xmlns="http://www.w3.org/2000/svg"
   id="svg2053"
   version="1.1"
   viewBox="0 0 26.458334 26.458334"
   height="26.458334mm"
   width="26.458334mm">
  <defs
     id="defs2047" />
  <metadata
     id="metadata2050">
    <rdf:RDF>
      <cc:Work
         rdf:about="">
        <dc:format>image/svg+xml</dc:format>
        <dc:type
           rdf:resource="http://purl.org/dc/dcmitype/StillImage" />
        <dc:title></dc:title>
      </cc:Work>
    </rdf:RDF>
  </metadata>
  <g
     transform="translate(97.02652,-79.285713)"
     id="layer1">
    <path
       id="path1712"
       d="m -94.881619,84.978785 c -0.242536,0 -0.4408,0.198781 -0.4408,0.441316 v 2.17816 c 0,0.242539 0.198264,0.440805 0.4408,0.440805 h 0.529166 v 9.688296 h -0.529166 c -0.242536,0 -0.4408,0.198782 -0.4408,0.441317 v 2.178161 c 0,0.24253 0.198264,0.4408 0.4408,0.4408 h 16.421737 c 0.242534,0 0.4408,-0.19827 0.4408,-0.4408 v -2.178161 c 0,-0.242535 -0.198266,-0.441317 -0.4408,-0.441317 h -0.529167 v -9.688296 h 0.529167 c 0.242534,0 0.4408,-0.198266 0.4408,-0.440805 v -2.17816 c 0,-0.242535 -0.198266,-0.441316 -0.4408,-0.441316 z m 0.4408,0.877468 h 15.540136 v 1.29656 h -0.529166 -14.481803 -0.529167 z m 0.970483,2.182813 h 13.599171 v 9.688296 h -13.599171 z m 6.29264,0.776177 c -0.207257,0 -0.384026,0.141318 -0.432532,0.344166 l -0.81132,3.620452 c -0.03087,0.132292 1.72e-4,0.269095 0.08837,0.370518 0.08378,0.105833 0.211873,0.167433 0.344165,0.167433 h 0.722953 l -0.348299,3.131075 c -0.02205,0.207257 0.101561,0.401011 0.295589,0.467157 0.04851,0.01764 0.09257,0.02222 0.141077,0.02222 0.14993,0 0.29552,-0.07931 0.379304,-0.216006 l 2.883545,-4.806946 c 0.08379,-0.136705 0.08402,-0.304332 0.0047,-0.445452 -0.07938,-0.141111 -0.225205,-0.220142 -0.383956,-0.220142 h -0.969966 l 0.242362,-1.935798 c 0.01764,-0.123467 -0.02164,-0.251804 -0.10542,-0.348813 -0.08378,-0.09701 -0.202847,-0.149865 -0.330729,-0.149865 z m 0.348299,0.886769 h 0.868681 l -0.242363,1.935797 c -0.01764,0.123472 0.02163,0.251288 0.10542,0.348302 0.08378,0.09701 0.202847,0.14986 0.330729,0.14986 h 0.68833 l -1.437638,2.403471 0.180867,-1.609721 c 0.01323,-0.123472 -0.0268,-0.251561 -0.110587,-0.344166 -0.08379,-0.0926 -0.202847,-0.145212 -0.330729,-0.145212 h -0.665593 z m 14.136605,0.764809 c -0.415548,4.5e-4 -0.620085,0.50583 -0.321944,0.795302 l 0.666625,0.667142 h -4.577498 c -0.62607,-0.0088 -0.62607,0.934813 0,0.926042 h 4.493783 l -0.58291,0.582912 c -0.454468,0.4364 0.218337,1.109204 0.65474,0.654738 2.034764,-1.95486 1.889045,-1.595146 0,-3.485576 -0.08733,-0.08998 -0.207409,-0.140693 -0.332796,-0.14056 z m -21.748027,8.142658 h 0.529167 14.481803 0.529166 v 1.29656 h -15.540136 z"
       style="display:inline;opacity:1;fill:#000000;fill-opacity:1;stroke-width:0.44097224" />
  </g>
</svg>
