<?xml version="1.0" encoding="UTF-8" standalone="no"?>
<svg
   xmlns:dc="http://purl.org/dc/elements/1.1/"
   xmlns:cc="http://creativecommons.org/ns#"
   xmlns:rdf="http://www.w3.org/1999/02/22-rdf-syntax-ns#"
   xmlns:svg="http://www.w3.org/2000/svg"
   xmlns="http://www.w3.org/2000/svg"
   xmlns:sodipodi="http://sodipodi.sourceforge.net/DTD/sodipodi-0.dtd"
   xmlns:inkscape="http://www.inkscape.org/namespaces/inkscape"
   id="svg2850"
   version="1.1"
   viewBox="0 0 26.458334 26.458334"
   height="26.458334mm"
   width="26.458334mm"
   sodipodi:docname="conversion_system-design.svg"
   inkscape:version="0.92.3 (2405546, 2018-03-11)">
  <sodipodi:namedview
     pagecolor="#ffffff"
     bordercolor="#666666"
     borderopacity="1"
     objecttolerance="10"
     gridtolerance="10"
     guidetolerance="10"
     inkscape:pageopacity="0"
     inkscape:pageshadow="2"
     inkscape:window-width="1853"
     inkscape:window-height="1025"
     id="namedview7"
     showgrid="false"
     inkscape:zoom="2.3599999"
     inkscape:cx="203.82808"
     inkscape:cy="50.000001"
     inkscape:window-x="67"
     inkscape:window-y="27"
     inkscape:window-maximized="1"
     inkscape:current-layer="svg2850" />
  <defs
     id="defs2844" />
  <metadata
     id="metadata2847">
    <rdf:RDF>
      <cc:Work
         rdf:about="">
        <dc:format>image/svg+xml</dc:format>
        <dc:type
           rdf:resource="http://purl.org/dc/dcmitype/StillImage" />
        <dc:title />
      </cc:Work>
    </rdf:RDF>
  </metadata>
  <g
     transform="translate(84.288689,136.99226)"
     id="layer1">
    <path
       id="path2-7"
       d="m -75.695989,-131.40333 c -0.242536,0 -0.4408,0.19879 -0.4408,0.44132 v 2.17817 c 0,0.24253 0.198264,0.4408 0.4408,0.4408 h 0.529167 v 9.68829 h -0.529167 c -0.242536,0 -0.4408,0.19878 -0.4408,0.44132 v 2.17816 c 0,0.24254 0.198264,0.4408 0.4408,0.4408 h 16.421737 c 0.242535,0 0.4408,-0.19826 0.4408,-0.4408 v -2.17816 c 0,-0.24254 -0.198265,-0.44132 -0.4408,-0.44132 h -0.529167 v -9.68829 h 0.529167 c 0.242535,0 0.4408,-0.19827 0.4408,-0.4408 v -2.17817 c 0,-0.24253 -0.198265,-0.44132 -0.4408,-0.44132 z m 0.4408,0.87747 h 15.540137 v 1.29656 h -0.529167 -14.481804 -0.529166 z m 0.970483,2.18282 h 13.599171 v 9.68829 h -13.599171 z m 6.29264,0.77617 c -0.207257,0 -0.384025,0.14132 -0.432532,0.34417 l -0.81132,3.62045 c -0.03087,0.13229 1.72e-4,0.2691 0.08837,0.37052 0.08379,0.10583 0.211874,0.16743 0.344166,0.16743 h 0.722953 l -0.348299,3.13108 c -0.02205,0.20725 0.101561,0.40101 0.295589,0.46715 0.04851,0.0176 0.09257,0.0222 0.141077,0.0222 0.14993,0 0.29552,-0.0793 0.379305,-0.216 l 2.883545,-4.80694 c 0.08378,-0.13671 0.08403,-0.30434 0.0047,-0.44545 -0.07937,-0.14111 -0.225205,-0.22014 -0.383956,-0.22014 h -0.969966 l 0.242363,-1.93581 c 0.01764,-0.12346 -0.02163,-0.2518 -0.10542,-0.34881 -0.08379,-0.097 -0.202847,-0.14986 -0.330729,-0.14986 z m 0.348299,0.88677 h 0.868681 l -0.242363,1.9358 c -0.01764,0.12348 0.02164,0.25129 0.10542,0.3483 0.08378,0.097 0.202847,0.14986 0.330729,0.14986 h 0.68833 l -1.437638,2.40347 0.180867,-1.60972 c 0.01323,-0.12347 -0.0268,-0.25156 -0.110587,-0.34416 -0.08378,-0.0926 -0.202847,-0.14521 -0.330729,-0.14521 h -0.665593 z m -10.815877,0.90227 c -0.207774,3e-4 -0.362795,0.12674 -0.428605,0.28931 -0.06581,0.16257 -0.04241,0.36126 0.106661,0.50599 l 0.333312,0.33358 0.333314,0.33357 h -2.28875 -2.288749 c -0.313077,-0.004 -0.469615,0.22929 -0.469615,0.46302 0,0.23372 0.156538,0.46744 0.469615,0.46302 h 2.246891 2.246891 l -0.291455,0.29145 -0.291454,0.29146 c -0.227265,0.2182 -0.17268,0.49552 -0.0067,0.66147 0.16595,0.16595 0.443268,0.22053 0.661469,-0.007 l 0.70745,-0.70745 0.70745,-0.70745 c 0.09037,-0.0904 0.135562,-0.2089 0.135562,-0.32737 0,-0.11848 -0.04519,-0.23696 -0.135562,-0.32737 l -0.707449,-0.70802 -0.70745,-0.70796 c -0.04367,-0.045 -0.09552,-0.0802 -0.152126,-0.10408 -0.05661,-0.0239 -0.117977,-0.0366 -0.18067,-0.0365 z m 3.204455,8.0052 h 0.529166 14.481804 0.529167 v 1.29656 h -15.540137 z"
       style="display:inline;opacity:1;fill:#000000;fill-opacity:1;stroke-width:0.44097224"
       inkscape:connector-curvature="0" />
  </g>
</svg>
