<?xml version="1.0" encoding="UTF-8" standalone="no"?>
<!-- Created with Inkscape (http://www.inkscape.org/) -->

<svg
   xmlns:dc="http://purl.org/dc/elements/1.1/"
   xmlns:cc="http://creativecommons.org/ns#"
   xmlns:rdf="http://www.w3.org/1999/02/22-rdf-syntax-ns#"
   xmlns:svg="http://www.w3.org/2000/svg"
   xmlns="http://www.w3.org/2000/svg"
   xmlns:sodipodi="http://sodipodi.sourceforge.net/DTD/sodipodi-0.dtd"
   xmlns:inkscape="http://www.inkscape.org/namespaces/inkscape"
   width="26.458334mm"
   height="26.458334mm"
   viewBox="0 0 26.458334 26.458334"
   version="1.1"
   id="svg4239"
   inkscape:version="0.92.3 (2405546, 2018-03-11)"
   sodipodi:docname="conversion_transformer_in.svg">
  <defs
     id="defs4233" />
  <sodipodi:namedview
     id="base"
     pagecolor="#ffffff"
     bordercolor="#666666"
     borderopacity="1.0"
     inkscape:pageopacity="0.0"
     inkscape:pageshadow="2"
     inkscape:zoom="2.8"
     inkscape:cx="-18.571424"
     inkscape:cy="50.000032"
     inkscape:document-units="mm"
     inkscape:current-layer="layer1"
     showgrid="false"
     fit-margin-top="0"
     fit-margin-left="0"
     fit-margin-right="0"
     fit-margin-bottom="0"
     inkscape:window-width="1853"
     inkscape:window-height="1025"
     inkscape:window-x="67"
     inkscape:window-y="27"
     inkscape:window-maximized="1" />
  <metadata
     id="metadata4236">
    <rdf:RDF>
      <cc:Work
         rdf:about="">
        <dc:format>image/svg+xml</dc:format>
        <dc:type
           rdf:resource="http://purl.org/dc/dcmitype/StillImage" />
        <dc:title></dc:title>
      </cc:Work>
    </rdf:RDF>
  </metadata>
  <g
     inkscape:label="Ebene 1"
     inkscape:groupmode="layer"
     id="layer1"
     transform="translate(98.651787,-165.84227)">
    <g
       transform="matrix(0.44097223,0,0,0.44097223,-94.982994,168.21195)"
       id="g1751"
       style="display:inline;opacity:1;fill:#000000;fill-opacity:1">
      <path
         inkscape:connector-curvature="0"
         id="path1749"
         d="m 17.509224,-0.970154 c -0.550002,0 -0.999612,0.44961 -0.999612,0.999612 V 1.09 H 15.32016 c -0.550002,0 -1.000782,0.44961 -1.000782,0.999612 0,0.550002 0.45078,1.000782 1.000782,1.000782 h 1.189452 V 5.29 H 15.32016 c -0.550002,0 -1.000782,0.44961 -1.000782,0.999612 0,0.550002 0.45078,1.000782 1.000782,1.000782 h 1.189452 V 9.49 H 15.32016 c -0.550002,0 -1.000782,0.44961 -1.000782,0.999612 0,0.550002 0.45078,1.000782 1.000782,1.000782 h 1.189452 v 1.689846 h -5.880468 c -0.550002,0 -0.999612,0.449604 -0.999612,0.999606 v 4.939452 c 0,0.550002 0.44961,1.000782 0.999612,1.000782 h 1.2 v 21.970314 h -1.2 c -0.550002,0 -0.999612,0.44961 -0.999612,0.999606 v 4.939458 c 0,0.549996 0.44961,1.000782 0.999612,1.000782 H 47.87016 c 0.549996,0 0.999606,-0.450786 0.999606,-1.000782 V 43.09 c 0,-0.549996 -0.44961,-0.999606 -0.999606,-0.999606 h -1.2 V 20.12008 h 1.2 c 0.549996,0 0.999606,-0.45078 0.999606,-1.000782 v -4.939452 c 0,-0.550002 -0.44961,-0.999612 -0.999606,-0.999606 h -5.880468 v -1.689846 h 1.189452 c 0.550002,0 1.000782,-0.45078 1.000782,-1.000782 C 44.179926,9.93961 43.729146,9.49 43.179144,9.49 H 41.989692 V 7.290394 h 1.189452 c 0.550002,0 1.000782,-0.45078 1.000782,-1.000782 C 44.179926,5.73961 43.729146,5.29 43.179144,5.29 H 41.989692 V 3.090394 h 1.189452 c 0.550002,0 1.000782,-0.45078 1.000782,-1.000782 C 44.179926,1.53961 43.729146,1.09 43.179144,1.09 H 41.989692 V 0.029458 c 0,-0.550002 -0.44961,-0.999612 -0.999612,-0.999612 -0.550002,0 -1.000782,0.44961 -1.000782,0.999612 V 1.09 h -1.189452 c -0.550002,0 -1.000782,0.44961 -1.000782,0.999612 0,0.550002 0.45078,1.000782 1.000782,1.000782 h 1.189452 V 5.29 h -1.189452 c -0.550002,0 -1.000782,0.44961 -1.000782,0.999612 0,0.550002 0.45078,1.000782 1.000782,1.000782 h 1.189452 V 9.49 h -1.189452 c -0.550002,0 -1.000782,0.44961 -1.000782,0.999612 0,0.550002 0.45078,1.000782 1.000782,1.000782 h 1.189452 v 1.689846 h -9.739452 v -1.689846 h 1.189452 c 0.550002,0 1.000782,-0.45078 1.000782,-1.000782 C 32.44008,9.93961 31.9893,9.49 31.439298,9.49 H 30.249846 V 7.290394 h 1.189452 c 0.550002,0 1.000782,-0.45078 1.000782,-1.000782 C 32.44008,5.73961 31.9893,5.29 31.439298,5.29 H 30.249846 V 3.090394 h 1.189452 c 0.550002,0 1.000782,-0.45078 1.000782,-1.000782 C 32.44008,1.53961 31.9893,1.09 31.439298,1.09 H 30.249846 V 0.029458 c 0,-0.550002 -0.45078,-0.999612 -1.000782,-0.999612 -0.549996,0 -0.999606,0.44961 -0.999606,0.999612 V 1.09 H 27.06 c -0.549996,0 -1.000776,0.44961 -1.000776,0.999612 0,0.550002 0.45078,1.000782 1.000776,1.000782 h 1.189458 V 5.29 H 27.06 c -0.549996,0 -1.000776,0.44961 -1.000776,0.999612 0,0.550002 0.45078,1.000782 1.000776,1.000782 h 1.189458 V 9.49 H 27.06 c -0.549996,0 -1.000776,0.44961 -1.000776,0.999612 0,0.550002 0.45078,1.000782 1.000776,1.000782 h 1.189458 V 13.18024 H 18.51 v -1.689846 h 1.189458 c 0.549996,0 0.999606,-0.45078 0.999606,-1.000782 C 20.699064,9.93961 20.249454,9.49 19.699458,9.49 H 18.51 V 7.290394 h 1.189458 c 0.549996,0 0.999606,-0.45078 0.999606,-1.000782 C 20.699064,5.73961 20.249454,5.29 19.699458,5.29 H 18.51 V 3.090394 h 1.189458 c 0.549996,0 0.999606,-0.45078 0.999606,-1.000782 C 20.699064,1.53961 20.249454,1.09 19.699458,1.09 H 18.51 V 0.029458 c 0,-0.550002 -0.45078,-0.999612 -1.000776,-0.999612 z M 11.629926,15.17008 h 35.239452 v 2.940234 h -1.2 -32.839452 -1.2 z m 2.199606,4.95 H 44.669766 V 42.090394 H 13.829532 Z m 14.269926,1.76016 c -0.470004,0 -0.869688,0.319296 -0.979692,0.779292 l -1.83984,8.21016 c -0.07,0.3 -7.8e-4,0.61023 0.199218,0.840234 0.190002,0.24 0.480468,0.379686 0.780468,0.379686 h 1.639452 L 27.109224,39.19 c -0.05,0.470004 0.23031,0.909378 0.670308,1.059378 0.110004,0.04 0.209922,0.05039 0.319926,0.05039 0.339996,0 0.670152,-0.179844 0.860154,-0.48984 l 6.540234,-10.899612 c 0.190002,-0.309996 0.189378,-0.690156 0.0094,-1.010154 -0.18,-0.320004 -0.509532,-0.500394 -0.869532,-0.500394 H 32.44008 l 0.549612,-4.38984 c 0.04,-0.280002 -0.05024,-0.569844 -0.240234,-0.789846 -0.190002,-0.220002 -0.460002,-0.339846 -0.75,-0.33984 z m 0.78984,2.00976 h 1.969926 l -0.549612,4.389846 c -0.04,0.280002 0.05023,0.569844 0.240234,0.789846 0.190002,0.219996 0.460002,0.33984 0.75,0.33984 h 1.559766 l -3.260154,5.450394 0.410154,-3.650394 C 30.039612,30.929536 29.950002,30.64024 29.76,30.43024 29.570004,30.220234 29.300004,30.099766 29.01,30.099766 H 27.499458 Z M 4.547112,25.624378 c -0.942342,0.001 -1.406178,1.147074 -0.73008,1.803516 L 5.32875,28.940782 H -5.051718 c -1.41975,-0.0199 -1.41975,2.11989 0,2.1 H 5.13891 L 3.817032,32.36266 c -1.030596,0.989616 0.495126,2.515362 1.484766,1.484766 4.61427,-4.43307 4.28382,-3.61734 0,-7.904298 -0.198036,-0.204042 -0.470346,-0.31905 -0.754686,-0.31875 z m 7.082814,18.465234 h 1.2 32.839452 1.2 v 2.940234 H 11.629926 Z"
         style="fill:#000000;fill-opacity:1;stroke-width:1"
         sodipodi:nodetypes="sscsssccsssccsssccssssccssssssssccssscccsssccsssccssscssscsssccsssccsssccccsssccsssccssscssscsssccsssccsssccccsssccsssccssscssccccccccccccscccscccscccsccccsccccsccccsccccccccccccccccccc" />
    </g>
  </g>
</svg>
