<?xml version="1.0" encoding="UTF-8" standalone="no"?>
<svg
   xmlns:dc="http://purl.org/dc/elements/1.1/"
   xmlns:cc="http://creativecommons.org/ns#"
   xmlns:rdf="http://www.w3.org/1999/02/22-rdf-syntax-ns#"
   xmlns:svg="http://www.w3.org/2000/svg"
   xmlns="http://www.w3.org/2000/svg"
   id="svg1275"
   version="1.1"
   viewBox="0 0 26.458334 26.458334"
   height="26.458334mm"
   width="26.458334mm">
  <defs
     id="defs1269" />
  <metadata
     id="metadata1272">
    <rdf:RDF>
      <cc:Work
         rdf:about="">
        <dc:format>image/svg+xml</dc:format>
        <dc:type
           rdf:resource="http://purl.org/dc/dcmitype/StillImage" />
        <dc:title></dc:title>
      </cc:Work>
    </rdf:RDF>
  </metadata>
  <g
     transform="translate(116.79464,-135.60417)"
     id="layer1">
    <path
       id="path1521"
       d="m -109.15384,135.74595 a 0.46306714,0.46306714 0 0 0 -0.37466,0.1912 c -0.77933,1.07731 -1.07977,2.71218 -1.24023,4.10414 -0.15467,1.34168 -0.14791,2.4121 -0.14728,2.49133 -0.13065,0.18406 -0.2359,0.38723 -0.3111,0.60513 -2.27921,1.40641 -3.49156,2.51848 -4.13927,3.31297 -0.33098,0.40599 -0.51653,0.72987 -0.62012,0.9679 -0.10359,0.23804 -0.12816,0.44442 -0.12816,0.44442 a 0.46306714,0.46306714 0 0 0 0.41393,0.49455 c 1.32263,0.13626 2.8882,-0.41968 4.1739,-0.97669 0.29724,-0.12878 0.57364,-0.25852 0.83096,-0.38292 l -0.7028,8.53746 a 0.46306714,0.46306714 0 0 0 0.46199,0.50023 h 3.84472 a 0.46306714,0.46306714 0 0 0 0.46044,-0.50643 l -0.8108,-8.554 c 0.26966,0.1311 0.56545,0.26914 0.88056,0.40566 1.28571,0.55701 2.85231,1.11295 4.17494,0.97669 a 0.46306714,0.46306714 0 0 0 0.41393,-0.49455 c 0,0 -0.0256,-0.20638 -0.12919,-0.44442 -0.10359,-0.23803 -0.28914,-0.56191 -0.62012,-0.9679 -0.65131,-0.7989 -1.87107,-1.91817 -4.17493,-3.33571 -0.0828,-0.2324 -0.19962,-0.44814 -0.34521,-0.64079 -0.0751,-2.7101 -0.43482,-4.3285 -0.8015,-5.29321 -0.1861,-0.48963 -0.3743,-0.81292 -0.52864,-1.02165 -0.15435,-0.20873 -0.3204,-0.33331 -0.3204,-0.33331 a 0.46306714,0.46306714 0 0 0 -0.26096,-0.0801 z m 0.0775,1.43764 c 0.0592,0.11779 0.10138,0.15365 0.16691,0.32608 0.28387,0.74683 0.59703,2.04984 0.71107,4.21783 -0.26537,-0.11067 -0.55517,-0.17312 -0.85938,-0.17312 -0.32519,0 -0.63357,0.0708 -0.91364,0.19637 0.0179,-0.43154 0.0513,-0.98631 0.12248,-1.60352 0.12013,-1.04212 0.40011,-2.12421 0.77256,-2.96364 z m 11.424625,3.0024 a 0.46306714,0.46306714 0 0 0 -0.374655,0.1912 c -0.779325,1.07731 -1.079764,2.71218 -1.240234,4.10414 -0.154671,1.34167 -0.147902,2.4121 -0.147276,2.49132 -0.130647,0.18407 -0.235898,0.38724 -0.311092,0.60514 -2.279228,1.40641 -3.491568,2.51848 -4.139288,3.31297 -0.33098,0.40598 -0.51652,0.72987 -0.62011,0.9679 -0.10359,0.23803 -0.12816,0.44442 -0.12816,0.44442 a 0.46306714,0.46306714 0 0 0 0.41393,0.49454 c 1.32263,0.13627 2.8882,-0.41967 4.1739,-0.97668 0.29724,-0.12878 0.573646,-0.25852 0.830962,-0.38292 l -0.702799,8.53746 a 0.46306714,0.46306714 0 0 0 0.461984,0.50023 h 3.844727 a 0.46306714,0.46306714 0 0 0 0.460437,-0.50643 l -0.810803,-8.554 c 0.269664,0.13109 0.56545,0.26914 0.880569,0.40566 1.285707,0.55701 2.852305,1.11295 4.174935,0.97668 a 0.46306714,0.46306714 0 0 0 0.413932,-0.49454 c 0,0 -0.02562,-0.20639 -0.129191,-0.44442 -0.103594,-0.23803 -0.289137,-0.56192 -0.620118,-0.9679 -0.651316,-0.7989 -1.871071,-1.91817 -4.17494,-3.33571 -0.08278,-0.2324 -0.199614,-0.44814 -0.345197,-0.64079 -0.07507,-2.7101 -0.434825,-4.3285 -0.801502,-5.29321 -0.186099,-0.48963 -0.374302,-0.81292 -0.528651,-1.02165 -0.154349,-0.20873 -0.320393,-0.33331 -0.320393,-0.33331 a 0.46306714,0.46306714 0 0 0 -0.260967,-0.0801 z m 0.07751,1.43764 c 0.05917,0.11779 0.10138,0.15365 0.166917,0.32608 0.283858,0.74683 0.597032,2.04984 0.711068,4.21783 -0.265377,-0.11067 -0.555171,-0.17312 -0.85938,-0.17312 -0.325195,0 -0.633572,0.0708 -0.913642,0.19637 0.01786,-0.43154 0.05133,-0.98632 0.122476,-1.60352 0.120138,-1.04212 0.400116,-2.12421 0.772561,-2.96364 z m -11.483535,0.85679 c 0.75677,0 1.37666,0.63116 1.37666,1.44229 0,0.81114 -0.61989,1.44384 -1.37666,1.44384 -0.75676,0 -1.37717,-0.6327 -1.37717,-1.44384 0,-0.81113 0.62041,-1.44229 1.37717,-1.44229 z m 2.27273,1.80041 c 1.85049,1.19729 2.83642,2.13091 3.34553,2.75539 0.11668,0.14311 0.12753,0.19725 0.19999,0.30747 -0.91342,-0.0969 -1.99127,-0.39564 -2.95434,-0.81287 -0.58683,-0.25423 -1.10172,-0.51175 -1.48776,-0.71468 0.47286,-0.36589 0.80338,-0.91247 0.89658,-1.53531 z m -4.54339,0.0165 c 0.0974,0.62056 0.43043,1.16439 0.90485,1.52704 -0.38459,0.20181 -0.89172,0.45535 -1.47122,0.70641 -0.96307,0.41723 -2.04041,0.71595 -2.95383,0.81287 0.0725,-0.11022 0.0828,-0.16436 0.19947,-0.30747 0.50685,-0.6217 1.48605,-1.54926 3.32073,-2.73885 z m 2.55282,1.97507 c 0.0261,0.0153 0.20277,0.11169 0.3545,0.19585 l 0.8201,8.64185 h -2.8329 l 0.70745,-8.60929 c 0.19528,-0.10717 0.37449,-0.20614 0.40721,-0.22531 0.086,0.0101 0.1728,0.0165 0.26148,0.0165 0.0957,0 0.18957,-0.008 0.28216,-0.0196 z m 11.219984,0.64802 c 0.756761,0 1.376657,0.63116 1.376657,1.44229 0,0.81114 -0.619896,1.44384 -1.376657,1.44384 -0.756762,0 -1.377179,-0.6327 -1.377179,-1.44384 0,-0.81113 0.620417,-1.44229 1.377179,-1.44229 z m 2.272731,1.80041 c 1.850487,1.19729 2.836417,2.13091 3.345528,2.75539 0.116677,0.14311 0.127525,0.19725 0.19999,0.30747 -0.913421,-0.0969 -1.991276,-0.39564 -2.954342,-0.81287 -0.586833,-0.25423 -1.101721,-0.51175 -1.487765,-0.71468 0.472859,-0.36589 0.80338,-0.91247 0.896589,-1.53531 z m -4.543394,0.0165 c 0.09736,0.62056 0.430428,1.16439 0.904853,1.52704 -0.384586,0.20181 -0.891721,0.45535 -1.471224,0.70642 -0.96307,0.41723 -2.04041,0.71594 -2.95383,0.81287 0.0725,-0.11023 0.0828,-0.16436 0.19947,-0.30748 0.50685,-0.6217 1.48605,-1.54925 3.320731,-2.73885 z m 2.552814,1.97507 c 0.02611,0.0153 0.202781,0.11169 0.354502,0.19586 l 0.820107,8.64185 h -2.832902 l 0.707447,-8.6093 c 0.195275,-0.10717 0.374491,-0.20613 0.407211,-0.22531 0.08603,0.0101 0.1728,0.0165 0.261484,0.0165 0.09572,0 0.189565,-0.008 0.282151,-0.0196 z"
       style="color:#000000;font-style:normal;font-variant:normal;font-weight:normal;font-stretch:normal;font-size:medium;line-height:normal;font-family:sans-serif;font-variant-ligatures:normal;font-variant-position:normal;font-variant-caps:normal;font-variant-numeric:normal;font-variant-alternates:normal;font-feature-settings:normal;text-indent:0;text-align:start;text-decoration:none;text-decoration-line:none;text-decoration-style:solid;text-decoration-color:#000000;letter-spacing:normal;word-spacing:normal;text-transform:none;writing-mode:lr-tb;direction:ltr;text-orientation:mixed;dominant-baseline:auto;baseline-shift:baseline;text-anchor:start;white-space:normal;shape-padding:0;clip-rule:nonzero;display:inline;overflow:visible;visibility:visible;opacity:1;isolation:auto;mix-blend-mode:normal;color-interpolation:sRGB;color-interpolation-filters:linearRGB;solid-color:#000000;solid-opacity:1;vector-effect:none;fill:#000000;fill-opacity:1;fill-rule:nonzero;stroke:none;stroke-width:0.92604166;stroke-linecap:butt;stroke-linejoin:round;stroke-miterlimit:4;stroke-dasharray:none;stroke-dashoffset:0;stroke-opacity:1;color-rendering:auto;image-rendering:auto;shape-rendering:auto;text-rendering:auto;enable-background:accumulate" />
  </g>
</svg>
