<?xml version="1.0" standalone="no"?>
<!DOCTYPE svg PUBLIC "-//W3C//DTD SVG 20010904//EN"
 "http://www.w3.org/TR/2001/REC-SVG-20010904/DTD/svg10.dtd">
<svg version="1.0" xmlns="http://www.w3.org/2000/svg"
 width="700.000000pt" height="700.000000pt" viewBox="0 0 700.000000 700.000000"
 preserveAspectRatio="xMidYMid meet">
<metadata>
Created by potrace 1.11, written by Peter Selinger 2001-2013
</metadata>
<g transform="translate(0.000000,700.000000) scale(0.100000,-0.100000)"
fill="#000000" stroke="none">
<path d="M3299 6596 c-2 -2 -49 -7 -104 -11 -105 -7 -110 -8 -190 -19 -52 -8
-219 -40 -317 -62 -15 -3 -31 -6 -35 -6 -5 0 -15 -4 -24 -9 -9 -4 -31 -11 -49
-14 -51 -9 -295 -93 -400 -137 -199 -84 -412 -199 -579 -310 -86 -58 -258
-187 -311 -233 -235 -206 -427 -413 -577 -623 -57 -80 -180 -272 -212 -332
-183 -342 -296 -649 -364 -990 -30 -146 -37 -195 -54 -350 -16 -142 -8 -653
11 -760 3 -14 7 -46 10 -73 7 -57 61 -328 76 -377 6 -19 13 -42 15 -50 47
-180 155 -454 252 -640 51 -96 157 -281 175 -305 4 -5 46 -63 93 -128 118
-163 209 -271 350 -412 133 -134 207 -201 324 -293 44 -35 56 -41 67 -30 12
13 570 756 611 814 l23 31 -63 49 c-146 114 -344 327 -469 504 -178 253 -324
603 -377 905 -33 189 -39 267 -36 470 4 237 19 353 71 552 14 54 27 105 29
113 3 15 38 107 77 205 69 171 210 409 341 572 61 77 240 262 307 319 243 204
587 389 875 470 72 20 220 53 263 59 20 3 46 8 57 10 132 28 518 25 695 -5 30
-5 71 -12 90 -15 19 -3 53 -11 75 -16 22 -6 58 -14 80 -19 134 -29 392 -134
562 -229 311 -174 621 -470 828 -791 155 -240 291 -593 329 -855 4 -22 9 -53
12 -70 3 -16 7 -43 10 -60 3 -16 7 -124 8 -240 3 -189 -7 -350 -29 -445 -3
-14 -7 -36 -10 -50 -3 -14 -7 -36 -10 -50 -3 -14 -8 -36 -11 -50 -11 -53 -68
-230 -106 -325 -141 -355 -406 -713 -700 -947 l-76 -60 26 -37 c15 -20 159
-213 321 -428 241 -322 296 -391 310 -383 81 44 411 356 541 510 35 41 66 77
70 80 17 14 171 234 241 346 221 353 414 864 464 1225 3 24 8 55 10 69 5 30
12 87 20 160 3 30 8 73 10 95 6 54 6 474 1 505 -3 14 -8 57 -11 95 -6 74 -32
259 -40 285 -3 8 -7 33 -11 55 -21 140 -123 466 -206 660 -52 121 -151 320
-192 385 -263 415 -437 621 -774 912 -195 169 -547 386 -814 502 -21 9 -53 23
-72 31 -200 88 -641 204 -871 230 -33 3 -80 9 -105 11 -56 6 -525 15 -531 10z"/>
<path d="M2865 4921 c-17 -10 -50 -29 -75 -43 -25 -14 -84 -48 -131 -75 -48
-27 -93 -53 -100 -57 -8 -3 -66 -37 -129 -74 l-115 -67 -3 -341 -2 -340 27
-15 c16 -7 55 -30 88 -50 33 -19 80 -47 105 -61 25 -14 116 -66 204 -117 87
-50 162 -90 166 -89 4 2 136 77 294 168 l286 165 -2 340 -3 340 -205 118
c-113 65 -225 130 -250 144 -25 14 -63 36 -85 49 -40 23 -41 23 -70 5z m107
-279 c35 -21 86 -51 113 -66 28 -15 78 -44 113 -64 70 -41 63 -20 63 -197 0
-47 0 -125 -1 -174 l0 -89 -42 -25 c-24 -14 -59 -34 -78 -45 -19 -11 -82 -47
-140 -80 l-105 -61 -40 23 c-22 13 -104 60 -182 105 l-143 83 0 212 0 212 178
102 c97 56 183 102 189 102 7 0 41 -17 75 -38z"/>
<path d="M3825 4771 l-290 -167 -2 -340 -3 -339 133 -77 c72 -42 150 -86 172
-98 22 -11 47 -25 55 -30 71 -44 151 -90 156 -90 3 0 20 -10 37 -22 29 -21 31
-21 61 -4 17 10 47 28 66 39 19 10 125 71 235 135 110 64 212 123 228 131 l27
16 -2 340 -3 340 -185 108 c-102 59 -192 111 -200 114 -8 3 -26 14 -40 23 -14
9 -54 33 -90 53 l-65 36 -290 -168z m475 -190 c85 -49 161 -94 168 -98 10 -6
13 -53 14 -203 0 -107 -1 -203 -1 -212 -1 -10 -30 -34 -73 -59 -40 -23 -122
-70 -181 -105 l-109 -64 -44 25 c-25 14 -55 31 -67 39 -12 8 -38 23 -57 33
-19 10 -72 40 -117 67 l-83 48 0 211 0 212 173 102 c123 73 179 101 197 98 14
-2 95 -44 180 -94z"/>
<path d="M2170 3838 c-58 -33 -184 -106 -280 -161 -96 -55 -180 -105 -185
-112 -6 -8 -10 -136 -10 -345 l0 -332 225 -130 c124 -72 241 -139 260 -150 19
-11 49 -29 67 -39 35 -22 29 -23 123 32 36 22 412 239 465 269 l30 17 0 341
c0 188 -2 342 -6 342 -3 0 -130 72 -282 160 -153 89 -283 163 -290 165 -6 2
-59 -23 -117 -57z m406 -360 l70 -40 0 -211 -1 -211 -135 -79 c-74 -44 -156
-92 -181 -107 l-47 -28 -173 100 c-96 55 -178 104 -184 110 -6 5 -10 91 -11
213 -1 232 -8 211 91 265 33 19 98 56 145 84 143 84 117 83 243 9 62 -36 144
-83 183 -105z"/>
<path d="M3455 3876 c-22 -13 -152 -88 -290 -168 l-250 -145 0 -333 c0 -372
-5 -345 72 -385 21 -11 74 -40 118 -66 44 -26 151 -88 238 -138 l157 -91 31
17 c18 10 39 23 48 28 9 6 66 39 126 73 61 35 117 67 125 73 8 5 67 39 130 75
63 36 118 71 121 76 4 6 6 160 5 342 l-1 331 -115 67 c-63 37 -126 73 -140 80
-14 8 -93 53 -176 101 -83 48 -153 87 -155 87 -2 -1 -22 -11 -44 -24z m381
-421 l32 -16 0 -209 c0 -146 -3 -212 -11 -219 -7 -5 -90 -54 -185 -109 l-173
-100 -66 40 c-37 22 -87 52 -112 66 -25 14 -77 44 -116 67 l-70 41 0 208 0
208 25 18 c14 10 45 29 70 43 25 14 96 54 158 90 l113 65 152 -89 c84 -48 166
-95 183 -104z"/>
<path d="M4560 3810 c-85 -50 -162 -94 -170 -99 -8 -5 -68 -40 -132 -77 -69
-40 -118 -74 -119 -83 -2 -67 0 -663 2 -665 17 -11 66 -40 101 -60 24 -13 141
-81 261 -150 l218 -126 197 114 c357 205 376 217 383 228 4 6 7 156 7 333 1
236 -2 327 -11 338 -12 15 -566 338 -578 337 -2 -1 -74 -41 -159 -90z m270
-225 c8 -7 20 -14 26 -16 6 -2 61 -33 122 -68 l112 -64 0 -211 0 -211 -187
-107 c-159 -91 -189 -106 -202 -94 -9 7 -63 39 -121 72 -58 32 -132 75 -165
95 l-59 36 -1 203 c0 123 4 208 10 216 5 7 88 58 184 113 l174 100 46 -26 c25
-15 53 -32 61 -38z"/>
<path d="M2695 2739 c-105 -61 -234 -136 -288 -166 l-97 -55 2 -341 c3 -333 3
-342 24 -352 11 -5 49 -27 85 -47 35 -21 156 -91 268 -156 l205 -119 65 37
c36 21 167 96 291 168 l225 130 3 340 2 339 -289 166 c-159 92 -293 167 -298
167 -4 0 -94 -50 -198 -111z m316 -205 c62 -37 135 -78 160 -93 96 -54 90 -42
90 -171 0 -63 0 -158 -1 -210 l0 -95 -38 -21 c-72 -40 -135 -76 -180 -104 -26
-16 -70 -40 -99 -55 l-51 -27 -181 103 -181 104 3 215 2 215 125 72 c69 39
144 82 168 94 24 13 46 27 48 31 9 13 17 10 135 -58z"/>
<path d="M4035 2808 c-38 -22 -91 -52 -116 -67 -25 -14 -123 -71 -217 -125
l-172 -100 2 -338 3 -339 284 -165 c156 -90 289 -164 297 -164 7 0 126 66 266
147 139 80 267 154 283 163 l30 17 3 340 2 340 -222 128 c-123 70 -251 145
-286 166 -35 22 -69 39 -75 38 -7 0 -43 -18 -82 -41z m193 -271 c48 -27 98
-57 112 -66 14 -9 45 -26 70 -39 77 -41 73 -28 73 -257 0 -113 -2 -207 -4
-209 -2 -2 -84 -49 -182 -106 -138 -79 -183 -100 -197 -94 -10 5 -93 52 -184
104 l-166 95 3 214 2 213 175 103 c109 64 182 101 193 98 10 -3 58 -28 105
-56z"/>
</g>
</svg>
