<svg xmlns="http://www.w3.org/2000/svg" viewBox="0 0 1054 612"><defs><style>.cls-1{isolation:isolate;}.cls-2{fill:#e5b142;}.cls-3{fill:#65c8c9;mix-blend-mode:overlay;}.cls-4{fill:#707070;}</style></defs><title>zalogo-eland-original</title><g class="cls-1"><g id="Layer_1" data-name="Layer 1"><path class="cls-2" d="M580.12,162.76c4.15-5.25,2.18-8.41-4.36-7L382.13,196.94a15.72,15.72,0,0,0-11.9,14.69V238c0,6.7,5.27,13.66,11.7,15.48l91.72,25.94c6.44,1.82,15.1-1,19.24-6.24Z"/><path class="cls-2" d="M381.93,271.33c-6.43-1.82-11.7,2.16-11.7,8.85v15.4c0,6.69,4.74,14.91,10.53,18.25L517.83,393c5.8,3.34,15.28,3.34,21.07,0l79.27-45.77c5.8-3.34,5.27-7.57-1.17-9.39Z"/><path class="cls-2" d="M592.42,134.65c6.54-1.39,15.29-6.82,19.44-12.08l14.45-18.28a10.25,10.25,0,0,0-3-15.63L538.9,39.93c-5.79-3.35-15.27-3.35-21.07,0L380.76,119.06c-5.79,3.35-10.53,11.56-10.53,18.25v32.44c0,6.69,5.35,11,11.9,9.63Z"/><path class="cls-3" d="M676,313.83c5.79-3.34,10.54-11.56,10.54-18.25V137.31c0-6.69-4.75-14.9-10.54-18.25L659.4,109.5A14.52,14.52,0,0,0,641.33,113L510.77,278.25c-4.14,5.25-2.27,11,4.17,12.86l122.8,34.72c6.44,1.82,16.45.58,22.24-2.77Z"/><path class="cls-4" d="M111.82,423.74H44.55V491h62.13l-.94,5.84H44.55v74.51h71.24l-.7,5.84H37.78V417.66h74.74Z"/><path class="cls-4" d="M260.83,509.45v6.78h-64v-6.78Z"/><path class="cls-4" d="M358.92,417.66V571.11h71.24l-.71,6.08h-77.3V417.66Z"/><path class="cls-4" d="M501.16,577.19l56.29-159.76h4.43l56.29,159.76h-7l-19.86-57.46H528l-19.86,57.46Zm58.39-151.35-10.75,34.1-18.45,53.48H589l-18.46-53.48-10.74-34.1Z"/><path class="cls-4" d="M799.18,577.19c-28-44.61-61.66-100.2-89.92-149.25h-.47l.94,64.23v85H703V417.66h6.54c31.07,50.22,66.33,108.38,90.86,150h.47l-1.17-65.16V417.66h6.77V577.19Z"/><path class="cls-4" d="M905.21,419.06c12.15-1.16,25.23-2.1,39.24-2.1,50.92,0,74.51,32.23,74.51,78,0,43-20.79,82.92-76.84,82.92-12.15,0-24.06-.24-36.91-.7Zm6.78,5.61V571.11c6.77.47,14.94.7,24.29.7,52.78,0,75.44-28.49,75.44-76.84,0-39.94-19.15-71.7-67.74-71.7C931.37,423.27,920.86,424,912,424.67Z"/></g></g></svg>