<?xml version="1.0" encoding="UTF-8" standalone="no"?>
<!-- Created with Inkscape (http://www.inkscape.org/) -->

<svg
   xmlns:dc="http://purl.org/dc/elements/1.1/"
   xmlns:cc="http://creativecommons.org/ns#"
   xmlns:rdf="http://www.w3.org/1999/02/22-rdf-syntax-ns#"
   xmlns:svg="http://www.w3.org/2000/svg"
   xmlns="http://www.w3.org/2000/svg"
   xmlns:sodipodi="http://sodipodi.sourceforge.net/DTD/sodipodi-0.dtd"
   xmlns:inkscape="http://www.inkscape.org/namespaces/inkscape"
   width="80.3601mm"
   height="100.91861mm"
   viewBox="0 0 80.360099 100.91861"
   version="1.1"
   id="svg8"
   inkscape:version="0.92.3 (2405546, 2018-03-11)"
   sodipodi:docname="open_plan_publication.svg">
  <defs
     id="defs2" />
  <sodipodi:namedview
     id="base"
     pagecolor="#ffffff"
     bordercolor="#666666"
     borderopacity="1.0"
     inkscape:pageopacity="0.0"
     inkscape:pageshadow="2"
     inkscape:zoom="0.72070788"
     inkscape:cx="289.66954"
     inkscape:cy="175.59244"
     inkscape:document-units="mm"
     inkscape:current-layer="layer2"
     showgrid="false"
     inkscape:window-width="1853"
     inkscape:window-height="1025"
     inkscape:window-x="1987"
     inkscape:window-y="27"
     inkscape:window-maximized="1"
     showguides="true"
     inkscape:guide-bbox="true"
     fit-margin-top="1"
     fit-margin-left="1"
     fit-margin-right="1"
     fit-margin-bottom="1"
     inkscape:lockguides="true" />
  <metadata
     id="metadata5">
    <rdf:RDF>
      <cc:Work
         rdf:about="">
        <dc:format>image/svg+xml</dc:format>
        <dc:type
           rdf:resource="http://purl.org/dc/dcmitype/StillImage" />
        <dc:title></dc:title>
      </cc:Work>
    </rdf:RDF>
  </metadata>
  <g
     inkscape:groupmode="layer"
     id="layer2"
     inkscape:label="Ebene 2"
     transform="translate(73.43556,-18.034515)"
     style="display:inline">
    <g
       id="g1283"
       transform="matrix(1.0815475,0,0,1.0815475,234.33567,-26.937423)"
       style="stroke-width:0.92460114">
      <path
         style="display:inline;fill:#1f567d;fill-opacity:1;fill-rule:evenodd;stroke:none;stroke-width:0.24463403;enable-background:new"
         d="m -247.5822,67.276862 -0.67313,0.01404 -0.68734,0.02808 -0.67313,0.04195 -0.6733,0.05617 -0.65909,0.07021 -0.65926,0.09812 -0.65925,0.11216 -0.65909,0.126201 -0.63118,0.140242 -0.64522,0.154284 -0.63117,0.168325 -0.63118,0.182366 -0.61713,0.210279 -0.60309,0.210449 -0.61714,0.224318 -0.58905,0.252402 -0.58906,0.252573 -0.58905,0.280486 -0.57501,0.280484 -0.56097,0.294526 -0.56113,0.322437 -0.56098,0.322609 -0.53305,0.33665 -0.53289,0.350521 -0.53306,0.364732 -0.5048,0.378603 -0.50498,0.378604 -0.50497,0.406856 -0.47673,0.406686 -0.47689,0.420728 -0.46285,0.434767 -0.46285,0.44881 -0.44881,0.448638 -0.42073,0.462852 -0.43494,0.476892 -0.40668,0.490763 -0.39264,0.490934 -0.39282,0.504804 -0.3786,0.519017 -0.36473,0.532886 -0.35053,0.532886 -0.33664,0.533059 -0.32261,0.546928 -0.30857,0.56097 -0.30857,0.575009 -0.28048,0.575012 -0.28049,0.575011 -0.25257,0.602922 -0.23836,0.589052 -0.23854,0.603093 -0.21027,0.617135 -0.21046,0.616964 -0.18236,0.631175 -0.16815,0.631177 -0.15429,0.631004 -0.14041,0.645219 -0.1262,0.659087 -0.11216,0.645217 -0.0841,0.659088 -0.0842,0.673128 -0.056,0.673129 -0.0422,0.673302 -0.0281,0.673128 v 0.68717 0.687171 l 0.0281,0.673305 0.0422,0.67313 0.056,0.67312 0.0842,0.67331 0.0841,0.65908 0.11216,0.65909 0.1262,0.64522 0.14041,0.64505 0.15429,0.631173 0.16815,0.631 0.18236,0.63118 0.21046,0.61714 0.21027,0.61695 0.23854,0.6031 0.23836,0.6031 0.25257,0.58905 0.28049,0.57501 0.28048,0.575 0.30857,0.57502 0.30857,0.56096 0.32261,0.54693 0.33664,0.54693 0.35053,0.53289 0.36473,0.51902 0.3786,0.51884 0.39282,0.50481 0.39264,0.49093 0.40668,0.49093 0.43494,0.47673 0.42073,0.46285 0.44881,0.44881 0.46285,0.4488 0.46285,0.43477 0.47689,0.42073 0.47673,0.40669 0.50497,0.40668 0.49984,0.38871 4.97492,-6.63044 -0.0188,-0.0131 -0.68717,-0.53287 -0.65926,-0.57502 -0.63118,-0.60309 -0.60309,-0.63118 -0.57502,-0.67313 -0.54693,-0.68717 -0.50496,-0.71525 -0.4769,-0.72929 -0.43476,-0.77142 -0.21046,-0.37861 -0.19623,-0.40668 -0.18237,-0.39264 -0.18236,-0.40686 -0.16833,-0.42073 -0.15428,-0.40668 -0.15429,-0.420733 -0.14024,-0.43477 -0.1262,-0.42073 -0.11216,-0.43476 -0.11233,-0.44882 -0.0981,-0.43476 -0.084,-0.44864 -0.0702,-0.44881 -0.0701,-0.44881 -0.0422,-0.46285 -0.0421,-0.46285 -0.0281,-0.462686 -0.0281,-0.462851 v -0.476891 -0.476721 l 0.0281,-0.462851 0.0281,-0.46285 0.0421,-0.462852 0.0422,-0.44881 0.0701,-0.462679 0.0702,-0.44881 0.084,-0.44881 0.0981,-0.434769 0.11233,-0.448809 0.11216,-0.434768 0.1262,-0.420728 0.14024,-0.434768 0.15429,-0.420727 0.15428,-0.406686 0.16833,-0.420727 0.18236,-0.406686 0.18237,-0.392643 0.19623,-0.392815 0.21046,-0.392646 0.43476,-0.771418 0.4769,-0.729123 0.50496,-0.715253 0.54693,-0.687342 0.57502,-0.659087 0.60309,-0.645046 0.63118,-0.603094 0.65926,-0.560969 0.68717,-0.546929 0.71525,-0.504975 0.74351,-0.476892 0.75737,-0.434769 0.39264,-0.210277 0.39265,-0.196409 0.40686,-0.182195 0.40669,-0.182366 0.40668,-0.168325 0.4209,-0.154284 0.42072,-0.154283 0.42073,-0.140243 0.43477,-0.126202 0.43477,-0.112159 0.43477,-0.11216 0.43494,-0.09829 0.44881,-0.08407 0.44881,-0.0702 0.46285,-0.07004 0.44881,-0.04212 0.46285,-0.04195 0.46285,-0.02808 0.47672,-0.02808 h 0.46285 0.47689 l 0.46286,0.02808 0.46285,0.02808 0.46285,0.04195 0.46284,0.04212 0.44882,0.07004 0.44881,0.0702 0.44881,0.08407 0.44881,0.09829 0.43476,0.11216 0.43477,0.112159 0.43494,0.126202 0.42073,0.140243 0.42073,0.154283 0.42072,0.154284 0.40686,0.168325 0.40668,0.182366 0.40669,0.182195 0.39282,0.196409 0.39264,0.210277 0.75738,0.434769 0.74333,0.476892 0.71526,0.504975 0.68734,0.546929 0.65925,0.560969 0.63102,0.603094 0.60308,0.645046 0.57519,0.659087 0.53288,0.687342 0.51902,0.715253 0.46285,0.729123 0.44881,0.771418 0.19624,0.392646 0.19641,0.392815 0.1964,0.392643 0.16833,0.406686 0.16833,0.420727 0.16814,0.406686 0.14042,0.420727 0.14025,0.434768 0.12619,0.420728 0.12621,0.434768 0.0981,0.448809 0.0983,0.434769 0.0841,0.44881 0.0842,0.44881 0.056,0.462679 0.0562,0.44881 0.0422,0.462852 0.0279,0.46285 0.0141,0.462851 0.0141,0.476721 -0.0141,0.476893 -0.0141,0.462851 -0.0279,0.462684 -0.0422,0.46285 -0.0562,0.46285 -0.056,0.44881 -0.0842,0.44881 -0.0841,0.44864 -0.0983,0.43477 -0.0981,0.44881 -0.12621,0.43476 -0.12619,0.42073 -0.14025,0.43477 -0.14042,0.420733 -0.16814,0.40668 -0.16833,0.42073 -0.16833,0.40686 -0.1964,0.39264 -0.19641,0.40668 -0.19624,0.37861 -0.44881,0.77142 -0.46285,0.72929 -0.51902,0.71525 -0.53288,0.68717 -0.57519,0.67313 -0.60308,0.63118 -0.63102,0.60309 -0.65925,0.57502 -0.68734,0.53288 -0.0146,0.0103 4.97252,6.63198 0.49795,-0.38734 0.49094,-0.40668 0.49093,-0.40669 0.47689,-0.42073 0.46285,-0.43477 0.46285,-0.4488 0.43477,-0.44881 0.43477,-0.46285 0.42073,-0.47673 0.42072,-0.49093 0.39282,-0.49094 0.39264,-0.5048 0.36474,-0.51884 0.36456,-0.51902 0.35069,-0.53289 0.33665,-0.54692 0.33665,-0.54693 0.30856,-0.56097 0.29453,-0.57502 0.29453,-0.575 0.26644,-0.57501 0.26645,-0.58905 0.23853,-0.6031 0.22432,-0.6031 0.22449,-0.61695 0.19623,-0.61714 0.18237,-0.63118 0.18236,-0.631 0.15429,-0.631183 0.14025,-0.64504 0.12619,-0.64522 0.0983,-0.65909 0.0981,-0.65909 0.0702,-0.6733 0.0701,-0.67313 0.0421,-0.67312 0.0141,-0.673307 0.0141,-0.687171 -0.0141,-0.68717 -0.0141,-0.673128 -0.0421,-0.673301 -0.0701,-0.673129 -0.0702,-0.673129 -0.0981,-0.65909 -0.0983,-0.645216 -0.12619,-0.659088 -0.14025,-0.645217 -0.15429,-0.631005 -0.18236,-0.631175 -0.18237,-0.631176 -0.19623,-0.616964 -0.22449,-0.617134 -0.22432,-0.603094 -0.23853,-0.589052 -0.26645,-0.602922 -0.26644,-0.57501 -0.29453,-0.575012 -0.29453,-0.57501 -0.30857,-0.560969 -0.33664,-0.546929 -0.33666,-0.533058 -0.35068,-0.532886 -0.36456,-0.532887 -0.36474,-0.519017 -0.39264,-0.504804 -0.39282,-0.490934 -0.42072,-0.490762 -0.42073,-0.476893 -0.43477,-0.462851 -0.43477,-0.448639 -0.46285,-0.448809 -0.46285,-0.434768 -0.47689,-0.420727 -0.49093,-0.406686 -0.49094,-0.406857 -0.5048,-0.378603 -0.51902,-0.378603 -0.51885,-0.364733 -0.53306,-0.35052 -0.54693,-0.336644 -0.5471,-0.322608 -0.56097,-0.322438 -0.56097,-0.294526 -0.57501,-0.280484 -0.58922,-0.280486 -0.58906,-0.252573 -0.60309,-0.252401 -0.60309,-0.224319 -0.61714,-0.210449 -0.61713,-0.210278 -0.61714,-0.182368 -0.631,-0.168324 -0.64522,-0.154284 -0.64522,-0.140242 -0.64521,-0.126201 -0.6591,-0.112161 -0.65925,-0.09812 -0.67313,-0.0702 -0.65926,-0.05617 -0.6733,-0.04195 -0.68717,-0.02808 z"
         id="path6869"
         inkscape:connector-curvature="0" />
      <path
         style="color:#000000;font-style:normal;font-variant:normal;font-weight:normal;font-stretch:normal;font-size:medium;line-height:normal;font-family:sans-serif;font-variant-ligatures:normal;font-variant-position:normal;font-variant-caps:normal;font-variant-numeric:normal;font-variant-alternates:normal;font-feature-settings:normal;text-indent:0;text-align:start;text-decoration:none;text-decoration-line:none;text-decoration-style:solid;text-decoration-color:#000000;letter-spacing:normal;word-spacing:normal;text-transform:none;writing-mode:lr-tb;direction:ltr;text-orientation:mixed;dominant-baseline:auto;baseline-shift:baseline;text-anchor:start;white-space:normal;shape-padding:0;clip-rule:nonzero;display:inline;overflow:visible;visibility:visible;opacity:1;isolation:auto;mix-blend-mode:normal;color-interpolation:sRGB;color-interpolation-filters:linearRGB;solid-color:#000000;solid-opacity:1;vector-effect:none;fill:#1f567d;fill-opacity:1;fill-rule:nonzero;stroke:none;stroke-width:1.84920228;stroke-linecap:round;stroke-linejoin:miter;stroke-miterlimit:4;stroke-dasharray:none;stroke-dashoffset:0;stroke-opacity:1;paint-order:fill markers stroke;color-rendering:auto;image-rendering:auto;shape-rendering:auto;text-rendering:auto;enable-background:accumulate"
         d="m -247.51531,88.515586 -4.18239,2.415563 v 4.829138 l 4.18239,2.41556 4.18339,-2.41556 v -4.829138 l -0.25511,-0.147485 z m 0,1.178883 3.16295,1.825623 v 3.651245 l -3.16295,1.82563 -3.16196,-1.82563 v -3.651245 z"
         id="path839"
         inkscape:connector-curvature="0" />
      <path
         style="color:#000000;font-style:normal;font-variant:normal;font-weight:normal;font-stretch:normal;font-size:medium;line-height:normal;font-family:sans-serif;font-variant-ligatures:normal;font-variant-position:normal;font-variant-caps:normal;font-variant-numeric:normal;font-variant-alternates:normal;font-feature-settings:normal;text-indent:0;text-align:start;text-decoration:none;text-decoration-line:none;text-decoration-style:solid;text-decoration-color:#000000;letter-spacing:normal;word-spacing:normal;text-transform:none;writing-mode:lr-tb;direction:ltr;text-orientation:mixed;dominant-baseline:auto;baseline-shift:baseline;text-anchor:start;white-space:normal;shape-padding:0;clip-rule:nonzero;display:inline;overflow:visible;visibility:visible;opacity:1;isolation:auto;mix-blend-mode:normal;color-interpolation:sRGB;color-interpolation-filters:linearRGB;solid-color:#000000;solid-opacity:1;vector-effect:none;fill:#1f567d;fill-opacity:1;fill-rule:nonzero;stroke:none;stroke-width:1.84920228;stroke-linecap:round;stroke-linejoin:miter;stroke-miterlimit:4;stroke-dasharray:none;stroke-dashoffset:0;stroke-opacity:1;paint-order:fill markers stroke;color-rendering:auto;image-rendering:auto;shape-rendering:auto;text-rendering:auto;enable-background:accumulate"
         d="m -238.08724,88.515586 -4.18338,2.415563 v 4.829138 l 4.18338,2.41556 4.18239,-2.41556 v -4.829138 l -0.25511,-0.147485 z m 0,1.178883 3.16196,1.825623 v 3.651245 l -3.16196,1.82563 -3.16295,-1.82563 v -3.651245 z"
         id="path841"
         inkscape:connector-curvature="0" />
      <path
         style="color:#000000;font-style:normal;font-variant:normal;font-weight:normal;font-stretch:normal;font-size:medium;line-height:normal;font-family:sans-serif;font-variant-ligatures:normal;font-variant-position:normal;font-variant-caps:normal;font-variant-numeric:normal;font-variant-alternates:normal;font-feature-settings:normal;text-indent:0;text-align:start;text-decoration:none;text-decoration-line:none;text-decoration-style:solid;text-decoration-color:#000000;letter-spacing:normal;word-spacing:normal;text-transform:none;writing-mode:lr-tb;direction:ltr;text-orientation:mixed;dominant-baseline:auto;baseline-shift:baseline;text-anchor:start;white-space:normal;shape-padding:0;clip-rule:nonzero;display:inline;overflow:visible;visibility:visible;opacity:1;isolation:auto;mix-blend-mode:normal;color-interpolation:sRGB;color-interpolation-filters:linearRGB;solid-color:#000000;solid-opacity:1;vector-effect:none;fill:#1f567d;fill-opacity:1;fill-rule:nonzero;stroke:none;stroke-width:1.84920228;stroke-linecap:round;stroke-linejoin:miter;stroke-miterlimit:4;stroke-dasharray:none;stroke-dashoffset:0;stroke-opacity:1;paint-order:fill markers stroke;color-rendering:auto;image-rendering:auto;shape-rendering:auto;text-rendering:auto;enable-background:accumulate"
         d="m -256.94238,88.515586 -4.18239,2.415563 v 4.829138 l 4.18239,2.41556 4.18339,-2.41556 v -4.829138 l -0.25511,-0.147485 z m 0,1.178883 3.16295,1.825623 v 3.651245 l -3.16295,1.82563 -3.16196,-1.82563 v -3.651245 z"
         id="path843"
         inkscape:connector-curvature="0" />
      <path
         style="color:#000000;font-style:normal;font-variant:normal;font-weight:normal;font-stretch:normal;font-size:medium;line-height:normal;font-family:sans-serif;font-variant-ligatures:normal;font-variant-position:normal;font-variant-caps:normal;font-variant-numeric:normal;font-variant-alternates:normal;font-feature-settings:normal;text-indent:0;text-align:start;text-decoration:none;text-decoration-line:none;text-decoration-style:solid;text-decoration-color:#000000;letter-spacing:normal;word-spacing:normal;text-transform:none;writing-mode:lr-tb;direction:ltr;text-orientation:mixed;dominant-baseline:auto;baseline-shift:baseline;text-anchor:start;white-space:normal;shape-padding:0;clip-rule:nonzero;display:inline;overflow:visible;visibility:visible;opacity:1;isolation:auto;mix-blend-mode:normal;color-interpolation:sRGB;color-interpolation-filters:linearRGB;solid-color:#000000;solid-opacity:1;vector-effect:none;fill:#1f567d;fill-opacity:1;fill-rule:nonzero;stroke:none;stroke-width:1.84920228;stroke-linecap:round;stroke-linejoin:miter;stroke-miterlimit:4;stroke-dasharray:none;stroke-dashoffset:0;stroke-opacity:1;paint-order:fill markers stroke;color-rendering:auto;image-rendering:auto;shape-rendering:auto;text-rendering:auto;enable-background:accumulate"
         d="m -242.76689,80.502573 -4.1824,2.414567 v 4.830129 l 4.1824,2.414566 4.18339,-2.414566 V 82.91714 l -0.25511,-0.147486 z m 0,1.177886 3.16294,1.825623 v 3.652244 l -3.16294,1.825624 -3.16196,-1.825624 v -3.652244 z"
         id="path845"
         inkscape:connector-curvature="0" />
      <path
         style="color:#000000;font-style:normal;font-variant:normal;font-weight:normal;font-stretch:normal;font-size:medium;line-height:normal;font-family:sans-serif;font-variant-ligatures:normal;font-variant-position:normal;font-variant-caps:normal;font-variant-numeric:normal;font-variant-alternates:normal;font-feature-settings:normal;text-indent:0;text-align:start;text-decoration:none;text-decoration-line:none;text-decoration-style:solid;text-decoration-color:#000000;letter-spacing:normal;word-spacing:normal;text-transform:none;writing-mode:lr-tb;direction:ltr;text-orientation:mixed;dominant-baseline:auto;baseline-shift:baseline;text-anchor:start;white-space:normal;shape-padding:0;clip-rule:nonzero;display:inline;overflow:visible;visibility:visible;opacity:1;isolation:auto;mix-blend-mode:normal;color-interpolation:sRGB;color-interpolation-filters:linearRGB;solid-color:#000000;solid-opacity:1;vector-effect:none;fill:#1f567d;fill-opacity:1;fill-rule:nonzero;stroke:none;stroke-width:1.84920228;stroke-linecap:round;stroke-linejoin:miter;stroke-miterlimit:4;stroke-dasharray:none;stroke-dashoffset:0;stroke-opacity:1;paint-order:fill markers stroke;color-rendering:auto;image-rendering:auto;shape-rendering:auto;text-rendering:auto;enable-background:accumulate"
         d="m -252.19397,80.502573 -4.18239,2.414567 v 4.830129 l 4.18239,2.414566 4.18339,-2.414566 V 82.91714 l -0.25511,-0.147486 z m 0,1.177886 3.16296,1.825623 v 3.652244 l -3.16296,1.825624 -3.16195,-1.825624 v -3.652244 z"
         id="path847"
         inkscape:connector-curvature="0" />
      <path
         style="color:#000000;font-style:normal;font-variant:normal;font-weight:normal;font-stretch:normal;font-size:medium;line-height:normal;font-family:sans-serif;font-variant-ligatures:normal;font-variant-position:normal;font-variant-caps:normal;font-variant-numeric:normal;font-variant-alternates:normal;font-feature-settings:normal;text-indent:0;text-align:start;text-decoration:none;text-decoration-line:none;text-decoration-style:solid;text-decoration-color:#000000;letter-spacing:normal;word-spacing:normal;text-transform:none;writing-mode:lr-tb;direction:ltr;text-orientation:mixed;dominant-baseline:auto;baseline-shift:baseline;text-anchor:start;white-space:normal;shape-padding:0;clip-rule:nonzero;display:inline;overflow:visible;visibility:visible;opacity:1;isolation:auto;mix-blend-mode:normal;color-interpolation:sRGB;color-interpolation-filters:linearRGB;solid-color:#000000;solid-opacity:1;vector-effect:none;fill:#1f567d;fill-opacity:1;fill-rule:nonzero;stroke:none;stroke-width:1.84920228;stroke-linecap:round;stroke-linejoin:miter;stroke-miterlimit:4;stroke-dasharray:none;stroke-dashoffset:0;stroke-opacity:1;paint-order:fill markers stroke;color-rendering:auto;image-rendering:auto;shape-rendering:auto;text-rendering:auto;enable-background:accumulate"
         d="m -242.76689,96.602337 -4.1824,2.41557 v 4.830123 l 4.1824,2.41457 4.18339,-2.41457 v -4.830123 l -0.25511,-0.14748 z m 0,1.17889 3.16294,1.82562 v 3.651253 l -3.16294,1.82662 -3.16196,-1.82662 v -3.651253 z"
         id="path849"
         inkscape:connector-curvature="0" />
      <path
         style="color:#000000;font-style:normal;font-variant:normal;font-weight:normal;font-stretch:normal;font-size:medium;line-height:normal;font-family:sans-serif;font-variant-ligatures:normal;font-variant-position:normal;font-variant-caps:normal;font-variant-numeric:normal;font-variant-alternates:normal;font-feature-settings:normal;text-indent:0;text-align:start;text-decoration:none;text-decoration-line:none;text-decoration-style:solid;text-decoration-color:#000000;letter-spacing:normal;word-spacing:normal;text-transform:none;writing-mode:lr-tb;direction:ltr;text-orientation:mixed;dominant-baseline:auto;baseline-shift:baseline;text-anchor:start;white-space:normal;shape-padding:0;clip-rule:nonzero;display:inline;overflow:visible;visibility:visible;opacity:1;isolation:auto;mix-blend-mode:normal;color-interpolation:sRGB;color-interpolation-filters:linearRGB;solid-color:#000000;solid-opacity:1;vector-effect:none;fill:#1f567d;fill-opacity:1;fill-rule:nonzero;stroke:none;stroke-width:1.84920228;stroke-linecap:round;stroke-linejoin:miter;stroke-miterlimit:4;stroke-dasharray:none;stroke-dashoffset:0;stroke-opacity:1;paint-order:fill markers stroke;color-rendering:auto;image-rendering:auto;shape-rendering:auto;text-rendering:auto;enable-background:accumulate"
         d="m -252.19397,96.602337 -4.18239,2.41557 v 4.830123 l 4.18239,2.41457 4.18339,-2.41457 v -4.830123 l -0.25511,-0.14748 z m 0,1.17889 3.16296,1.82562 v 3.651253 l -3.16296,1.82662 -3.16195,-1.82662 v -3.651253 z"
         id="path851"
         inkscape:connector-curvature="0" />
    </g>
    <g
       id="g1242"
       transform="translate(90.017927,211.30638)" />
    <g
       id="g1252"
       transform="matrix(1,0,0,0.94000948,-271.33151,30.97198)"
       style="fill:none;fill-opacity:1;stroke-width:1.03141606">
      <path
         style="fill:none;fill-opacity:1;stroke:none;stroke-width:0.27289549px;stroke-linecap:butt;stroke-linejoin:miter;stroke-opacity:1"
         d="m 257.15964,-11.381077 -0.3607,19.019183 c 0,0 19.1183,-0.181147 19.1183,-0.181147 z"
         id="path1233"
         inkscape:connector-curvature="0" />
      <path
         inkscape:connector-curvature="0"
         id="path1192"
         d="m 199.89595,-11.635484 h 57.27009 l 19.09001,19.09002 v 77.82859 h -76.3601 z"
         style="fill:none;fill-opacity:1;stroke:#1f567d;stroke-width:2.06283212;stroke-linecap:butt;stroke-linejoin:round;stroke-miterlimit:4;stroke-dasharray:none;stroke-opacity:1" />
      <path
         inkscape:connector-curvature="0"
         id="path1194"
         d="m 257.16604,-11.635484 -0.3671,19.27359 h 19.45711"
         style="fill:none;fill-opacity:1;stroke:#1f567d;stroke-width:2.06283212;stroke-linecap:butt;stroke-linejoin:round;stroke-miterlimit:4;stroke-dasharray:none;stroke-opacity:1" />
      <rect
         style="opacity:1;fill:none;fill-opacity:1;stroke:none;stroke-width:2.06283212;stroke-linecap:round;stroke-linejoin:round;stroke-miterlimit:4;stroke-dasharray:none;stroke-dashoffset:0;stroke-opacity:1;paint-order:normal"
         id="rect1205"
         width="58.560928"
         height="2.5545573"
         x="208.56718"
         y="76.302589"
         ry="0.70178133" />
    </g>
  </g>
</svg>
