<?xml version="1.0" encoding="UTF-8" standalone="no"?>
<!-- Created with Inkscape (http://www.inkscape.org/) -->

<svg
   xmlns:dc="http://purl.org/dc/elements/1.1/"
   xmlns:cc="http://creativecommons.org/ns#"
   xmlns:rdf="http://www.w3.org/1999/02/22-rdf-syntax-ns#"
   xmlns:svg="http://www.w3.org/2000/svg"
   xmlns="http://www.w3.org/2000/svg"
   xmlns:sodipodi="http://sodipodi.sourceforge.net/DTD/sodipodi-0.dtd"
   xmlns:inkscape="http://www.inkscape.org/namespaces/inkscape"
   width="440.85391mm"
   height="276.20306mm"
   viewBox="0 0 440.85391 276.20307"
   version="1.1"
   id="svg8"
   inkscape:version="0.92.3 (2405546, 2018-03-11)"
   sodipodi:docname="Publications.svg">
  <defs
     id="defs2" />
  <sodipodi:namedview
     id="base"
     pagecolor="#ffffff"
     bordercolor="#666666"
     borderopacity="1.0"
     inkscape:pageopacity="0.0"
     inkscape:pageshadow="2"
     inkscape:zoom="0.50961743"
     inkscape:cx="782.25935"
     inkscape:cy="619.27597"
     inkscape:document-units="mm"
     inkscape:current-layer="g1103"
     showgrid="false"
     inkscape:window-width="1853"
     inkscape:window-height="1025"
     inkscape:window-x="1987"
     inkscape:window-y="27"
     inkscape:window-maximized="1"
     showguides="true"
     inkscape:guide-bbox="true"
     fit-margin-top="20"
     fit-margin-left="20"
     fit-margin-right="20"
     fit-margin-bottom="20"
     inkscape:lockguides="true" />
  <metadata
     id="metadata5">
    <rdf:RDF>
      <cc:Work
         rdf:about="">
        <dc:format>image/svg+xml</dc:format>
        <dc:type
           rdf:resource="http://purl.org/dc/dcmitype/StillImage" />
        <dc:title />
      </cc:Work>
    </rdf:RDF>
  </metadata>
  <g
     inkscape:groupmode="layer"
     id="layer2"
     inkscape:label="Ebene 2"
     transform="translate(110.9598,46.669191)"
     style="display:inline">
    <g
       transform="translate(8.5840019,-28.721425)"
       id="g1103">
      <path
         sodipodi:type="star"
         style="opacity:1;fill:#eef3f6;fill-opacity:1;stroke:#eef3f6;stroke-width:1.3458358;stroke-linecap:round;stroke-linejoin:round;stroke-miterlimit:4;stroke-dasharray:none;stroke-dashoffset:0;stroke-opacity:1;paint-order:fill markers stroke"
         id="path1087"
         sodipodi:sides="6"
         sodipodi:cx="-37.277214"
         sodipodi:cy="169.24493"
         sodipodi:r1="8.3117723"
         sodipodi:r2="7.1982069"
         sodipodi:arg1="-0.52359878"
         sodipodi:arg2="0"
         inkscape:flatsided="true"
         inkscape:rounded="0"
         inkscape:randomized="0"
         d="m -30.079008,165.08905 0,8.31177 -7.198206,4.15589 -7.198206,-4.15589 0,-8.31177 7.198206,-4.15589 z"
         transform="matrix(1.4909359,0,0,1.4812109,34.853696,-64.584596)" />
      <path
         transform="matrix(1.4909359,0,0,1.4812109,62.138661,-64.584596)"
         d="m -30.079008,165.08905 0,8.31177 -7.198206,4.15589 -7.198206,-4.15589 0,-8.31177 7.198206,-4.15589 z"
         inkscape:randomized="0"
         inkscape:rounded="0"
         inkscape:flatsided="true"
         sodipodi:arg2="0"
         sodipodi:arg1="-0.52359878"
         sodipodi:r2="7.1982069"
         sodipodi:r1="8.3117723"
         sodipodi:cy="169.24493"
         sodipodi:cx="-37.277214"
         sodipodi:sides="6"
         id="path1089"
         style="opacity:1;fill:#eef3f6;fill-opacity:1;stroke:#eef3f6;stroke-width:1.3458358;stroke-linecap:round;stroke-linejoin:round;stroke-miterlimit:4;stroke-dasharray:none;stroke-dashoffset:0;stroke-opacity:1;paint-order:fill markers stroke"
         sodipodi:type="star" />
      <path
         transform="matrix(1.4909359,0,0,1.4812109,48.612035,-40.772078)"
         d="m -30.079008,165.08905 0,8.31177 -7.198206,4.15589 -7.198206,-4.15589 0,-8.31177 7.198206,-4.15589 z"
         inkscape:randomized="0"
         inkscape:rounded="0"
         inkscape:flatsided="true"
         sodipodi:arg2="0"
         sodipodi:arg1="-0.52359878"
         sodipodi:r2="7.1982069"
         sodipodi:r1="8.3117723"
         sodipodi:cy="169.24493"
         sodipodi:cx="-37.277214"
         sodipodi:sides="6"
         id="path1091"
         style="opacity:1;fill:#eef3f6;fill-opacity:1;stroke:#eef3f6;stroke-width:1.3458358;stroke-linecap:round;stroke-linejoin:round;stroke-miterlimit:4;stroke-dasharray:none;stroke-dashoffset:0;stroke-opacity:1;paint-order:fill markers stroke"
         sodipodi:type="star" />
      <path
         sodipodi:type="star"
         style="opacity:1;fill:#eef3f6;fill-opacity:1;stroke:#eef3f6;stroke-width:1.3458358;stroke-linecap:round;stroke-linejoin:round;stroke-miterlimit:4;stroke-dasharray:none;stroke-dashoffset:0;stroke-opacity:1;paint-order:fill markers stroke"
         id="path1093"
         sodipodi:sides="6"
         sodipodi:cx="-37.277214"
         sodipodi:cy="169.24493"
         sodipodi:r1="8.3117723"
         sodipodi:r2="7.1982069"
         sodipodi:arg1="-0.52359878"
         sodipodi:arg2="0"
         inkscape:flatsided="true"
         inkscape:rounded="0"
         inkscape:randomized="0"
         d="m -30.079008,165.08905 0,8.31177 -7.198206,4.15589 -7.198206,-4.15589 0,-8.31177 7.198206,-4.15589 z"
         transform="matrix(1.4909359,0,0,1.4812109,75.558299,-218.75749)" />
      <path
         sodipodi:type="star"
         style="opacity:1;fill:#eef3f6;fill-opacity:1;stroke:#eef3f6;stroke-width:1.3458358;stroke-linecap:round;stroke-linejoin:round;stroke-miterlimit:4;stroke-dasharray:none;stroke-dashoffset:0;stroke-opacity:1;paint-order:fill markers stroke"
         id="path1095"
         sodipodi:sides="6"
         sodipodi:cx="-37.277214"
         sodipodi:cy="169.24493"
         sodipodi:r1="8.3117723"
         sodipodi:r2="7.1982069"
         sodipodi:arg1="-0.52359878"
         sodipodi:arg2="0"
         inkscape:flatsided="true"
         inkscape:rounded="0"
         inkscape:randomized="0"
         d="m -30.079008,165.08905 0,8.31177 -7.198206,4.15589 -7.198206,-4.15589 0,-8.31177 7.198206,-4.15589 z"
         transform="matrix(1.4909359,0,0,1.4812109,-26.579465,-77.803653)" />
      <path
         transform="matrix(1.4909359,0,0,1.4812109,21.392825,-40.772078)"
         d="m -30.079008,165.08905 0,8.31177 -7.198206,4.15589 -7.198206,-4.15589 0,-8.31177 7.198206,-4.15589 z"
         inkscape:randomized="0"
         inkscape:rounded="0"
         inkscape:flatsided="true"
         sodipodi:arg2="0"
         sodipodi:arg1="-0.52359878"
         sodipodi:r2="7.1982069"
         sodipodi:r1="8.3117723"
         sodipodi:cy="169.24493"
         sodipodi:cx="-37.277214"
         sodipodi:sides="6"
         id="path1097"
         style="opacity:1;fill:#eef3f6;fill-opacity:1;stroke:#eef3f6;stroke-width:1.3458358;stroke-linecap:round;stroke-linejoin:round;stroke-miterlimit:4;stroke-dasharray:none;stroke-dashoffset:0;stroke-opacity:1;paint-order:fill markers stroke"
         sodipodi:type="star" />
      <path
         transform="matrix(1.4909359,0,0,1.4812109,266.68654,-101.42274)"
         d="m -30.079008,165.08905 0,8.31177 -7.198206,4.15589 -7.198206,-4.15589 0,-8.31177 7.198206,-4.15589 z"
         inkscape:randomized="0"
         inkscape:rounded="0"
         inkscape:flatsided="true"
         sodipodi:arg2="0"
         sodipodi:arg1="-0.52359878"
         sodipodi:r2="7.1982069"
         sodipodi:r1="8.3117723"
         sodipodi:cy="169.24493"
         sodipodi:cx="-37.277214"
         sodipodi:sides="6"
         id="path1105"
         style="opacity:1;fill:#eef3f6;fill-opacity:1;stroke:#eef3f6;stroke-width:1.3458358;stroke-linecap:round;stroke-linejoin:round;stroke-miterlimit:4;stroke-dasharray:none;stroke-dashoffset:0;stroke-opacity:1;paint-order:fill markers stroke"
         sodipodi:type="star" />
      <path
         sodipodi:type="star"
         style="opacity:1;fill:#eef3f6;fill-opacity:1;stroke:#eef3f6;stroke-width:1.3458358;stroke-linecap:round;stroke-linejoin:round;stroke-miterlimit:4;stroke-dasharray:none;stroke-dashoffset:0;stroke-opacity:1;paint-order:fill markers stroke"
         id="path1107"
         sodipodi:sides="6"
         sodipodi:cx="-37.277214"
         sodipodi:cy="169.24493"
         sodipodi:r1="8.3117723"
         sodipodi:r2="7.1982069"
         sodipodi:arg1="-0.52359878"
         sodipodi:arg2="0"
         inkscape:flatsided="true"
         inkscape:rounded="0"
         inkscape:randomized="0"
         d="m -30.079008,165.08905 0,8.31177 -7.198206,4.15589 -7.198206,-4.15589 0,-8.31177 7.198206,-4.15589 z"
         transform="matrix(1.4909359,0,0,1.4812109,341.97768,-128.42011)" />
    </g>
    <g
       id="g1283"
       transform="translate(212.76421,-19.554141)">
      <path
         style="display:inline;fill:#1f567d;fill-opacity:1;fill-rule:evenodd;stroke:none;stroke-width:0.26458332;enable-background:new"
         d="m -0.45922886,-7.1150498 -1.31929594,0.02752 -1.347152,0.05504 -1.319296,0.08223 -1.319635,0.110082 -1.291777,0.1376007 -1.2921114,0.192307 -1.2921101,0.2198274 -1.2917777,0.247347 -1.23707,0.274867 -1.264593,0.302389 -1.237069,0.329907 -1.23707,0.357429 -1.209552,0.412134 -1.182035,0.412469 -1.209553,0.439653 -1.154504,0.494695 -1.154511,0.49503 -1.154512,0.549735 -1.126994,0.549735 -1.09947,0.57725497 -1.099801,0.63195997 -1.09947,0.63229597 -1.044767,0.65981699 -1.044429,0.6870009 -1.044767,0.714856 -0.989388,0.7420421 -0.989726,0.7420421 -0.989726,0.797418 -0.934346,0.797082 -0.934685,0.824603 -0.907161,0.852122 -0.907167,0.879643 -0.879638,0.879308 -0.824602,0.907164 -0.852464,0.9346827 -0.797079,0.961869 -0.769562,0.962206 -0.769899,0.989388 -0.742044,1.017245 -0.714852,1.04443 -0.687003,1.044428 -0.659817,1.044766 -0.632294,1.07195 -0.604776,1.09947 -0.604776,1.12699 -0.549735,1.126991 -0.549735,1.12699 -0.495032,1.181695 -0.46717,1.154511 -0.467514,1.182031 -0.412129,1.209551 -0.412474,1.209216 -0.357426,1.237072 -0.329571,1.237071 -0.302391,1.236735 -0.275205,1.264594 -0.247344,1.291776 -0.219826,1.264592 -0.164786,1.291776 -0.165123,1.319296 -0.109744,1.319298 -0.08256,1.319634 -0.05507,1.319296 v 1.346817 1.346817 l 0.05507,1.319633 0.08256,1.319296 0.109744,1.319298 0.165123,1.319633 0.164786,1.291775 0.219826,1.291777 0.247344,1.264593 0.275205,1.264256 0.302391,1.237071 0.329571,1.236734 0.357426,1.23707 0.412474,1.209552 0.412129,1.209214 0.467514,1.182035 0.46717,1.182029 0.495032,1.154511 0.549735,1.126987 0.549735,1.126994 0.604776,1.126988 0.604776,1.09947 0.632294,1.071952 0.659817,1.071947 0.687003,1.044429 0.714852,1.017249 0.742044,1.016906 0.769899,0.989388 0.769562,0.962208 0.797079,0.962202 0.852464,0.934347 0.824602,0.907167 0.879638,0.879651 0.907167,0.87963 0.907161,0.852133 0.934685,0.824596 0.934346,0.797085 0.989726,0.797079 0.979659,0.76184 9.75058,-12.995292 -0.03689,-0.02585 -1.346821,-1.044422 -1.292111,-1.126994 -1.237069,-1.182035 -1.182035,-1.237069 -1.126988,-1.319297 -1.071952,-1.34682 -0.98972,-1.401855 -0.934684,-1.429372 -0.852127,-1.511944 -0.412467,-0.742044 -0.384611,-0.797079 -0.357433,-0.769562 -0.357426,-0.797423 -0.329908,-0.824596 -0.302385,-0.797083 -0.302391,-0.824603 -0.274868,-0.852123 -0.247344,-0.824602 -0.219833,-0.852123 -0.220157,-0.879643 -0.19231,-0.852123 -0.164785,-0.879308 -0.137599,-0.879643 -0.137268,-0.879643 -0.08256,-0.907164 -0.08256,-0.907164 -0.05507,-0.906827 -0.05501,-0.907164 v -0.93468 -0.934348 l 0.05501,-0.907164 0.05507,-0.907162 0.08256,-0.907165 0.08256,-0.879643 0.137268,-0.906827 0.137599,-0.879643 0.164785,-0.879642 0.19231,-0.852125 0.220157,-0.879643 0.219833,-0.852121 0.247344,-0.824604 0.274868,-0.852123 0.302391,-0.824603 0.302385,-0.797082 0.329908,-0.824603 0.357426,-0.797082 0.357433,-0.76956 0.384611,-0.769898 0.412467,-0.769563 0.852127,-1.511939 0.934684,-1.429042 0.98972,-1.401857 1.071952,-1.347155 1.126988,-1.291776 1.182035,-1.264256 1.237069,-1.18203 1.292111,-1.099471 1.346821,-1.07195 1.401854,-0.989725 1.457234,-0.934683 1.484421,-0.852124 0.769561,-0.412132 0.769561,-0.38495 0.797423,-0.357093 0.797079,-0.357429 0.797085,-0.329908 0.824935,-0.302388 0.824601,-0.302387 0.824603,-0.274868 0.852127,-0.247349 0.8521184,-0.219826 0.8521267,-0.219827 0.8524564,-0.1926417 0.8796424,-0.164786 0.8796447,-0.137602 0.9071606,-0.137266 0.879643,-0.08256 0.907167,-0.08222 0.907161,-0.05504 0.934348,-0.05504 h 0.90715994 0.93468597 l 0.90716689,0.05504 0.90716,0.05504 0.9071611,0.08222 0.907168,0.08256 0.8796431,0.137266 0.879645,0.137602 0.879643,0.164786 0.879635,0.1926417 0.852128,0.219827 0.85212,0.219826 0.8524638,0.247349 0.824601,0.274868 0.824599,0.302387 0.824604,0.302388 0.797416,0.329908 0.797087,0.357429 0.797079,0.357093 0.769899,0.38495 0.769561,0.412132 1.48442,0.852124 1.456896,0.934683 1.401861,0.989725 1.347152,1.07195 1.292111,1.099471 1.236738,1.18203 1.182028,1.264256 1.127325,1.291776 1.044429,1.347155 1.01725,1.401857 0.907161,1.429042 0.879643,1.511939 0.384612,0.769563 0.38495,0.769898 0.384949,0.76956 0.329909,0.797082 0.329908,0.824603 0.329571,0.797082 0.275206,0.824603 0.274867,0.852123 0.247344,0.824604 0.24735,0.852121 0.192303,0.879643 0.192647,0.852125 0.164785,0.879642 0.165117,0.879643 0.109751,0.906827 0.110082,0.879643 0.08256,0.907165 0.05468,0.907162 0.02754,0.907164 0.02754,0.934348 -0.02754,0.934684 -0.02754,0.907163 -0.05468,0.906828 -0.08256,0.907164 -0.110082,0.907164 -0.109751,0.879643 -0.165117,0.879643 -0.164785,0.879308 -0.192647,0.852122 -0.192303,0.879643 -0.24735,0.852124 -0.247344,0.824601 -0.274867,0.852124 -0.275206,0.824603 -0.329571,0.797079 -0.329908,0.824603 -0.329909,0.797423 -0.384949,0.769561 -0.38495,0.797079 -0.384612,0.742045 -0.879643,1.511937 -0.907161,1.429378 -1.01725,1.401855 -1.044429,1.34682 -1.127325,1.319297 -1.182028,1.23707 -1.236738,1.182034 -1.292111,1.126988 -1.347152,1.044429 -0.02851,0.02013 9.745882,12.998312 0.975964,-0.759157 0.962209,-0.797079 0.962201,-0.797085 0.934685,-0.824603 0.907161,-0.852126 0.907161,-0.879637 0.852126,-0.879644 0.85212,-0.907167 0.824603,-0.934347 0.824602,-0.962202 0.769899,-0.962209 0.769562,-0.989388 0.714858,-1.016905 0.714521,-1.01725 0.687334,-1.044429 0.659817,-1.071946 0.659817,-1.071953 0.604777,-1.09947 0.577252,-1.126987 0.577259,-1.126994 0.522211,-1.126988 0.522218,-1.154511 0.467508,-1.182028 0.439653,-1.182035 0.439991,-1.209215 0.384612,-1.209552 0.357432,-1.237069 0.357426,-1.236738 0.302391,-1.237071 0.274868,-1.264257 0.247344,-1.264592 0.192646,-1.291777 0.192303,-1.291775 0.1376,-1.319633 0.137268,-1.319298 0.08256,-1.319297 0.02754,-1.319633 0.02754,-1.346817 -0.02754,-1.346817 -0.02754,-1.319296 -0.08256,-1.319633 -0.137268,-1.319298 -0.1376,-1.319296 L 50.89104,36.919788 50.698394,35.655197 50.45105,34.36342 50.176182,33.098828 49.873791,31.862093 49.516365,30.625021 49.158933,29.387948 48.774321,28.178733 48.33433,26.969182 47.894677,25.78715 47.427169,24.63264 46.904951,23.450945 46.38274,22.323955 45.805481,21.196964 45.228229,20.069974 44.623452,18.970504 43.963635,17.898554 43.303818,16.853788 42.616484,15.80936 41.901963,14.764929 41.187105,13.747685 40.417543,12.758296 39.647644,11.796091 38.823042,10.834222 37.998439,9.8995383 37.146319,8.9923753 36.294193,8.1130673 35.387032,7.2334243 34.479871,6.3813013 33.545186,5.5566993 32.582985,4.7596163 31.620776,3.9621983 30.631388,3.2201572 29.614145,2.4781151 28.597233,1.7632581 27.552466,1.0762582 26.480501,0.41645421 l -1.072284,-0.63229597 -1.09947,-0.63195997 -1.09947,-0.57725597 -1.126994,-0.549735 -1.154843,-0.549735 -1.154511,-0.49503 -1.182035,-0.494694 -1.182028,-0.439654 -1.209552,-0.412469 -1.209552,-0.412133 -1.209554,-0.357429 -1.236733,-0.329908 -1.264593,-0.302388 -1.264595,-0.274867 -1.2645858,-0.247347 -1.291779,-0.2198284 -1.292113,-0.192306 -1.319295,-0.1376017 -1.2921111,-0.110081 -1.3196341,-0.08222 -1.34682092,-0.05504 z"
         id="path6869"
         inkscape:connector-curvature="0" />
      <path
         d="m 6.8706893,39.822694 10e-8,8.311773 -7.19820601,4.155886 -7.19820599,-4.155886 -1e-7,-8.311773 7.19820602,-4.155886 z"
         inkscape:randomized="0"
         inkscape:rounded="0"
         inkscape:flatsided="true"
         sodipodi:arg2="0"
         sodipodi:arg1="-0.52359878"
         sodipodi:r2="7.1982069"
         sodipodi:r1="8.3117723"
         sodipodi:cy="43.97858"
         sodipodi:cx="-0.32751665"
         sodipodi:sides="6"
         id="path839"
         style="opacity:1;fill:none;fill-opacity:0.66334994;stroke:#1f567d;stroke-width:2;stroke-linecap:round;stroke-linejoin:miter;stroke-miterlimit:4;stroke-dasharray:none;stroke-dashoffset:0;stroke-opacity:1;paint-order:fill markers stroke"
         sodipodi:type="star" />
      <path
         sodipodi:type="star"
         style="opacity:1;fill:none;fill-opacity:0.66334994;stroke:#1f567d;stroke-width:2;stroke-linecap:round;stroke-linejoin:miter;stroke-miterlimit:4;stroke-dasharray:none;stroke-dashoffset:0;stroke-opacity:1;paint-order:fill markers stroke"
         id="path841"
         sodipodi:sides="6"
         sodipodi:cx="18.14942"
         sodipodi:cy="43.97858"
         sodipodi:r1="8.3117723"
         sodipodi:r2="7.1982069"
         sodipodi:arg1="-0.52359878"
         sodipodi:arg2="0"
         inkscape:flatsided="true"
         inkscape:rounded="0"
         inkscape:randomized="0"
         d="m 25.347626,39.822694 0,8.311773 -7.198206,4.155886 -7.198206,-4.155886 0,-8.311773 7.198206,-4.155886 z" />
      <path
         d="m -11.60626,39.822694 0,8.311773 -7.198206,4.155886 -7.198206,-4.155886 0,-8.311773 7.198206,-4.155886 z"
         inkscape:randomized="0"
         inkscape:rounded="0"
         inkscape:flatsided="true"
         sodipodi:arg2="0"
         sodipodi:arg1="-0.52359878"
         sodipodi:r2="7.1982069"
         sodipodi:r1="8.3117723"
         sodipodi:cy="43.97858"
         sodipodi:cx="-18.804466"
         sodipodi:sides="6"
         id="path843"
         style="opacity:1;fill:none;fill-opacity:0.66334994;stroke:#1f567d;stroke-width:2;stroke-linecap:round;stroke-linejoin:miter;stroke-miterlimit:4;stroke-dasharray:none;stroke-dashoffset:0;stroke-opacity:1;paint-order:fill markers stroke"
         sodipodi:type="star" />
      <path
         sodipodi:type="star"
         style="opacity:1;fill:none;fill-opacity:0.66334994;stroke:#1f567d;stroke-width:2;stroke-linecap:round;stroke-linejoin:miter;stroke-miterlimit:4;stroke-dasharray:none;stroke-dashoffset:0;stroke-opacity:1;paint-order:fill markers stroke"
         id="path845"
         sodipodi:sides="6"
         sodipodi:cx="8.9793911"
         sodipodi:cy="28.272427"
         sodipodi:r1="8.3117723"
         sodipodi:r2="7.1982069"
         sodipodi:arg1="-0.52359878"
         sodipodi:arg2="0"
         inkscape:flatsided="true"
         inkscape:rounded="0"
         inkscape:randomized="0"
         d="m 16.177597,24.11654 0,8.311773 -7.1982059,4.155886 -7.198206,-4.155886 0,-8.311773 7.198206,-4.155886 z" />
      <path
         sodipodi:type="star"
         style="opacity:1;fill:none;fill-opacity:0.66334994;stroke:#1f567d;stroke-width:2;stroke-linecap:round;stroke-linejoin:miter;stroke-miterlimit:4;stroke-dasharray:none;stroke-dashoffset:0;stroke-opacity:1;paint-order:fill markers stroke"
         id="path847"
         sodipodi:sides="6"
         sodipodi:cx="-9.4975557"
         sodipodi:cy="28.272427"
         sodipodi:r1="8.3117723"
         sodipodi:r2="7.1982069"
         sodipodi:arg1="-0.52359878"
         sodipodi:arg2="0"
         inkscape:flatsided="true"
         inkscape:rounded="0"
         inkscape:randomized="0"
         d="m -2.2993497,24.11654 0,8.311773 -7.198206,4.155886 -7.1982063,-4.155886 0,-8.311773 7.1982062,-4.155886 z" />
      <path
         d="m 16.177597,55.672666 0,8.311772 -7.1982059,4.155887 -7.198206,-4.155887 0,-8.311772 7.198206,-4.155886 z"
         inkscape:randomized="0"
         inkscape:rounded="0"
         inkscape:flatsided="true"
         sodipodi:arg2="0"
         sodipodi:arg1="-0.52359878"
         sodipodi:r2="7.1982069"
         sodipodi:r1="8.3117723"
         sodipodi:cy="59.828552"
         sodipodi:cx="8.9793911"
         sodipodi:sides="6"
         id="path849"
         style="opacity:1;fill:none;fill-opacity:0.66334994;stroke:#1f567d;stroke-width:2;stroke-linecap:round;stroke-linejoin:miter;stroke-miterlimit:4;stroke-dasharray:none;stroke-dashoffset:0;stroke-opacity:1;paint-order:fill markers stroke"
         sodipodi:type="star" />
      <path
         d="m -2.2993497,55.672666 0,8.311772 -7.198206,4.155887 -7.1982063,-4.155887 0,-8.311772 7.1982062,-4.155886 z"
         inkscape:randomized="0"
         inkscape:rounded="0"
         inkscape:flatsided="true"
         sodipodi:arg2="0"
         sodipodi:arg1="-0.52359878"
         sodipodi:r2="7.1982069"
         sodipodi:r1="8.3117723"
         sodipodi:cy="59.828552"
         sodipodi:cx="-9.4975557"
         sodipodi:sides="6"
         id="path851"
         style="opacity:1;fill:none;fill-opacity:0.66334994;stroke:#1f567d;stroke-width:2;stroke-linecap:round;stroke-linejoin:miter;stroke-miterlimit:4;stroke-dasharray:none;stroke-dashoffset:0;stroke-opacity:1;paint-order:fill markers stroke"
         sodipodi:type="star" />
    </g>
    <g
       id="g1273"
       transform="translate(10.583334)">
      <rect
         ry="15.501633"
         y="44.430298"
         x="21.114292"
         height="136.04021"
         width="164.37076"
         id="rect1198"
         style="opacity:1;fill:#ffffff;fill-opacity:1;stroke:#000000;stroke-width:2;stroke-linecap:round;stroke-linejoin:round;stroke-miterlimit:4;stroke-dasharray:none;stroke-dashoffset:0;stroke-opacity:1;paint-order:normal" />
      <path
         inkscape:connector-curvature="0"
         id="path1200"
         d="M 20.322017,158.71529 H 185.26073"
         style="fill:none;stroke:#000000;stroke-width:2;stroke-linecap:butt;stroke-linejoin:miter;stroke-miterlimit:4;stroke-dasharray:none;stroke-opacity:1" />
      <circle
         r="4.2763124"
         cy="169.23979"
         cx="102.90413"
         id="path1202"
         style="opacity:1;fill:#bed2e0;fill-opacity:1;stroke:#000000;stroke-width:2;stroke-linecap:round;stroke-linejoin:round;stroke-miterlimit:4;stroke-dasharray:none;stroke-dashoffset:0;stroke-opacity:1;paint-order:normal" />
      <rect
         style="opacity:1;fill:#eef3f6;fill-opacity:1;stroke:none;stroke-width:1.99999988;stroke-linecap:round;stroke-linejoin:round;stroke-miterlimit:4;stroke-dasharray:none;stroke-dashoffset:0;stroke-opacity:1;paint-order:normal"
         id="rect1204"
         width="151.83965"
         height="101.48289"
         x="27.015692"
         y="50.866261"
         ry="11.563864" />
      <path
         inkscape:connector-curvature="0"
         id="rect1032"
         d="M 133.88416,51.205149 75.292867,152.68838 h 91.685913 c 6.40638,0 11.56363,-5.15777 11.56363,-11.56415 V 62.769301 c 0,-6.40638 -5.15725,-11.564152 -11.56363,-11.564152 z"
         style="opacity:1;fill:#e5eef3;fill-opacity:1;stroke:none;stroke-width:1.99999988;stroke-linecap:round;stroke-linejoin:round;stroke-miterlimit:4;stroke-dasharray:none;stroke-dashoffset:0;stroke-opacity:1;paint-order:normal" />
      <path
         inkscape:connector-curvature="0"
         id="path936"
         d="M 56.126602,208.53378 H 149.67093"
         style="fill:none;stroke:#000000;stroke-width:2;stroke-linecap:round;stroke-linejoin:miter;stroke-miterlimit:4;stroke-dasharray:none;stroke-opacity:1" />
      <path
         inkscape:connector-curvature="0"
         id="path938"
         d="m 80.697916,209.12053 7.785825,-29.0571"
         style="fill:none;stroke:#000000;stroke-width:2;stroke-linecap:butt;stroke-linejoin:miter;stroke-miterlimit:4;stroke-dasharray:none;stroke-opacity:1" />
      <path
         style="fill:none;stroke:#000000;stroke-width:2;stroke-linecap:butt;stroke-linejoin:miter;stroke-miterlimit:4;stroke-dasharray:none;stroke-opacity:1"
         d="m 124.99633,209.12053 -7.78583,-29.0571"
         id="path940"
         inkscape:connector-curvature="0" />
      <rect
         ry="1.5575485"
         y="124.31268"
         x="39.116943"
         height="5.6696391"
         width="58.510601"
         id="rect993"
         style="opacity:1;fill:#1f567d;fill-opacity:1;stroke:none;stroke-width:2;stroke-linecap:round;stroke-linejoin:round;stroke-miterlimit:4;stroke-dasharray:none;stroke-dashoffset:0;stroke-opacity:1;paint-order:normal" />
      <rect
         ry="11.563864"
         y="50.866272"
         x="27.015688"
         height="101.48289"
         width="151.83965"
         id="rect1041"
         style="opacity:1;fill:none;fill-opacity:1;stroke:#000000;stroke-width:1.99999988;stroke-linecap:round;stroke-linejoin:round;stroke-miterlimit:4;stroke-dasharray:none;stroke-dashoffset:0;stroke-opacity:1;paint-order:normal" />
      <circle
         style="opacity:1;fill:#bed2e0;fill-opacity:1;stroke:#000000;stroke-width:2;stroke-linecap:round;stroke-linejoin:round;stroke-miterlimit:4;stroke-dasharray:none;stroke-dashoffset:0;stroke-opacity:1;paint-order:normal"
         id="circle1164"
         cx="48.709694"
         cy="94.297241"
         r="8.5595503" />
      <rect
         style="opacity:1;fill:#1f567d;fill-opacity:1;stroke:none;stroke-width:2;stroke-linecap:round;stroke-linejoin:round;stroke-miterlimit:4;stroke-dasharray:none;stroke-dashoffset:0;stroke-opacity:1;paint-order:normal"
         id="rect1166"
         width="58.510601"
         height="5.6696391"
         x="39.116936"
         y="113.3513"
         ry="1.5575485" />
      <rect
         ry="0.70178133"
         y="90.52739"
         x="64.81636"
         height="2.5545573"
         width="100.04503"
         id="rect1168"
         style="opacity:1;fill:#000000;fill-opacity:1;stroke:none;stroke-width:1.99999976;stroke-linecap:round;stroke-linejoin:round;stroke-miterlimit:4;stroke-dasharray:none;stroke-dashoffset:0;stroke-opacity:1;paint-order:normal" />
      <rect
         style="opacity:1;fill:#000000;fill-opacity:1;stroke:none;stroke-width:1.99999976;stroke-linecap:round;stroke-linejoin:round;stroke-miterlimit:4;stroke-dasharray:none;stroke-dashoffset:0;stroke-opacity:1;paint-order:normal"
         id="rect1170"
         width="56.17429"
         height="2.5545573"
         x="64.81636"
         y="95.819054"
         ry="0.70178133" />
      <rect
         style="opacity:1;fill:#1f567d;fill-opacity:1;stroke:none;stroke-width:2;stroke-linecap:round;stroke-linejoin:round;stroke-miterlimit:4;stroke-dasharray:none;stroke-dashoffset:0;stroke-opacity:1;paint-order:normal"
         id="rect1172"
         width="58.510601"
         height="5.6696391"
         x="39.116943"
         y="134.89595"
         ry="1.5575485" />
      <rect
         style="opacity:1;fill:#1f567d;fill-opacity:1;stroke:none;stroke-width:2;stroke-linecap:round;stroke-linejoin:round;stroke-miterlimit:4;stroke-dasharray:none;stroke-dashoffset:0;stroke-opacity:1;paint-order:normal"
         id="rect1174"
         width="58.510601"
         height="5.6696391"
         x="106.32111"
         y="124.31268"
         ry="1.5575485" />
      <rect
         ry="1.5575485"
         y="113.3513"
         x="106.32111"
         height="5.6696391"
         width="58.510601"
         id="rect1176"
         style="opacity:1;fill:#1f567d;fill-opacity:1;stroke:none;stroke-width:2;stroke-linecap:round;stroke-linejoin:round;stroke-miterlimit:4;stroke-dasharray:none;stroke-dashoffset:0;stroke-opacity:1;paint-order:normal" />
      <rect
         ry="1.5575485"
         y="134.89595"
         x="106.32111"
         height="5.6696391"
         width="58.510601"
         id="rect1178"
         style="opacity:1;fill:#1f567d;fill-opacity:1;stroke:none;stroke-width:2;stroke-linecap:round;stroke-linejoin:round;stroke-miterlimit:4;stroke-dasharray:none;stroke-dashoffset:0;stroke-opacity:1;paint-order:normal" />
      <rect
         y="64.516998"
         x="39.636116"
         height="9.0856552"
         width="124.67642"
         id="rect1180"
         style="opacity:1;fill:#1f567d;fill-opacity:1;stroke:#000000;stroke-width:2;stroke-linecap:round;stroke-linejoin:round;stroke-miterlimit:4;stroke-dasharray:none;stroke-dashoffset:0;stroke-opacity:1;paint-order:normal" />
    </g>
    <g
       id="g1242"
       transform="translate(90.017927,211.30638)">
      <path
         style="fill:#bed2e0;fill-opacity:1;stroke:none;stroke-width:0.26458332px;stroke-linecap:butt;stroke-linejoin:miter;stroke-opacity:1"
         d="m -103.68066,-189.95893 -0.34062,17.96066 c 0,0 18.054264,-0.17107 18.054264,-0.17107 z"
         id="path1285"
         inkscape:connector-curvature="0" />
      <path
         inkscape:connector-curvature="0"
         id="path1231"
         d="m 173.1122,-57.471709 -0.20486,10.801902 c 0,0 10.8582,-0.102882 10.8582,-0.102882 z"
         style="fill:#bed2e0;fill-opacity:1;stroke:#000000;stroke-width:0.26458332px;stroke-linecap:butt;stroke-linejoin:miter;stroke-opacity:1" />
      <path
         style="fill:none;stroke:#000000;stroke-width:2;stroke-linecap:butt;stroke-linejoin:round;stroke-miterlimit:4;stroke-dasharray:none;stroke-opacity:1"
         d="m 141.15215,-57.471709 h 31.96005 l 10.65334,10.69902 v 43.6191044 h -42.61339 z"
         id="path1207"
         inkscape:connector-curvature="0" />
      <path
         style="fill:none;stroke:#000000;stroke-width:2;stroke-linecap:butt;stroke-linejoin:round;stroke-miterlimit:4;stroke-dasharray:none;stroke-opacity:1"
         d="m 173.1122,-57.471709 -0.20486,10.801902 h 10.8582"
         id="path1209"
         inkscape:connector-curvature="0" />
      <rect
         style="opacity:1;fill:#1f567d;fill-opacity:1;stroke:none;stroke-width:2;stroke-linecap:round;stroke-linejoin:round;stroke-miterlimit:4;stroke-dasharray:none;stroke-dashoffset:0;stroke-opacity:1;paint-order:normal"
         id="rect1221"
         width="22.557365"
         height="5.6696391"
         x="145.44281"
         y="-47.273678"
         ry="1.5575485" />
      <rect
         ry="1.5575485"
         y="-34.573662"
         x="145.44281"
         height="5.6696391"
         width="33.719742"
         id="rect1223"
         style="opacity:1;fill:#1f567d;fill-opacity:1;stroke:none;stroke-width:2;stroke-linecap:round;stroke-linejoin:round;stroke-miterlimit:4;stroke-dasharray:none;stroke-dashoffset:0;stroke-opacity:1;paint-order:normal" />
      <rect
         style="opacity:1;fill:#1f567d;fill-opacity:1;stroke:none;stroke-width:2;stroke-linecap:round;stroke-linejoin:round;stroke-miterlimit:4;stroke-dasharray:none;stroke-dashoffset:0;stroke-opacity:1;paint-order:normal"
         id="rect1225"
         width="33.719742"
         height="5.6696391"
         x="145.44281"
         y="-26.636156"
         ry="1.5575485" />
      <rect
         ry="1.5575485"
         y="-13.936143"
         x="145.44281"
         height="5.6696391"
         width="33.719742"
         id="rect1227"
         style="opacity:1;fill:#1f567d;fill-opacity:1;stroke:none;stroke-width:2;stroke-linecap:round;stroke-linejoin:round;stroke-miterlimit:4;stroke-dasharray:none;stroke-dashoffset:0;stroke-opacity:1;paint-order:normal" />
    </g>
    <g
       id="g1252"
       transform="translate(-271.33151,31.669999)"
       style="fill:none;fill-opacity:1">
      <path
         style="fill:none;fill-opacity:1;stroke:none;stroke-width:0.26458332px;stroke-linecap:butt;stroke-linejoin:miter;stroke-opacity:1"
         d="m 257.15964,-11.381077 -0.3607,19.019183 c 0,0 19.1183,-0.181147 19.1183,-0.181147 z"
         id="path1233"
         inkscape:connector-curvature="0" />
      <path
         inkscape:connector-curvature="0"
         id="path1192"
         d="m 199.89595,-11.635484 h 57.27009 l 19.09001,19.09002 v 77.82859 h -76.3601 z"
         style="fill:none;fill-opacity:1;stroke:#000000;stroke-width:2;stroke-linecap:butt;stroke-linejoin:round;stroke-miterlimit:4;stroke-dasharray:none;stroke-opacity:1" />
      <path
         inkscape:connector-curvature="0"
         id="path1194"
         d="m 257.16604,-11.635484 -0.3671,19.27359 h 19.45711"
         style="fill:none;fill-opacity:1;stroke:#000000;stroke-width:2;stroke-linecap:butt;stroke-linejoin:round;stroke-miterlimit:4;stroke-dasharray:none;stroke-opacity:1" />
      <rect
         transform="rotate(-90)"
         y="210.04256"
         x="-70.237106"
         height="9.9121304"
         width="54.333153"
         id="rect1196"
         style="opacity:1;fill:none;fill-opacity:1;stroke:#000000;stroke-width:2;stroke-linecap:round;stroke-linejoin:round;stroke-miterlimit:4;stroke-dasharray:none;stroke-dashoffset:0;stroke-opacity:1;paint-order:normal" />
      <rect
         style="opacity:1;fill:none;fill-opacity:1;stroke:#000000;stroke-width:2;stroke-linecap:round;stroke-linejoin:round;stroke-miterlimit:4;stroke-dasharray:none;stroke-dashoffset:0;stroke-opacity:1;paint-order:normal"
         id="rect1199"
         width="38.914284"
         height="9.9121304"
         x="-70.237106"
         y="225.38863"
         transform="rotate(-90)" />
      <rect
         transform="rotate(-90)"
         y="240.7347"
         x="-70.237106"
         height="9.9121304"
         width="32.489754"
         id="rect1201"
         style="opacity:1;fill:none;fill-opacity:1;stroke:#000000;stroke-width:2;stroke-linecap:round;stroke-linejoin:round;stroke-miterlimit:4;stroke-dasharray:none;stroke-dashoffset:0;stroke-opacity:1;paint-order:normal" />
      <rect
         style="opacity:1;fill:none;fill-opacity:1;stroke:#000000;stroke-width:1.99999988;stroke-linecap:round;stroke-linejoin:round;stroke-miterlimit:4;stroke-dasharray:none;stroke-dashoffset:0;stroke-opacity:1;paint-order:normal"
         id="rect1203"
         width="46.807278"
         height="9.9121304"
         x="-70.237106"
         y="256.08075"
         transform="rotate(-90)" />
      <rect
         style="opacity:1;fill:none;fill-opacity:1;stroke:none;stroke-width:1.99999988;stroke-linecap:round;stroke-linejoin:round;stroke-miterlimit:4;stroke-dasharray:none;stroke-dashoffset:0;stroke-opacity:1;paint-order:normal"
         id="rect1205"
         width="58.560928"
         height="2.5545573"
         x="208.56718"
         y="76.302589"
         ry="0.70178133" />
    </g>
  </g>
</svg>
