<?xml version="1.0" encoding="UTF-8" standalone="no"?>
<svg
   xmlns:dc="http://purl.org/dc/elements/1.1/"
   xmlns:cc="http://creativecommons.org/ns#"
   xmlns:rdf="http://www.w3.org/1999/02/22-rdf-syntax-ns#"
   xmlns:svg="http://www.w3.org/2000/svg"
   xmlns="http://www.w3.org/2000/svg"
   id="svg12"
   y="0px"
   x="0px"
   version="1.1"
   viewBox="0 0 20 20"
   fill="#000000"
   width="100px"
   height="100px">
  <metadata
     id="metadata18">
    <rdf:RDF>
      <cc:Work
         rdf:about="">
        <dc:format>image/svg+xml</dc:format>
        <dc:type
           rdf:resource="http://purl.org/dc/dcmitype/StillImage" />
        <dc:title>ic_new_question_20px</dc:title>
      </cc:Work>
    </rdf:RDF>
  </metadata>
  <defs
     id="defs16" />
  <title
     id="title2">ic_new_question_20px</title>
  <desc
     id="desc4">Created with Sketch.</desc>
  <g
     style="fill:#1f567d;fill-opacity:1"
     id="g10"
     fill-rule="evenodd"
     fill="none"
     stroke-width="1"
     stroke="none">
    <g
       style="fill:#1f567d;fill-opacity:1"
       id="g8"
       fill="#000000">
      <path
         style="fill:#1f567d;fill-opacity:1"
         id="path6"
         d="M9,9 L5.99539757,9 C5.4556644,9 5,9.44771525 5,10 C5,10.5561352 5.44565467,11 5.99539757,11 L9,11 L9,14.0046024 C9,14.5443356 9.44771525,15 10,15 C10.5561352,15 11,14.5543453 11,14.0046024 L11,11 L14.0046024,11 C14.5443356,11 15,10.5522847 15,10 C15,9.44386482 14.5543453,9 14.0046024,9 L11,9 L11,5.99539757 C11,5.4556644 10.5522847,5 10,5 C9.44386482,5 9,5.44565467 9,5.99539757 L9,9 Z M10,20 C4.4771525,20 0,15.5228475 0,10 C0,4.4771525 4.4771525,0 10,0 C15.5228475,0 20,4.4771525 20,10 C20,15.5228475 15.5228475,20 10,20 Z" />
    </g>
  </g>
</svg>
