<?xml version="1.0" encoding="UTF-8" standalone="no"?>
<svg
   xmlns:dc="http://purl.org/dc/elements/1.1/"
   xmlns:cc="http://creativecommons.org/ns#"
   xmlns:rdf="http://www.w3.org/1999/02/22-rdf-syntax-ns#"
   xmlns:svg="http://www.w3.org/2000/svg"
   xmlns="http://www.w3.org/2000/svg"
   id="svg14"
   xml:space="preserve"
   enable-background="new 0 0 54.691 54.691"
   viewBox="0 0 54.691 54.691"
   y="0px"
   x="0px"
   version="1.1"
   fill="#000000"
   width="100px"
   height="100px"><metadata
     id="metadata20"><rdf:RDF><cc:Work
         rdf:about=""><dc:format>image/svg+xml</dc:format><dc:type
           rdf:resource="http://purl.org/dc/dcmitype/StillImage" /><dc:title></dc:title></cc:Work></rdf:RDF></metadata><defs
     id="defs18" /><g
     id="g4"><path
       id="path2"
       d="M-4318.56-68.404c-43.25,0-78.438,35.186-78.438,78.435c0,43.252,35.188,78.439,78.438,78.439s78.436-35.188,78.436-78.439   C-4240.124-33.218-4275.31-68.404-4318.56-68.404z M-4318.867-35.187c13.682,0,24.771,11.092,24.771,24.771   c0,13.681-11.092,24.771-24.771,24.771c-13.683,0-24.771-11.092-24.771-24.771C-4343.639-24.095-4332.55-35.187-4318.867-35.187z    M-4274.686,65.074c-12.042,9.627-27.292,15.396-43.874,15.396c-16.562,0-31.797-5.75-43.834-15.354   c1.116-19.851,14.187-39.903,30.178-39.903h27.332c16.024,0,29.128,19.324,30.197,39.206c0.001,0.002,0.001,0.004,0.001,0.006   C-4274.686,64.427-4274.686,64.786-4274.686,65.074z" /></g><g
     id="g12"><g
       id="g8"><path
         style="fill:#1f567d;fill-opacity:1"
         id="path6"
         d="M27.345,31.137c-5.189,0-9.411-4.222-9.411-9.411s4.222-9.41,9.411-9.41c5.188,0,9.409,4.221,9.409,9.41    S32.533,31.137,27.345,31.137z M27.345,14.874c-3.779,0-6.853,3.074-6.853,6.853s3.074,6.853,6.853,6.853    c3.778,0,6.853-3.074,6.853-6.853S31.124,14.874,27.345,14.874z"
         fill="#000000" /></g><path
       style="fill:#1f567d;fill-opacity:1"
       id="path10"
       d="M27.345,2.272c-13.825,0-25.073,11.248-25.073,25.072c0,13.827,11.248,25.076,25.073,25.076   s25.073-11.249,25.073-25.076C52.419,13.519,41.171,2.272,27.345,2.272z M13.234,44.872c0.101-0.115,0.185-0.249,0.24-0.402   c2.097-5.832,7.672-9.752,13.872-9.752s11.773,3.92,13.871,9.752c0.056,0.153,0.138,0.287,0.239,0.405   c-3.863,3.114-8.771,4.987-14.11,4.987C22.006,49.862,17.098,47.989,13.234,44.872z M43.424,43.085   c-2.599-6.555-8.989-10.923-16.078-10.923c-7.089,0-13.479,4.368-16.08,10.923c-3.978-4.063-6.437-9.618-6.437-15.741   c0-12.415,10.101-22.515,22.517-22.515c12.415,0,22.516,10.101,22.516,22.515C49.861,33.467,47.402,39.021,43.424,43.085z"
       fill="#000000" /></g></svg>