<?xml version="1.0" encoding="UTF-8" standalone="no"?>
<svg
   xmlns:dc="http://purl.org/dc/elements/1.1/"
   xmlns:cc="http://creativecommons.org/ns#"
   xmlns:rdf="http://www.w3.org/1999/02/22-rdf-syntax-ns#"
   xmlns:svg="http://www.w3.org/2000/svg"
   xmlns="http://www.w3.org/2000/svg"
   xmlns:sodipodi="http://sodipodi.sourceforge.net/DTD/sodipodi-0.dtd"
   xmlns:inkscape="http://www.inkscape.org/namespaces/inkscape"
   height="100px"
   width="100px"
   fill="#000000"
   viewBox="0 0 20 20"
   version="1.1"
   x="0px"
   y="0px"
   id="svg12"
   sodipodi:docname="noun_add_860385.svg"
   inkscape:version="0.92.3 (2405546, 2018-03-11)">
  <metadata
     id="metadata18">
    <rdf:RDF>
      <cc:Work
         rdf:about="">
        <dc:format>image/svg+xml</dc:format>
        <dc:type
           rdf:resource="http://purl.org/dc/dcmitype/StillImage" />
      </cc:Work>
    </rdf:RDF>
  </metadata>
  <defs
     id="defs16" />
  <sodipodi:namedview
     pagecolor="#ffffff"
     bordercolor="#666666"
     borderopacity="1"
     objecttolerance="10"
     gridtolerance="10"
     guidetolerance="10"
     inkscape:pageopacity="0"
     inkscape:pageshadow="2"
     inkscape:window-width="1920"
     inkscape:window-height="1052"
     id="namedview14"
     showgrid="false"
     inkscape:zoom="2.36"
     inkscape:cx="50"
     inkscape:cy="50"
     inkscape:window-x="0"
     inkscape:window-y="0"
     inkscape:window-maximized="1"
     inkscape:current-layer="svg12" />
  <title
     id="title2">ic_new_question_20px</title>
  <desc
     id="desc4">Created with Sketch.</desc>
  <g
     stroke="none"
     stroke-width="1"
     fill="none"
     fill-rule="evenodd"
     id="g10"
     style="fill:#1f567d;fill-opacity:1">
    <g
       fill="#000000"
       id="g8"
       style="fill:#1f567d;fill-opacity:1">
      <path
         d="M9,9 L5.99539757,9 C5.4556644,9 5,9.44771525 5,10 C5,10.5561352 5.44565467,11 5.99539757,11 L9,11 L9,14.0046024 C9,14.5443356 9.44771525,15 10,15 C10.5561352,15 11,14.5543453 11,14.0046024 L11,11 L14.0046024,11 C14.5443356,11 15,10.5522847 15,10 C15,9.44386482 14.5543453,9 14.0046024,9 L11,9 L11,5.99539757 C11,5.4556644 10.5522847,5 10,5 C9.44386482,5 9,5.44565467 9,5.99539757 L9,9 Z M10,20 C4.4771525,20 0,15.5228475 0,10 C0,4.4771525 4.4771525,0 10,0 C15.5228475,0 20,4.4771525 20,10 C20,15.5228475 15.5228475,20 10,20 Z"
         id="path6"
         style="fill:#1f567d;fill-opacity:1" />
    </g>
  </g>
</svg>
