<?xml version="1.0" encoding="UTF-8" standalone="no"?>
<svg
   xmlns:dc="http://purl.org/dc/elements/1.1/"
   xmlns:cc="http://creativecommons.org/ns#"
   xmlns:rdf="http://www.w3.org/1999/02/22-rdf-syntax-ns#"
   xmlns:svg="http://www.w3.org/2000/svg"
   xmlns="http://www.w3.org/2000/svg"
   xmlns:sodipodi="http://sodipodi.sourceforge.net/DTD/sodipodi-0.dtd"
   xmlns:inkscape="http://www.inkscape.org/namespaces/inkscape"
   id="svg1068"
   version="1.1"
   viewBox="0 0 161.95372 174.0963"
   height="174.0963mm"
   width="161.95372mm"
   sodipodi:docname="open_plan_logo.svg"
   inkscape:version="0.92.3 (2405546, 2018-03-11)">
  <sodipodi:namedview
     pagecolor="#ffffff"
     bordercolor="#666666"
     borderopacity="1"
     objecttolerance="10"
     gridtolerance="10"
     guidetolerance="10"
     inkscape:pageopacity="0"
     inkscape:pageshadow="2"
     inkscape:window-width="1853"
     inkscape:window-height="1025"
     id="namedview47"
     showgrid="false"
     inkscape:zoom="0.50000001"
     inkscape:cx="215.96414"
     inkscape:cy="442.54505"
     inkscape:window-x="1987"
     inkscape:window-y="27"
     inkscape:window-maximized="1"
     inkscape:current-layer="layer2"
     showguides="true"
     inkscape:guide-bbox="true"
     fit-margin-top="1"
     fit-margin-bottom="1"
     fit-margin-left="1"
     fit-margin-right="1" />
  <defs
     id="defs1062">
    <style
       id="style4698"
       type="text/css">
   
    .fil0 {fill:#000000}
   
  </style>
  </defs>
  <metadata
     id="metadata1065">
    <rdf:RDF>
      <cc:Work
         rdf:about="">
        <dc:format>image/svg+xml</dc:format>
        <dc:type
           rdf:resource="http://purl.org/dc/dcmitype/StillImage" />
        <dc:title></dc:title>
      </cc:Work>
    </rdf:RDF>
  </metadata>
  <g
     transform="translate(236.60601,48.872095)"
     id="layer1" />
  <g
     inkscape:groupmode="layer"
     id="layer4"
     inkscape:label="Layer 3"
     transform="translate(3.1080677)"
     sodipodi:insensitive="true"
     style="display:none">
    <path
       id="path6869-9-2"
       d="m 77.847313,0.99999949 -2.0314,0.04237 -2.074291,0.08475 -2.031399,0.126607 -2.031921,0.169499 -1.989029,0.211873 -1.989542,0.296106 -1.98954,0.338481 -1.989029,0.380855 -1.904791,0.42323 -1.947169,0.465605 -1.904789,0.507979 -1.904791,0.550354 -1.86242,0.634587 -1.82005,0.6351029 -1.862421,0.6769611 -1.777659,0.7617111 -1.777669,0.762227 -1.777672,0.8464601 -1.735299,0.8464597 -1.692921,0.8888356 -1.693428,0.973065 -1.692921,0.973585 -1.60869,1.015959 -1.60817,1.057815 -1.60869,1.100709 -1.523421,1.142565 -1.523939,1.142567 -1.523939,1.227832 -1.438672,1.227316 -1.439189,1.269689 -1.39681,1.312064 -1.39682,1.35444 -1.35443,1.353923 -1.26969,1.396814 -1.31259,1.439187 -1.22731,1.481048 -1.18494,1.481563 -1.18546,1.523421 -1.14257,1.566312 -1.1007,1.608172 -1.05782,1.608169 -1.0159598,1.608688 -0.97358,1.650545 -0.93121,1.692921 -0.9312099,1.735294 -0.8464598,1.735296 -0.8464603,1.735293 -0.7622299,1.819527 -0.7193299,1.777669 -0.7198601,1.820045 -0.6345801,1.862418 -0.6351101,1.861902 -0.55035004,1.904794 -0.5074598,1.904793 -0.46561,1.904276 -0.42375,1.947169 -0.38085,1.989026 -0.33847996,1.947167 -0.25373,1.989026 -0.25425,2.0314 -0.16898,2.031402 -0.12713,2.031918 -0.0848,2.031399 v 2.073775 2.073776 l 0.0848,2.031918 0.12713,2.031399 0.16898,2.031402 0.25425,2.031918 0.25373,1.989024 0.33847996,1.989026 0.38085,1.94717 0.42375,1.94665 0.46561,1.904796 0.5074598,1.90428 0.55035004,1.90479 0.6351101,1.86242 0.6345801,1.8619 0.7198601,1.82005 0.7193299,1.82004 0.7622299,1.77767 0.8464603,1.73529 0.8464598,1.7353 0.9312099,1.73529 0.93121,1.69292 0.97358,1.65055 1.0159598,1.65054 1.05782,1.60817 1.1007,1.56632 1.14257,1.56579 1.18546,1.52342 1.18494,1.48157 1.22731,1.48156 1.31259,1.43867 1.26969,1.39682 1.35443,1.35444 1.39682,1.35443 1.39681,1.31207 1.439189,1.26969 1.438672,1.22732 1.523939,1.22731 1.50844,1.17305 15.013551,-20.00963 -0.0568,-0.0398 -2.073781,-1.60817 -1.98954,-1.73529 -1.904791,-1.82005 -1.82005,-1.90479 -1.735288,-2.0314 -1.65055,-2.07378 -1.523932,-2.15852 -1.43919,-2.2009 -1.312069,-2.32802 -0.6351,-1.14258 -0.592209,-1.2273 -0.55036,-1.18494 -0.550352,-1.22784 -0.507979,-1.26969 -0.4656,-1.227316 -0.465609,-1.26969 -0.42323,-1.312066 -0.380852,-1.269688 -0.338489,-1.312066 -0.33899,-1.35444 -0.29611,-1.312063 -0.25373,-1.353923 -0.21187,-1.354439 -0.21136,-1.35444 -0.12712,-1.396814 -0.12713,-1.396815 -0.0848,-1.396296 -0.0847,-1.396815 v -1.439183 -1.438672 l 0.0847,-1.396815 0.0848,-1.396812 0.12713,-1.396815 0.12712,-1.354439 0.21136,-1.396296 0.21187,-1.354439 0.25373,-1.354439 0.29611,-1.312066 0.33899,-1.354439 0.338489,-1.312064 0.380852,-1.26969 0.42323,-1.312067 0.465609,-1.26969 0.4656,-1.227315 0.507979,-1.26969 0.550352,-1.227315 0.55036,-1.184939 0.592209,-1.185458 0.6351,-1.184942 1.312069,-2.328023 1.43919,-2.200381 1.523932,-2.158524 1.65055,-2.074294 1.735288,-1.989026 1.82005,-1.946651 1.904791,-1.820042 1.98954,-1.692921 2.073781,-1.650545 2.158518,-1.523939 2.243791,-1.439188 2.285651,-1.312066 1.184939,-0.634585 1.184939,-0.59273 1.227841,-0.549836 1.22731,-0.550354 1.22732,-0.507979 1.270201,-0.465606 1.269688,-0.465603 1.26969,-0.42323 1.312072,-0.380857 1.312058,-0.338479 1.312071,-0.338482 1.31258,-0.296622 1.354439,-0.253732 1.354442,-0.211873 1.396809,-0.211357 1.35444,-0.127124 1.39682,-0.126608 1.396809,-0.08475 1.438672,-0.08475 h 1.39681 1.43919 l 1.39682,0.08475 1.39681,0.08475 1.396809,0.126608 1.39682,0.127124 1.35444,0.211357 1.354441,0.211873 1.354439,0.253732 1.354429,0.296622 1.312071,0.338482 1.312061,0.338479 1.31259,0.380857 1.269688,0.42323 1.269683,0.465603 1.26969,0.465606 1.22783,0.507979 1.227316,0.550354 1.22731,0.549836 1.18546,0.59273 1.18494,0.634585 2.28565,1.312066 2.24327,1.439188 2.15853,1.523939 2.07429,1.650545 1.98954,1.692921 1.90428,1.820042 1.82004,1.946651 1.73581,1.989026 1.60817,2.074294 1.56632,2.158524 1.39681,2.200381 1.35444,2.328023 0.59221,1.184942 0.59273,1.185458 0.59273,1.184939 0.50798,1.227315 0.50798,1.26969 0.50746,1.227315 0.42375,1.26969 0.42323,1.312067 0.38086,1.26969 0.38086,1.312064 0.2961,1.354439 0.29663,1.312066 0.25373,1.354439 0.25424,1.354439 0.16899,1.396296 0.1695,1.354439 0.12712,1.396815 0.0842,1.396812 0.0424,1.396815 0.0424,1.438672 -0.0424,1.439188 -0.0424,1.396815 -0.0842,1.396296 -0.12712,1.396815 -0.1695,1.396815 -0.16899,1.354439 -0.25424,1.354439 -0.25373,1.353923 -0.29663,1.312064 -0.2961,1.354439 -0.38086,1.312066 -0.38086,1.269688 -0.42323,1.312066 -0.42375,1.26969 -0.50746,1.227311 -0.50798,1.26969 -0.50798,1.22784 -0.59273,1.18494 -0.59273,1.22731 -0.59221,1.14257 -1.35444,2.32802 -1.39681,2.2009 -1.56632,2.15852 -1.60817,2.07378 -1.73581,2.0314 -1.82004,1.90479 -1.90428,1.82005 -1.98954,1.73529 -2.07429,1.60817 -0.0439,0.031 15.00632,20.01428 1.50275,-1.16892 1.48157,-1.22731 1.48156,-1.22732 1.4392,-1.26969 1.39681,-1.31207 1.39681,-1.35443 1.31207,-1.35444 1.31206,-1.39682 1.26969,-1.43867 1.26969,-1.48156 1.18546,-1.48157 1.18494,-1.52342 1.10071,-1.56579 1.10019,-1.56632 1.05833,-1.60817 1.01596,-1.65054 1.01596,-1.65055 0.93121,-1.69292 0.88883,-1.73529 0.88884,-1.7353 0.80408,-1.73529 0.80409,-1.77767 0.71985,-1.82004 0.67696,-1.82005 0.67748,-1.8619 0.59221,-1.86242 0.55036,-1.90479 0.55035,-1.90428 0.46561,-1.904792 0.42323,-1.94665 0.38085,-1.94717 0.29663,-1.989026 0.2961,-1.989024 0.21187,-2.031918 0.21136,-2.031402 0.12713,-2.031399 0.0424,-2.031918 0.0424,-2.073775 -0.0424,-2.073776 -0.0424,-2.031399 -0.12713,-2.031918 -0.21136,-2.031402 -0.21187,-2.031399 -0.2961,-1.989027 -0.29663,-1.947167 -0.38085,-1.989026 -0.42323,-1.947169 -0.46561,-1.904275 -0.55035,-1.904794 -0.55036,-1.904794 -0.59221,-1.861902 -0.67748,-1.862418 -0.67696,-1.820045 -0.71985,-1.777669 -0.80409,-1.819526 -0.80408,-1.735294 -0.88884,-1.735296 -0.88883,-1.735294 -0.93121,-1.692921 -1.01596,-1.650545 -1.01596,-1.608687 -1.05833,-1.60817 -1.10019,-1.608172 -1.10071,-1.566312 -1.18494,-1.52342 -1.18546,-1.481564 -1.26969,-1.481047 -1.26969,-1.439188 -1.31206,-1.396814 -1.31207,-1.353924 -1.39681,-1.354438 -1.39681,-1.312064 -1.4392,-1.26969 -1.48156,-1.227316 -1.48157,-1.227833 -1.52342,-1.142565 -1.56631,-1.142566 -1.5658,-1.100708 -1.60869,-1.057817 -1.65057,-1.015938 -1.65106,-0.973585 -1.69292,-0.973065 -1.69292,-0.8888356 -1.7353,-0.8464598 -1.77818,-0.84646 -1.77767,-0.762227 -1.82005,-0.7617111 -1.82004,-0.6769611 -1.86242,-0.635103 -1.86242,-0.6345869 -1.862416,-0.550354 -1.90427,-0.507979 -1.947171,-0.465605 -1.947172,-0.42323 -1.947158,-0.380855 -1.989029,-0.338481 -1.989543,-0.296106 -2.031399,-0.211873 -1.98954,-0.169499 -2.031921,-0.126607 -2.07378,-0.08475 z"
       style="display:inline;fill:#1f567d;fill-opacity:1;fill-rule:evenodd;stroke:none;stroke-width:0.26458332;enable-background:new"
       inkscape:connector-curvature="0" />
    <g
       aria-label="open_plan"
       style="font-style:normal;font-variant:normal;font-weight:700;font-size:25.39999962px;line-height:125%;font-family:'Roboto Black';text-align:start;letter-spacing:0px;word-spacing:0px;text-anchor:start;display:inline;fill:#000000;fill-opacity:1;stroke:none;stroke-width:0.26458332;enable-background:new"
       id="text6879-2-7">
      <g
         aria-label="open_plan"
         transform="scale(1.0403807,0.96118662)"
         style="font-style:normal;font-variant:normal;font-weight:bold;font-stretch:semi-condensed;font-size:27.11629295px;line-height:1.25;font-family:'DejaVu Sans';-inkscape-font-specification:'DejaVu Sans Bold Semi-Condensed';text-align:center;letter-spacing:0px;word-spacing:0px;text-anchor:middle;fill:#000000;fill-opacity:1;stroke:none;stroke-width:0.07000434"
         id="text865-0" />
    </g>
    <g
       id="g860-5-4"
       transform="matrix(0.59977272,0,0,0.59977272,176.3194,60.968757)">
      <g
         id="g4724-4-6"
         transform="matrix(1.9378947,0,0,1.9378947,132.86204,-26.292101)">
        <g
           id="g838-8-3">
          <path
             d="m -143.72763,24.153373 0,11.011076 -9.53587,5.505538 -9.53588,-5.505538 0,-11.011076 9.53588,-5.505538 z"
             inkscape:randomized="0"
             inkscape:rounded="0"
             inkscape:flatsided="true"
             sodipodi:arg2="0"
             sodipodi:arg1="-0.52359878"
             sodipodi:r2="9.5358725"
             sodipodi:r1="11.011076"
             sodipodi:cy="29.658911"
             sodipodi:cx="-153.2635"
             sodipodi:sides="6"
             id="path839-1-6"
             style="opacity:1;fill:none;fill-opacity:0.66334994;stroke:#1f567d;stroke-width:2.73166132;stroke-linecap:round;stroke-linejoin:miter;stroke-miterlimit:4;stroke-dasharray:none;stroke-dashoffset:0;stroke-opacity:1;paint-order:fill markers stroke"
             sodipodi:type="star" />
          <path
             sodipodi:type="star"
             style="opacity:1;fill:none;fill-opacity:0.66334994;stroke:#1f567d;stroke-width:2.73166132;stroke-linecap:round;stroke-linejoin:miter;stroke-miterlimit:4;stroke-dasharray:none;stroke-dashoffset:0;stroke-opacity:1;paint-order:fill markers stroke"
             id="path841-2-3"
             sodipodi:sides="6"
             sodipodi:cx="-128.78606"
             sodipodi:cy="29.658911"
             sodipodi:r1="11.011076"
             sodipodi:r2="9.5358725"
             sodipodi:arg1="-0.52359878"
             sodipodi:arg2="0"
             inkscape:flatsided="true"
             inkscape:rounded="0"
             inkscape:randomized="0"
             d="m -119.25019,24.153373 1e-5,11.011076 -9.53588,5.505538 -9.53587,-5.505538 0,-11.011076 9.53587,-5.505538 z" />
          <path
             d="m -168.2051,24.153373 0,11.011076 -9.53587,5.505538 -9.53587,-5.505538 0,-11.011076 9.53587,-5.505538 z"
             inkscape:randomized="0"
             inkscape:rounded="0"
             inkscape:flatsided="true"
             sodipodi:arg2="0"
             sodipodi:arg1="-0.52359878"
             sodipodi:r2="9.5358725"
             sodipodi:r1="11.011076"
             sodipodi:cy="29.658911"
             sodipodi:cx="-177.74097"
             sodipodi:sides="6"
             id="path843-8-3"
             style="opacity:1;fill:none;fill-opacity:0.66334994;stroke:#1f567d;stroke-width:2.73166132;stroke-linecap:round;stroke-linejoin:miter;stroke-miterlimit:4;stroke-dasharray:none;stroke-dashoffset:0;stroke-opacity:1;paint-order:fill markers stroke"
             sodipodi:type="star" />
          <path
             sodipodi:type="star"
             style="opacity:1;fill:none;fill-opacity:0.66334994;stroke:#1f567d;stroke-width:2.73166132;stroke-linecap:round;stroke-linejoin:miter;stroke-miterlimit:4;stroke-dasharray:none;stroke-dashoffset:0;stroke-opacity:1;paint-order:fill markers stroke"
             id="path845-9-4"
             sodipodi:sides="6"
             sodipodi:cx="-140.93411"
             sodipodi:cy="8.8520765"
             sodipodi:r1="11.011076"
             sodipodi:r2="9.5358725"
             sodipodi:arg1="-0.52359878"
             sodipodi:arg2="0"
             inkscape:flatsided="true"
             inkscape:rounded="0"
             inkscape:randomized="0"
             d="m -131.39824,3.3465385 0,11.0110755 -9.53587,5.505539 -9.53587,-5.505538 0,-11.0110764 9.53587,-5.505538 z" />
          <path
             sodipodi:type="star"
             style="opacity:1;fill:none;fill-opacity:0.66334994;stroke:#1f567d;stroke-width:2.73166132;stroke-linecap:round;stroke-linejoin:miter;stroke-miterlimit:4;stroke-dasharray:none;stroke-dashoffset:0;stroke-opacity:1;paint-order:fill markers stroke"
             id="path847-3-4"
             sodipodi:sides="6"
             sodipodi:cx="-165.41158"
             sodipodi:cy="8.8520765"
             sodipodi:r1="11.011076"
             sodipodi:r2="9.5358725"
             sodipodi:arg1="-0.52359878"
             sodipodi:arg2="0"
             inkscape:flatsided="true"
             inkscape:rounded="0"
             inkscape:randomized="0"
             d="m -155.8757,3.3465385 0,11.0110755 -9.53588,5.505539 -9.53587,-5.505538 0,-11.0110764 9.53587,-5.505538 z" />
          <path
             d="m -131.39824,45.150731 0,11.011076 -9.53587,5.505538 -9.53587,-5.505538 0,-11.011076 9.53587,-5.505538 z"
             inkscape:randomized="0"
             inkscape:rounded="0"
             inkscape:flatsided="true"
             sodipodi:arg2="0"
             sodipodi:arg1="-0.52359878"
             sodipodi:r2="9.5358725"
             sodipodi:r1="11.011076"
             sodipodi:cy="50.656269"
             sodipodi:cx="-140.93411"
             sodipodi:sides="6"
             id="path849-6-3"
             style="opacity:1;fill:none;fill-opacity:0.66334994;stroke:#1f567d;stroke-width:2.73166132;stroke-linecap:round;stroke-linejoin:miter;stroke-miterlimit:4;stroke-dasharray:none;stroke-dashoffset:0;stroke-opacity:1;paint-order:fill markers stroke"
             sodipodi:type="star" />
          <path
             d="m -155.8757,45.150731 0,11.011076 -9.53588,5.505538 -9.53587,-5.505538 0,-11.011076 9.53587,-5.505538 z"
             inkscape:randomized="0"
             inkscape:rounded="0"
             inkscape:flatsided="true"
             sodipodi:arg2="0"
             sodipodi:arg1="-0.52359878"
             sodipodi:r2="9.5358725"
             sodipodi:r1="11.011076"
             sodipodi:cy="50.656269"
             sodipodi:cx="-165.41158"
             sodipodi:sides="6"
             id="path851-8-9"
             style="opacity:1;fill:none;fill-opacity:0.66334994;stroke:#1f567d;stroke-width:2.73166132;stroke-linecap:round;stroke-linejoin:miter;stroke-miterlimit:4;stroke-dasharray:none;stroke-dashoffset:0;stroke-opacity:1;paint-order:fill markers stroke"
             sodipodi:type="star" />
        </g>
      </g>
    </g>
    <text
       xml:space="preserve"
       style="font-style:normal;font-variant:normal;font-weight:bold;font-stretch:semi-condensed;font-size:26.57993317px;line-height:1.25;font-family:'DejaVu Sans';-inkscape-font-specification:'DejaVu Sans Bold Semi-Condensed';text-align:center;letter-spacing:0px;word-spacing:0px;text-anchor:middle;fill:#000000;fill-opacity:1;stroke:none;stroke-width:0.26458335"
       x="73.7593"
       y="177.52278"
       id="text879"
       transform="scale(1.0617869,0.94180857)"><tspan
         sodipodi:role="line"
         id="tspan877"
         x="73.7593"
         y="177.52278"
         style="font-style:normal;font-variant:normal;font-weight:bold;font-stretch:semi-condensed;font-size:26.57993317px;font-family:'DejaVu Sans';-inkscape-font-specification:'DejaVu Sans Bold Semi-Condensed';stroke-width:0.26458335">open_plan</tspan></text>
  </g>
  <g
     inkscape:groupmode="layer"
     id="layer2"
     inkscape:label="Layer 4">
    <path
       id="path6869-9-2-9"
       d="m 80.955382,0.99999983 -2.031402,0.04237 -2.074291,0.08475 -2.031399,0.126607 -2.031921,0.169499 -1.989029,0.211873 -1.989542,0.296106 -1.989539,0.338481 -1.989029,0.380855 -1.904791,0.42323 -1.94717,0.465605 -1.904788,0.5079791 -1.904791,0.550354 -1.86242,0.6345869 -1.82005,0.6351029 -1.862421,0.6769611 -1.777659,0.761711 -1.777669,0.762227 -1.777672,0.8464603 -1.735299,0.8464597 -1.69292,0.8888362 -1.693429,0.973065 -1.69292,0.973585 -1.608691,1.015958 -1.608171,1.057815 -1.608688,1.10071 -1.523423,1.142565 -1.523939,1.142567 -1.523937,1.227832 -1.438674,1.227316 -1.439188,1.269689 -1.39681,1.312064 -1.39682,1.35444 -1.35443,1.353923 -1.26969,1.396814 -1.31259,1.439186 -1.22731,1.481048 -1.18494,1.481563 -1.18546,1.52342 -1.14257,1.566313 -1.1007,1.608171 -1.05782,1.60817 -1.01596,1.608687 -0.97358,1.650548 -0.93121,1.69292 -0.9312101,1.735294 -0.8464597,1.735296 -0.8464603,1.735294 -0.7622299,1.819526 -0.7193298,1.777669 -0.71986,1.820045 -0.6345804,1.862418 -0.63511,1.861902 -0.55035,1.904794 L 3.49758,61.015454 3.03197,62.919729 2.60822,64.866898 2.22737,66.855925 1.88889,68.803091 1.63516,70.792118 1.38091,72.823517 1.21193,74.854919 1.0848,76.886837 1,78.918236 v 2.073775 2.073778 l 0.0848,2.031918 0.12713,2.031399 0.16898,2.031402 0.25425,2.031918 0.25373,1.989023 0.33848,1.989027 0.38085,1.947169 0.42375,1.946651 0.46561,1.904794 0.5074598,1.90428 0.55035,1.90479 0.63511,1.86242 0.6345804,1.8619 0.71986,1.82005 0.7193298,1.82004 0.7622299,1.77767 0.8464603,1.73529 0.8464597,1.7353 0.9312101,1.73529 0.93121,1.69292 0.97358,1.65055 1.01596,1.65054 1.05782,1.60817 1.1007,1.56632 1.14257,1.56579 1.18546,1.52342 1.18494,1.48157 1.22731,1.48156 1.31259,1.43867 1.26969,1.39682 1.35443,1.35444 1.39682,1.35443 1.39681,1.31207 1.439188,1.26969 1.438674,1.22732 1.523937,1.22731 1.508442,1.17305 15.013551,-20.00963 -0.0568,-0.0398 -2.07378,-1.60817 -1.98954,-1.73529 -1.904791,-1.82005 -1.82005,-1.90479 -1.735288,-2.0314 -1.650551,-2.07378 -1.523933,-2.15852 -1.439188,-2.2009 -1.312069,-2.32802 -0.6351,-1.14258 -0.592209,-1.2273 -0.55036,-1.18494 -0.550352,-1.22784 -0.507981,-1.26969 -0.465598,-1.227315 -0.465611,-1.26969 -0.42323,-1.312066 -0.380852,-1.269688 -0.338487,-1.312066 -0.338991,-1.354439 -0.29611,-1.312063 -0.25373,-1.353924 -0.21187,-1.354439 -0.21136,-1.354441 -0.12712,-1.396812 -0.12713,-1.396815 -0.0848,-1.396296 -0.0847,-1.396815 v -1.439185 -1.438672 l 0.0847,-1.396815 0.0848,-1.396812 0.12713,-1.396815 0.12712,-1.354439 0.21136,-1.396296 0.21187,-1.354439 0.25373,-1.354439 0.29611,-1.312066 0.338991,-1.354439 0.338487,-1.312064 0.380852,-1.26969 0.42323,-1.312066 0.465611,-1.26969 0.465598,-1.227315 0.507981,-1.269691 0.550352,-1.227314 0.55036,-1.184939 0.592209,-1.185458 0.6351,-1.184942 1.312069,-2.328023 1.439188,-2.200381 1.523933,-2.158524 1.650551,-2.074293 1.735288,-1.989027 1.82005,-1.94665 1.904791,-1.820043 1.98954,-1.69292 2.07378,-1.650545 2.158518,-1.523939 2.243791,-1.439191 2.285651,-1.312066 1.184939,-0.634584 1.184939,-0.59273 1.227841,-0.549836 1.22731,-0.550352 1.22732,-0.507982 1.270201,-0.465605 1.269687,-0.465604 1.269691,-0.42323 1.312071,-0.380854 1.312058,-0.338482 1.312072,-0.33848 1.312579,-0.296622 1.354439,-0.253732 1.354442,-0.211873 1.396809,-0.211357 1.354442,-0.127124 1.39682,-0.126608 1.396807,-0.08475 1.438674,-0.08475 h 1.39681 1.43919 l 1.39682,0.08475 1.39681,0.08475 1.396809,0.126608 1.39682,0.127124 1.354439,0.211357 1.354442,0.211873 1.354439,0.253732 1.354429,0.296622 1.312071,0.33848 1.312061,0.338482 1.31259,0.380854 1.269687,0.42323 1.269683,0.465604 1.269687,0.465605 1.22783,0.507982 1.22732,0.550352 1.22731,0.549836 1.18546,0.59273 1.18494,0.634584 2.28565,1.312066 2.24327,1.439191 2.15853,1.523939 2.07429,1.650545 1.98954,1.69292 1.90428,1.820043 1.82004,1.94665 1.73581,1.989027 1.60817,2.074293 1.56632,2.158524 1.39681,2.200381 1.35444,2.328023 0.59221,1.184942 0.59273,1.185458 0.59273,1.184939 0.50798,1.227314 0.50798,1.269691 0.50746,1.227315 0.42375,1.26969 0.42323,1.312066 0.38086,1.26969 0.38086,1.312064 0.2961,1.354439 0.29663,1.312066 0.25373,1.354439 0.25424,1.354439 0.16899,1.396296 0.1695,1.354439 0.12712,1.396815 0.0842,1.396812 0.0424,1.396815 0.0424,1.438672 -0.0424,1.43919 -0.0424,1.396815 -0.0842,1.396296 -0.12712,1.396815 -0.1695,1.396815 -0.16899,1.354439 -0.25424,1.354439 -0.25373,1.353923 -0.29663,1.312063 -0.2961,1.354439 -0.38086,1.312066 -0.38086,1.269688 -0.42323,1.312066 -0.42375,1.269691 -0.50746,1.227309 -0.50798,1.26969 -0.50798,1.22784 -0.59273,1.18494 -0.59273,1.22731 -0.59221,1.14257 -1.35444,2.32802 -1.39681,2.2009 -1.56632,2.15852 -1.60817,2.07378 -1.73581,2.0314 -1.82004,1.90479 -1.90428,1.82005 -1.98954,1.73529 -2.07429,1.60817 -0.0439,0.031 15.00632,20.01428 1.50275,-1.16892 1.48157,-1.22731 1.48156,-1.22732 1.4392,-1.26969 1.39681,-1.31207 1.39681,-1.35443 1.31207,-1.35444 1.31206,-1.39682 1.26969,-1.43867 1.26969,-1.48156 1.18546,-1.48157 1.18494,-1.52342 1.10071,-1.56579 1.10019,-1.56632 1.05833,-1.60817 1.01596,-1.65054 1.01596,-1.65055 0.93121,-1.69292 0.88883,-1.73529 0.88884,-1.7353 0.80408,-1.73529 0.80409,-1.77767 0.71985,-1.82004 0.67696,-1.82005 0.67748,-1.8619 0.59221,-1.86242 0.55036,-1.90479 0.55035,-1.90428 0.46561,-1.90479 0.42323,-1.946651 0.38085,-1.947169 0.29663,-1.989026 0.2961,-1.989024 0.21187,-2.031918 0.21136,-2.031402 0.12713,-2.031399 0.0424,-2.031918 0.0424,-2.073775 -0.0424,-2.073778 -0.0424,-2.031399 -0.12713,-2.031918 -0.21136,-2.031402 -0.21187,-2.031399 -0.2961,-1.989027 -0.29663,-1.947166 -0.38085,-1.989027 -0.42323,-1.947169 -0.46561,-1.904275 -0.55035,-1.904793 -0.55036,-1.904794 -0.59221,-1.861902 -0.67748,-1.862418 -0.67696,-1.820045 -0.71985,-1.777669 -0.80409,-1.819526 -0.80408,-1.735294 -0.88884,-1.735296 -0.88883,-1.735293 -0.93121,-1.692921 -1.01596,-1.650547 -1.01596,-1.608686 -1.05833,-1.608171 -1.10019,-1.608172 -1.10071,-1.566312 -1.18494,-1.523418 -1.18546,-1.481566 -1.26969,-1.481045 -1.26969,-1.439189 -1.31206,-1.396814 -1.31207,-1.353924 -1.39681,-1.354438 -1.39681,-1.312064 -1.4392,-1.26969 -1.48156,-1.227316 -1.48157,-1.227833 -1.52342,-1.142565 -1.56631,-1.142566 -1.5658,-1.100708 -1.60869,-1.057817 -1.65057,-1.015938 -1.65106,-0.973585 -1.69292,-0.973066 -1.69292,-0.8888352 -1.7353,-0.8464598 -1.77818,-0.84646 -1.77767,-0.7622269 -1.82005,-0.7617114 -1.82004,-0.676961 -1.86242,-0.6351029 -1.86242,-0.634587 -1.86242,-0.5503539 -1.90427,-0.5079791 -1.947168,-0.465605 -1.947172,-0.42323 -1.947159,-0.380855 -1.989029,-0.338481 -1.989542,-0.296106 -2.031399,-0.211873 -1.98954,-0.169499 -2.031921,-0.126607 -2.07378,-0.08475 z"
       style="display:inline;fill:#1f567d;fill-opacity:1;fill-rule:evenodd;stroke:none;stroke-width:0.26458332;enable-background:new"
       inkscape:connector-curvature="0" />
    <g
       id="g860-5-4-4"
       transform="matrix(0.59977272,0,0,0.59977272,179.42747,60.968755)">
      <g
         id="g4724-4-6-1"
         transform="matrix(1.9378947,0,0,1.9378947,132.86204,-26.292101)">
        <g
           id="g838-8-3-5">
          <path
             d="m -143.72763,24.153373 0,11.011076 -9.53587,5.505538 -9.53588,-5.505538 0,-11.011076 9.53588,-5.505538 z"
             inkscape:randomized="0"
             inkscape:rounded="0"
             inkscape:flatsided="true"
             sodipodi:arg2="0"
             sodipodi:arg1="-0.52359878"
             sodipodi:r2="9.5358725"
             sodipodi:r1="11.011076"
             sodipodi:cy="29.658911"
             sodipodi:cx="-153.2635"
             sodipodi:sides="6"
             id="path839-1-6-4"
             style="opacity:1;fill:none;fill-opacity:0.66334994;stroke:#1f567d;stroke-width:2.73166132;stroke-linecap:round;stroke-linejoin:miter;stroke-miterlimit:4;stroke-dasharray:none;stroke-dashoffset:0;stroke-opacity:1;paint-order:fill markers stroke"
             sodipodi:type="star" />
          <path
             sodipodi:type="star"
             style="opacity:1;fill:none;fill-opacity:0.66334994;stroke:#1f567d;stroke-width:2.73166132;stroke-linecap:round;stroke-linejoin:miter;stroke-miterlimit:4;stroke-dasharray:none;stroke-dashoffset:0;stroke-opacity:1;paint-order:fill markers stroke"
             id="path841-2-3-1"
             sodipodi:sides="6"
             sodipodi:cx="-128.78606"
             sodipodi:cy="29.658911"
             sodipodi:r1="11.011076"
             sodipodi:r2="9.5358725"
             sodipodi:arg1="-0.52359878"
             sodipodi:arg2="0"
             inkscape:flatsided="true"
             inkscape:rounded="0"
             inkscape:randomized="0"
             d="m -119.25019,24.153373 1e-5,11.011076 -9.53588,5.505538 -9.53587,-5.505538 0,-11.011076 9.53587,-5.505538 z" />
          <path
             d="m -168.2051,24.153373 0,11.011076 -9.53587,5.505538 -9.53587,-5.505538 0,-11.011076 9.53587,-5.505538 z"
             inkscape:randomized="0"
             inkscape:rounded="0"
             inkscape:flatsided="true"
             sodipodi:arg2="0"
             sodipodi:arg1="-0.52359878"
             sodipodi:r2="9.5358725"
             sodipodi:r1="11.011076"
             sodipodi:cy="29.658911"
             sodipodi:cx="-177.74097"
             sodipodi:sides="6"
             id="path843-8-3-5"
             style="opacity:1;fill:none;fill-opacity:0.66334994;stroke:#1f567d;stroke-width:2.73166132;stroke-linecap:round;stroke-linejoin:miter;stroke-miterlimit:4;stroke-dasharray:none;stroke-dashoffset:0;stroke-opacity:1;paint-order:fill markers stroke"
             sodipodi:type="star" />
          <path
             sodipodi:type="star"
             style="opacity:1;fill:none;fill-opacity:0.66334994;stroke:#1f567d;stroke-width:2.73166132;stroke-linecap:round;stroke-linejoin:miter;stroke-miterlimit:4;stroke-dasharray:none;stroke-dashoffset:0;stroke-opacity:1;paint-order:fill markers stroke"
             id="path845-9-4-5"
             sodipodi:sides="6"
             sodipodi:cx="-140.93411"
             sodipodi:cy="8.8520765"
             sodipodi:r1="11.011076"
             sodipodi:r2="9.5358725"
             sodipodi:arg1="-0.52359878"
             sodipodi:arg2="0"
             inkscape:flatsided="true"
             inkscape:rounded="0"
             inkscape:randomized="0"
             d="m -131.39824,3.3465385 0,11.0110755 -9.53587,5.505539 -9.53587,-5.505538 0,-11.0110764 9.53587,-5.505538 z" />
          <path
             sodipodi:type="star"
             style="opacity:1;fill:none;fill-opacity:0.66334994;stroke:#1f567d;stroke-width:2.73166132;stroke-linecap:round;stroke-linejoin:miter;stroke-miterlimit:4;stroke-dasharray:none;stroke-dashoffset:0;stroke-opacity:1;paint-order:fill markers stroke"
             id="path847-3-4-4"
             sodipodi:sides="6"
             sodipodi:cx="-165.41158"
             sodipodi:cy="8.8520765"
             sodipodi:r1="11.011076"
             sodipodi:r2="9.5358725"
             sodipodi:arg1="-0.52359878"
             sodipodi:arg2="0"
             inkscape:flatsided="true"
             inkscape:rounded="0"
             inkscape:randomized="0"
             d="m -155.8757,3.3465385 0,11.0110755 -9.53588,5.505539 -9.53587,-5.505538 0,-11.0110764 9.53587,-5.505538 z" />
          <path
             d="m -131.39824,45.150731 0,11.011076 -9.53587,5.505538 -9.53587,-5.505538 0,-11.011076 9.53587,-5.505538 z"
             inkscape:randomized="0"
             inkscape:rounded="0"
             inkscape:flatsided="true"
             sodipodi:arg2="0"
             sodipodi:arg1="-0.52359878"
             sodipodi:r2="9.5358725"
             sodipodi:r1="11.011076"
             sodipodi:cy="50.656269"
             sodipodi:cx="-140.93411"
             sodipodi:sides="6"
             id="path849-6-3-9"
             style="opacity:1;fill:none;fill-opacity:0.66334994;stroke:#1f567d;stroke-width:2.73166132;stroke-linecap:round;stroke-linejoin:miter;stroke-miterlimit:4;stroke-dasharray:none;stroke-dashoffset:0;stroke-opacity:1;paint-order:fill markers stroke"
             sodipodi:type="star" />
          <path
             d="m -155.8757,45.150731 0,11.011076 -9.53588,5.505538 -9.53587,-5.505538 0,-11.011076 9.53587,-5.505538 z"
             inkscape:randomized="0"
             inkscape:rounded="0"
             inkscape:flatsided="true"
             sodipodi:arg2="0"
             sodipodi:arg1="-0.52359878"
             sodipodi:r2="9.5358725"
             sodipodi:r1="11.011076"
             sodipodi:cy="50.656269"
             sodipodi:cx="-165.41158"
             sodipodi:sides="6"
             id="path851-8-9-8"
             style="opacity:1;fill:none;fill-opacity:0.66334994;stroke:#1f567d;stroke-width:2.73166132;stroke-linecap:round;stroke-linejoin:miter;stroke-miterlimit:4;stroke-dasharray:none;stroke-dashoffset:0;stroke-opacity:1;paint-order:fill markers stroke"
             sodipodi:type="star" />
        </g>
      </g>
    </g>
    <g
       aria-label="open_plan"
       transform="scale(1.0617869,0.94180857)"
       style="font-style:normal;font-variant:normal;font-weight:bold;font-stretch:semi-condensed;font-size:26.57993317px;line-height:1.25;font-family:'DejaVu Sans';-inkscape-font-specification:'DejaVu Sans Bold Semi-Condensed';text-align:center;letter-spacing:0px;word-spacing:0px;text-anchor:middle;fill:#000000;fill-opacity:1;stroke:none;stroke-width:0.26458335"
       id="text879-3">
      <path
         d="m 16.258691,165.95895 q -1.388697,0 -2.115492,1.11615 -0.726795,1.10317 -0.726795,3.19271 0,2.08954 0.726795,3.20568 0.726795,1.10318 2.115492,1.10318 1.37572,0 2.089536,-1.10318 0.726795,-1.11614 0.726795,-3.20568 0,-2.08954 -0.726795,-3.19271 -0.713816,-1.11615 -2.089536,-1.11615 z m 0,-3.32249 q 3.387384,0 5.282243,2.02464 1.894858,2.02465 1.894858,5.60671 0,3.58206 -1.894858,5.6067 -1.894859,2.02465 -5.282243,2.02465 -3.374405,0 -5.295221,-2.02465 -1.9078367,-2.02464 -1.9078367,-5.6067 0,-3.58206 1.9078367,-5.60671 1.920816,-2.02464 5.295221,-2.02464 z"
         style="font-style:normal;font-variant:normal;font-weight:bold;font-stretch:semi-condensed;font-size:26.57993317px;font-family:'DejaVu Sans';-inkscape-font-specification:'DejaVu Sans Bold Semi-Condensed';stroke-width:0.26458335"
         id="path933" />
      <path
         d="m 30.677786,175.42027 v 7.63135 h -4.179071 v -20.06474 h 4.179071 v 2.12847 q 0.869558,-1.27189 1.920816,-1.8689 1.051257,-0.60999 2.413997,-0.60999 2.413998,0 3.971416,2.14145 1.557418,2.12847 1.557418,5.4899 0,3.36143 -1.557418,5.50288 -1.557418,2.12847 -3.971416,2.12847 -1.36274,0 -2.413997,-0.59701 -1.051258,-0.60999 -1.920816,-1.88188 z m 2.777395,-9.4094 q -1.336783,0 -2.063578,1.10317 -0.713817,1.09019 -0.713817,3.15377 0,2.06358 0.713817,3.16675 0.726795,1.09019 2.063578,1.09019 1.349763,0 2.050601,-1.09019 0.713816,-1.09019 0.713816,-3.16675 0,-2.07656 -0.713816,-3.16675 -0.700838,-1.09019 -2.050601,-1.09019 z"
         style="font-style:normal;font-variant:normal;font-weight:bold;font-stretch:semi-condensed;font-size:26.57993317px;font-family:'DejaVu Sans';-inkscape-font-specification:'DejaVu Sans Bold Semi-Condensed';stroke-width:0.26458335"
         id="path935" />
      <path
         d="m 56.686666,170.2159 v 1.3238 h -9.772798 q 0.142764,1.63529 1.051257,2.45293 0.921473,0.81765 2.556762,0.81765 1.323805,0 2.699524,-0.42829 1.388698,-0.44127 2.842288,-1.32381 v 3.58206 q -1.479547,0.62297 -2.972073,0.93446 -1.479547,0.32446 -2.959094,0.32446 -3.556104,0 -5.528834,-1.99869 -1.959751,-2.01166 -1.959751,-5.63266 0,-3.5561 1.933794,-5.59373 1.933794,-2.03762 5.321178,-2.03762 3.088879,0 4.931824,2.06358 1.855923,2.06358 1.855923,5.51586 z m -4.295878,-1.54444 q 0,-1.32381 -0.700838,-2.12848 -0.68786,-0.81764 -1.816988,-0.81764 -1.206999,0 -1.972729,0.76573 -0.752752,0.75275 -0.947429,2.18039 z"
         style="font-style:normal;font-variant:normal;font-weight:bold;font-stretch:semi-condensed;font-size:26.57993317px;font-family:'DejaVu Sans';-inkscape-font-specification:'DejaVu Sans Bold Semi-Condensed';stroke-width:0.26458335"
         id="path937" />
      <path
         d="m 73.026577,168.67146 v 8.85132 h -4.205029 v -1.44061 -5.33416 q 0,-1.88188 -0.07787,-2.59569 -0.07787,-0.71382 -0.25957,-1.05126 -0.246591,-0.45425 -0.674881,-0.70084 -0.415312,-0.25957 -0.947429,-0.25957 -1.310827,0 -2.063579,1.12913 -0.739774,1.11615 -0.739774,3.10186 v 7.15114 h -4.179071 v -14.5359 h 4.179071 v 2.12847 q 0.947429,-1.27189 2.011665,-1.8689 1.064236,-0.60999 2.349105,-0.60999 2.258257,0 3.42632,1.54444 1.181042,1.54444 1.181042,4.49056 z"
         style="font-style:normal;font-variant:normal;font-weight:bold;font-stretch:semi-condensed;font-size:26.57993317px;font-family:'DejaVu Sans';-inkscape-font-specification:'DejaVu Sans Bold Semi-Condensed';stroke-width:0.26458335"
         id="path939" />
      <path
         d="m 86.861637,181.32548 v 2.46591 H 74.895476 v -2.46591 z"
         style="font-style:normal;font-variant:normal;font-weight:bold;font-stretch:semi-condensed;font-size:26.57993317px;font-family:'DejaVu Sans';-inkscape-font-specification:'DejaVu Sans Bold Semi-Condensed';stroke-width:0.26458335"
         id="path941" />
      <path
         d="m 93.026421,175.42027 v 7.63135 h -4.179072 v -20.06474 h 4.179072 v 2.12847 q 0.869558,-1.27189 1.920815,-1.8689 1.051257,-0.60999 2.413998,-0.60999 2.413998,0 3.971416,2.14145 1.55742,2.12847 1.55742,5.4899 0,3.36143 -1.55742,5.50288 -1.557418,2.12847 -3.971416,2.12847 -1.362741,0 -2.413998,-0.59701 -1.051257,-0.60999 -1.920815,-1.88188 z m 2.777395,-9.4094 q -1.336784,0 -2.063579,1.10317 -0.713816,1.09019 -0.713816,3.15377 0,2.06358 0.713816,3.16675 0.726795,1.09019 2.063579,1.09019 1.349762,0 2.0506,-1.09019 0.713817,-1.09019 0.713817,-3.16675 0,-2.07656 -0.713817,-3.16675 -0.700838,-1.09019 -2.0506,-1.09019 z"
         style="font-style:normal;font-variant:normal;font-weight:bold;font-stretch:semi-condensed;font-size:26.57993317px;font-family:'DejaVu Sans';-inkscape-font-specification:'DejaVu Sans Bold Semi-Condensed';stroke-width:0.26458335"
         id="path943" />
      <path
         d="m 105.97895,157.32826 h 4.17907 v 20.19452 h -4.17907 z"
         style="font-style:normal;font-variant:normal;font-weight:bold;font-stretch:semi-condensed;font-size:26.57993317px;font-family:'DejaVu Sans';-inkscape-font-specification:'DejaVu Sans Bold Semi-Condensed';stroke-width:0.26458335"
         id="path945" />
      <path
         d="m 120.04762,170.98163 q -1.31082,0 -1.97273,0.49318 -0.6619,0.49318 -0.6619,1.45359 0,0.88254 0.53212,1.3887 0.53212,0.49318 1.47955,0.49318 1.18104,0 1.9857,-0.93445 0.80467,-0.94743 0.80467,-2.36209 v -0.53211 z m 6.38542,-1.7521 v 8.29325 h -4.21801 v -2.15443 q -0.8436,1.32381 -1.89486,1.9338 -1.05126,0.59701 -2.55676,0.59701 -2.03762,0 -3.30951,-1.31083 -1.25892,-1.3238 -1.25892,-3.42632 0,-2.55676 1.58338,-3.75078 1.58337,-1.19402 4.97076,-1.19402 h 2.46591 v -0.3634 q 0,-1.10317 -0.79169,-1.60933 -0.77871,-0.51914 -2.42697,-0.51914 -1.34977,0 -2.50485,0.29851 -1.15509,0.2985 -2.15443,0.89551 v -3.54313 q 1.34976,-0.36339 2.69953,-0.54509 1.36274,-0.19468 2.7125,-0.19468 3.54312,0 5.11352,1.55742 1.5704,1.54444 1.5704,5.03565 z"
         style="font-style:normal;font-variant:normal;font-weight:bold;font-stretch:semi-condensed;font-size:26.57993317px;font-family:'DejaVu Sans';-inkscape-font-specification:'DejaVu Sans Bold Semi-Condensed';stroke-width:0.26458335"
         id="path947" />
      <path
         d="m 143.47379,168.67146 v 8.85132 h -4.20503 v -1.44061 -5.33416 q 0,-1.88188 -0.0779,-2.59569 -0.0779,-0.71382 -0.25957,-1.05126 -0.24659,-0.45425 -0.67488,-0.70084 -0.41532,-0.25957 -0.94743,-0.25957 -1.31083,0 -2.06358,1.12913 -0.73978,1.11615 -0.73978,3.10186 v 7.15114 h -4.17907 v -14.5359 h 4.17907 v 2.12847 q 0.94743,-1.27189 2.01167,-1.8689 1.06423,-0.60999 2.3491,-0.60999 2.25826,0 3.42632,1.54444 1.18105,1.54444 1.18105,4.49056 z"
         style="font-style:normal;font-variant:normal;font-weight:bold;font-stretch:semi-condensed;font-size:26.57993317px;font-family:'DejaVu Sans';-inkscape-font-specification:'DejaVu Sans Bold Semi-Condensed';stroke-width:0.26458335"
         id="path949" />
    </g>
  </g>
</svg>
